<?xml version="1.0" encoding="utf-8"?>
<!-- Generator: Adobe Illustrator 26.0.0, SVG Export Plug-In . SVG Version: 6.00 Build 0)  -->
<svg version="1.1" id="Capa_1" xmlns="http://www.w3.org/2000/svg" xmlns:xlink="http://www.w3.org/1999/xlink" x="0px" y="0px"
	 viewBox="0 0 1054.9 634.9" style="enable-background:new 0 0 1054.9 634.9;" xml:space="preserve">
<style type="text/css">
	.st0{fill:url(#SVGID_1_);}
	.st1{opacity:0.5;fill:url(#SVGID_00000007395229111794507240000015039239541490251440_);enable-background:new    ;}
	.st2{fill:#B3B3B3;}
	.st3{fill:#FFFFFF;}
	.st4{fill:#79038E;}
</style>
<g>
	
		<linearGradient id="SVGID_1_" gradientUnits="userSpaceOnUse" x1="0" y1="318.46" x2="1054.89" y2="318.46" gradientTransform="matrix(1 0 0 -1 0 635.89)">
		<stop  offset="7.790000e-02" style="stop-color:#540475"/>
		<stop  offset="1" style="stop-color:#000000"/>
	</linearGradient>
	<path class="st0" d="M996.2,634.9H58.7C26.3,634.9,0,608.6,0,576.1V58.7C0,26.3,26.3,0,58.7,0h937.5c32.4,0,58.7,26.3,58.7,58.7
		v517.4C1054.9,608.6,1028.6,634.9,996.2,634.9z"/>
	
		<linearGradient id="SVGID_00000110441313684968317100000003932751412238818957_" gradientUnits="userSpaceOnUse" x1="352.2985" y1="855.3495" x2="295.5442" y2="36.4759" gradientTransform="matrix(1 0 0 -1 0 635.89)">
		<stop  offset="0" style="stop-color:#FFFFFF"/>
		<stop  offset="7.090000e-02" style="stop-color:#D4D4D4"/>
		<stop  offset="0.1641" style="stop-color:#A3A3A3"/>
		<stop  offset="0.2621" style="stop-color:#777777"/>
		<stop  offset="0.3634" style="stop-color:#525252"/>
		<stop  offset="0.4686" style="stop-color:#343434"/>
		<stop  offset="0.5793" style="stop-color:#1D1D1D"/>
		<stop  offset="0.6976" style="stop-color:#0D0D0D"/>
		<stop  offset="0.8291" style="stop-color:#030303"/>
		<stop  offset="1" style="stop-color:#000000"/>
	</linearGradient>
	<path style="opacity:0.5;fill:url(#SVGID_00000110441313684968317100000003932751412238818957_);enable-background:new    ;" d="
		M670.2,0H58.7C26.3,0,0,26.3,0,58.7v517.4c0,32.4,26.3,58.7,58.7,58.7h248.1L670.2,0z"/>
	<g>
		<path class="st2" d="M910.7,92.7v8.1c9.6,0,17.4,7.8,17.4,17.4h8.1C936.2,104.1,924.7,92.7,910.7,92.7z"/>
		<path class="st2" d="M910.7,77v8.7c17.9,0,32.5,14.6,32.5,32.5h8.7C951.8,95.5,933.4,77,910.7,77z"/>
		<path class="st2" d="M915.3,108.8c-2.4,0-4.4,2-4.4,4.4s2,4.4,4.4,4.4c2.4,0,4.4-2,4.4-4.4S917.8,108.8,915.3,108.8z"/>
	</g>
	<g>
		<path class="st2" d="M358.3,82.3c0.4,0,0.6,0.2,0.7,0.7l8.2,27.4c0,0.3,0.2,0.4,0.4,0.4h0.2c0.2,0,0.3-0.1,0.4-0.4l8.2-25.1
			c0.8-2.3,1.9-2.9,3.8-2.9h5c2.2,0,3.3,0.8,4,2.9l8.4,25.1c0.1,0.3,0.2,0.4,0.4,0.4h0.3c0.2,0,0.3-0.1,0.4-0.4l8-27.4
			c0.1-0.6,0.5-0.7,0.8-0.7h6.9c0.6,0,0.6,0.6,0.4,1.2l-9.8,30.6c-1,3.1-2,3.9-3.9,3.9h-6c-2,0-2.9-0.9-3.9-3.9l-8-24.2
			c0-0.2-0.1-0.4-0.4-0.4h-0.2c-0.2,0-0.4,0.1-0.4,0.4l-8.1,24.2c-1,3-1.9,3.9-3.9,3.9h-5.8c-2.3,0-3.3-0.7-4.3-3.9l-9.4-30.6
			c-0.2-0.7-0.1-1.2,0.4-1.2H358.3z"/>
		<path class="st2" d="M430,82.3c0.8,0,1.1,0.4,1.1,1.1v33.4c0,0.8-0.4,1.1-1.1,1.1h-5.5c-0.8,0-1.2-0.4-1.2-1.1V83.4
			c0-0.8,0.4-1.1,1.2-1.1H430z"/>
		<path class="st2" d="M480.4,82.3c0.8,0,1.2,0.4,1.2,1.1v5c0,0.8-0.4,1.2-1.2,1.2h-16v27.2c0,0.8-0.4,1.1-1.1,1.1h-5.5
			c-0.8,0-1.1-0.4-1.1-1.1V89.6h-16c-0.8,0-1.2-0.4-1.2-1.2v-5c0-0.8,0.4-1.1,1.2-1.1C440.7,82.3,480.4,82.3,480.4,82.3z"/>
		<path class="st2" d="M496.6,82.3c0.8,0,1.1,0.4,1.1,1.1v13.2h23.8V83.4c0-0.8,0.4-1.1,1.1-1.1h5.5c0.8,0,1.2,0.4,1.2,1.1v33.4
			c0,0.8-0.4,1.1-1.2,1.1h-5.5c-0.8,0-1.1-0.4-1.1-1.1v-13.5h-23.8v13.5c0,0.8-0.4,1.1-1.1,1.1h-5.5c-0.8,0-1.2-0.4-1.2-1.1V83.4
			c0-0.8,0.4-1.1,1.2-1.1H496.6z"/>
		<path class="st2" d="M565.1,82.3c11,0,15.6,4.4,15.6,14.3v6.9c0,9.9-4.5,14.3-15.6,14.3h-23.8c-1,0-1.5-0.5-1.5-1.5V83.8
			c0-1,0.5-1.5,1.5-1.5H565.1z M547.6,110.2c0,0.5,0.2,0.7,0.7,0.7h16.7c6,0,8-1.9,8-7.9v-5.6c0-6-2-7.9-8-7.9h-16.7
			c-0.5,0-0.7,0.2-0.7,0.7V110.2z"/>
		<path class="st2" d="M619.7,82.3c7.8,0,10.9,3.6,10.9,10.5v2.9c0,5.8-2.2,9.2-7.6,10.2l8.7,10.8c0.3,0.4,0.2,1.3-0.7,1.3h-6.6
			c-0.9,0-1.1-0.2-1.4-0.7l-8-10.6h-16.4v10.1c0,0.8-0.4,1.1-1.1,1.1H592c-0.8,0-1.2-0.4-1.2-1.1V83.8c0-1,0.5-1.5,1.5-1.5H619.7z
			 M598.7,100.5h19.5c3.5,0,4.7-1.5,4.7-4.5v-2.1c0-3.1-1.3-4.5-4.7-4.5h-18.8c-0.5,0-0.7,0.2-0.7,0.6V100.5z"/>
		<path class="st2" d="M663.3,82.3c2.6,0,4.2,0.8,5.8,3.9l16.8,30.6c0.4,0.7,0.2,1.2-0.6,1.2h-6.5c-0.7,0-0.9-0.2-1.2-0.7l-3.6-6.6
			h-23.9l-3.5,6.6c-0.2,0.5-0.6,0.7-1.2,0.7h-6.6c-0.9,0-1-0.5-0.7-1.2L655,86.2c1.7-3.1,3.2-3.9,5.3-3.9H663.3z M653.4,104.8h17.5
			l-8.1-14.9c-0.2-0.2-0.3-0.4-0.6-0.4H662c-0.2,0-0.4,0.1-0.6,0.4L653.4,104.8z"/>
		<path class="st2" d="M693.5,82.3c0.4,0,0.6,0.2,0.7,0.7l8.2,27.4c0,0.3,0.2,0.4,0.4,0.4h0.2c0.2,0,0.3-0.1,0.4-0.4l8.2-25.1
			c0.8-2.3,1.9-2.9,3.8-2.9h5c2.2,0,3.3,0.8,4,2.9l8.4,25.1c0.1,0.3,0.2,0.4,0.4,0.4h0.3c0.2,0,0.3-0.1,0.4-0.4l8-27.4
			c0.2-0.6,0.5-0.7,0.8-0.7h6.9c0.6,0,0.6,0.6,0.4,1.2l-9.8,30.6c-1,3.1-2,3.9-3.9,3.9h-6c-2,0-2.9-0.9-3.9-3.9l-8-24.2
			c0-0.2-0.2-0.4-0.4-0.4h-0.2c-0.2,0-0.4,0.1-0.4,0.4l-8.1,24.2c-1,3-1.9,3.9-3.9,3.9h-5.8c-2.3,0-3.3-0.7-4.3-3.9l-9.4-30.6
			c-0.2-0.7-0.2-1.2,0.4-1.2H693.5z"/>
		<path class="st2" d="M775.6,82.3c2.6,0,4.2,0.8,5.8,3.9l16.8,30.6c0.4,0.7,0.2,1.2-0.6,1.2h-6.5c-0.7,0-0.9-0.2-1.2-0.7l-3.6-6.6
			h-23.9l-3.5,6.6c-0.2,0.5-0.6,0.7-1.2,0.7h-6.6c-0.9,0-1-0.5-0.7-1.2l16.7-30.6c1.7-3.1,3.2-3.9,5.3-3.9H775.6z M765.7,104.8h17.5
			l-8.1-14.9c-0.2-0.2-0.3-0.4-0.6-0.4h-0.3c-0.2,0-0.4,0.1-0.6,0.4L765.7,104.8z"/>
		<path class="st2" d="M810.9,82.3c0.8,0,1.1,0.4,1.1,1.1v20.3c0,5.4,1.5,7,6.8,7h20.6c0.8,0,1.1,0.4,1.1,1.1v5
			c0,0.8-0.4,1.1-1.1,1.1h-20.9c-10.3,0-14.2-3.7-14.2-13.4V83.4c0-0.8,0.4-1.1,1.2-1.1H810.9z"/>
		<path class="st2" d="M884.2,82.3c0.8,0,1.1,0.4,1.1,1.1v4.8c0,0.8-0.4,1.1-1.1,1.1h-25.5c-1.9,0-2.7,1.1-2.7,2.8V94
			c0,1.9,0.9,2.8,2.6,2.8h19.1c5.8,0,8.9,3.2,8.9,8.8v4.1c0,4.9-2.8,8.3-9,8.3h-28.2c-0.8,0-1.2-0.4-1.2-1.1V112
			c0-0.8,0.4-1.1,1.2-1.1h26.7c1.9,0,2.7-1.1,2.7-2.8v-2.1c0-1.9-0.9-2.8-2.6-2.8h-19.1c-5.8,0-8.9-3.2-8.9-8.8v-3.7
			c0-4.9,2.8-8.3,9-8.3L884.2,82.3L884.2,82.3z"/>
	</g>
	<g>
		<g>
			<g>
				<g>
					<path class="st3" d="M350.1,383.3h-3.5c-1,0-1.9-0.9-1.9-2.1v-21.8c0-1.1,0.8-2.1,1.9-2.1h8.7c0.3,0,0.5,0,0.8,0h0.1
						c0,0,0.1,0,0.1,0c17.8,0.7,32,17.1,32,36.9v82.6c0,1.1-0.8,2.1-1.9,2.1h-22.9c-1,0-1.9-0.9-1.9-2.1v-80.7
						C361.7,389.1,356.5,383.3,350.1,383.3z"/>
					<path class="st4" d="M386.4,480.9h-22.9c-2.1,0-3.9-1.8-3.9-4.1v-80.7c0-6-4.3-10.9-9.6-10.9h-3.5c-2.1,0-3.9-1.8-3.9-4.1
						v-21.8c0-2.2,1.7-4.1,3.9-4.1h8.7c0.3,0,0.5,0,0.8,0c0.1,0,0.2,0,0.3,0c18.7,0.8,33.9,18.2,33.9,38.9v82.6
						C390.3,479.1,388.5,480.9,386.4,480.9z M363.7,476.9h22.5c0,0,0,0,0-0.1v-82.6c0-18.6-13.5-34.2-30.1-34.9H356
						c-0.2,0-0.5,0-0.7,0h-8.6c0,0,0,0,0,0.1v21.8c0,0,0,0,0,0.1h3.4c7.5,0,13.6,6.7,13.6,14.9L363.7,476.9
						C363.7,476.9,363.7,476.9,363.7,476.9z"/>
				</g>
				<g>
					<path class="st3" d="M401.1,442v-47.8c0-20.3,14.9-36.9,33.2-36.9H517c18.2,0,33.2,16.6,33.2,36.9V442
						c0,20.3-14.9,36.9-33.2,36.9h-82.7C416,478.9,401.1,462.3,401.1,442z M512,383.3h-72.7c-6.4,0-11.6,5.8-11.6,12.9v43.9
						c0,7.1,5.2,12.9,11.6,12.9H512c6.4,0,11.6-5.8,11.6-12.9v-43.9C523.6,389.1,518.3,383.3,512,383.3z"/>
					<path class="st4" d="M517,480.9h-82.7c-19.4,0-35.2-17.4-35.2-38.9v-47.8c0-21.4,15.8-38.9,35.2-38.9H517
						c19.4,0,35.2,17.4,35.2,38.9V442C552.1,463.5,536.3,480.9,517,480.9z M434.3,359.4c-17.2,0-31.2,15.6-31.2,34.9V442
						c0,19.2,14,34.9,31.2,34.9H517c17.2,0,31.2-15.6,31.2-34.9v-47.8c0-19.2-14-34.9-31.2-34.9H434.3z M512,455h-72.7
						c-7.5,0-13.6-6.7-13.6-14.9v-43.9c0-8.2,6.1-14.9,13.6-14.9H512c7.5,0,13.6,6.7,13.6,14.9v43.9C525.6,448.3,519.5,455,512,455z
						 M439.2,385.3c-5.3,0-9.6,4.9-9.6,10.9v43.9c0,6,4.3,10.9,9.6,10.9H512c5.3,0,9.6-4.9,9.6-10.9v-43.9c0-6-4.3-10.9-9.6-10.9
						H439.2z"/>
				</g>
				<g>
					<path class="st3" d="M562.9,442v-47.8c0-20.3,14.9-36.9,33.2-36.9h82.7c18.2,0,33.2,16.6,33.2,36.9V442
						c0,20.3-14.9,36.9-33.2,36.9h-82.7C577.8,478.9,562.9,462.3,562.9,442z M673.8,383.3H601c-6.4,0-11.6,5.8-11.6,12.9v43.9
						c0,7.1,5.2,12.9,11.6,12.9h72.7c6.4,0,11.6-5.8,11.6-12.9v-43.9C685.3,389.1,680.1,383.3,673.8,383.3z"/>
					<path class="st4" d="M678.7,480.9h-82.7c-19.4,0-35.2-17.4-35.2-38.9v-47.8c0-21.4,15.8-38.9,35.2-38.9h82.7
						c19.4,0,35.2,17.4,35.2,38.9V442C713.9,463.5,698.1,480.9,678.7,480.9z M596.1,359.4c-17.2,0-31.2,15.6-31.2,34.9V442
						c0,19.2,14,34.9,31.2,34.9h82.7c17.2,0,31.2-15.6,31.2-34.9v-47.8c0-19.2-14-34.9-31.2-34.9H596.1z M673.8,455H601
						c-7.5,0-13.6-6.7-13.6-14.9v-43.9c0-8.2,6.1-14.9,13.6-14.9h72.7c7.5,0,13.6,6.7,13.6,14.9v43.9
						C687.3,448.3,681.2,455,673.8,455z M601,385.3c-5.3,0-9.6,4.9-9.6,10.9v43.9c0,6,4.3,10.9,9.6,10.9h72.7
						c5.3,0,9.6-4.9,9.6-10.9v-43.9c0-6-4.3-10.9-9.6-10.9H601z"/>
				</g>
			</g>
		</g>
	</g>
	<g>
		<path class="st2" d="M122.1,563.7c0.6,0,0.9,0.3,0.9,0.8v3.6c0,0.6-0.3,0.8-0.9,0.8h-16.4c-3.9,0-5,1.2-5,5.1v0.4h21.2
			c0.6,0,0.8,0.3,0.8,0.8v3c0,0.6-0.3,0.8-0.8,0.8h-21.2v0.6c0,3.9,1.1,5.1,5,5.1h16.4c0.6,0,0.9,0.3,0.9,0.8v3.6
			c0,0.6-0.3,0.8-0.9,0.8h-16.5c-7.6,0-10.5-2.7-10.5-9.9v-6.4c0-7.2,2.9-9.9,10.5-9.9L122.1,563.7L122.1,563.7z"/>
		<path class="st2" d="M169.5,563.7c0.7,0,0.7,0.6,0.4,1l-11.5,11.6l12,12.6c0.3,0.3,0.3,1-0.4,1h-5.1c-0.6,0-0.9-0.2-1.2-0.5
			l-9.2-9.7l-9.3,9.7c-0.3,0.4-0.6,0.5-1.2,0.5h-4.9c-0.6,0-0.7-0.6-0.3-1l12.3-12.8l-11.1-11.5c-0.3-0.3-0.3-1,0.4-1h5.1
			c0.6,0,0.9,0.2,1.2,0.5l8.2,8.7l8.6-8.7c0.3-0.3,0.6-0.5,1.2-0.5L169.5,563.7L169.5,563.7z"/>
		<path class="st2" d="M212.8,563.7c0.6,0,0.8,0.3,0.8,0.8v3.7c0,0.6-0.3,0.9-0.8,0.9h-16.7c-3.9,0-5,1.1-5,5.1v5.3
			c0,4,1.1,5.1,5,5.1h16.7c0.6,0,0.8,0.3,0.8,0.8v3.7c0,0.6-0.3,0.8-0.8,0.8h-16.9c-7.6,0-10.5-2.7-10.5-9.9v-6.4
			c0-7.2,2.9-9.9,10.5-9.9H212.8z"/>
		<path class="st2" d="M235.5,563.7c0.6,0,0.8,0.3,0.8,0.8v14.9c0,4,1.1,5.1,5,5.1h15.2c0.6,0,0.8,0.3,0.8,0.8v3.7
			c0,0.6-0.3,0.8-0.8,0.8h-15.4c-7.6,0-10.5-2.7-10.5-9.9v-15.5c0-0.6,0.3-0.8,0.9-0.8H235.5z"/>
		<path class="st2" d="M278.1,563.7c0.6,0,0.8,0.3,0.8,0.8v14.9c0,4,1.1,5.1,5,5.1h10.4c3.9,0,4.9-1.2,4.9-5.1v-14.9
			c0-0.6,0.3-0.8,0.8-0.8h4.1c0.6,0,0.8,0.3,0.8,0.8V580c0,7.2-2.9,9.9-10.5,9.9h-10.8c-7.6,0-10.5-2.7-10.5-9.9v-15.5
			c0-0.6,0.3-0.8,0.9-0.8H278.1z"/>
		<path class="st2" d="M349,563.7c0.6,0,0.8,0.3,0.8,0.8v3.6c0,0.6-0.3,0.8-0.8,0.8h-18.8c-1.4,0-2,0.8-2,2.1v1.3
			c0,1.4,0.6,2.1,2,2.1h14c4.3,0,6.5,2.3,6.5,6.4v3c0,3.6-2.1,6.1-6.6,6.1h-20.7c-0.6,0-0.9-0.3-0.9-0.8v-3.6c0-0.6,0.3-0.8,0.9-0.8
			h19.7c1.4,0,2-0.8,2-2.1v-1.5c0-1.4-0.6-2.1-2-2.1h-14c-4.3,0-6.5-2.3-6.5-6.4v-2.7c0-3.6,2.1-6.1,6.6-6.1L349,563.7L349,563.7z"
			/>
		<path class="st2" d="M373.1,563.7c0.6,0,0.8,0.3,0.8,0.8v24.6c0,0.6-0.3,0.8-0.8,0.8h-4c-0.6,0-0.9-0.3-0.9-0.8v-24.6
			c0-0.6,0.3-0.8,0.9-0.8H373.1z"/>
		<path class="st2" d="M395.4,563.7c0.5,0,0.7,0.2,0.9,0.5l11,20.2c0.1,0.2,0.2,0.3,0.5,0.3h0.2c0.2,0,0.3,0,0.4-0.3l10.8-20.2
			c0.2-0.4,0.4-0.5,0.9-0.5h4.9c0.6,0,0.7,0.4,0.5,0.9l-12.3,22.5c-1.2,2.3-2.4,2.8-3.9,2.8H407c-2,0-3-0.6-4.3-2.8l-12.4-22.5
			c-0.3-0.5-0.1-0.9,0.5-0.9H395.4z"/>
		<path class="st2" d="M466.8,563.7c0.6,0,0.9,0.3,0.9,0.8v3.6c0,0.6-0.3,0.8-0.9,0.8h-16.4c-3.9,0-5,1.2-5,5.1v0.4h21.2
			c0.6,0,0.8,0.3,0.8,0.8v3c0,0.6-0.3,0.8-0.8,0.8h-21.2v0.6c0,3.9,1.1,5.1,5,5.1h16.4c0.6,0,0.9,0.3,0.9,0.8v3.6
			c0,0.6-0.3,0.8-0.9,0.8h-16.5c-7.6,0-10.5-2.7-10.5-9.9v-6.4c0-7.2,2.9-9.9,10.5-9.9L466.8,563.7L466.8,563.7z"/>
		<path class="st2" d="M518.1,563.7c2.2,0,3,0.5,4,2.8l7.8,18c0.1,0.3,0.3,0.3,0.5,0.3h0.5c0.3,0,0.4-0.1,0.5-0.3l7.8-18
			c1-2.4,1.8-2.8,4-2.8h4c2.6,0,3.3,1,3.3,3.9v21.5c0,0.6-0.3,0.8-0.9,0.8h-3.8c-0.6,0-0.8-0.3-0.8-0.8v-19.5c0-0.3-0.1-0.4-0.3-0.4
			h-0.3c-0.3,0-0.4,0.1-0.5,0.3l-7.6,16.8c-1.2,2.7-2.3,3.7-4.8,3.7h-1.8c-2.5,0-3.6-1-4.8-3.7l-7.6-16.8c-0.1-0.2-0.2-0.3-0.5-0.3
			h-0.3c-0.2,0-0.3,0.1-0.3,0.4v19.5c0,0.6-0.3,0.8-0.8,0.8h-3.8c-0.6,0-0.9-0.3-0.9-0.8v-21.5c0-2.8,0.7-3.9,3.3-3.9H518.1z"/>
		<path class="st2" d="M595.2,563.7c0.6,0,0.9,0.3,0.9,0.8v3.6c0,0.6-0.3,0.8-0.9,0.8h-16.4c-3.9,0-5,1.2-5,5.1v0.4H595
			c0.6,0,0.8,0.3,0.8,0.8v3c0,0.6-0.3,0.8-0.8,0.8h-21.2v0.6c0,3.9,1.1,5.1,5,5.1h16.4c0.6,0,0.9,0.3,0.9,0.8v3.6
			c0,0.6-0.3,0.8-0.9,0.8h-16.5c-7.6,0-10.5-2.7-10.5-9.9v-6.4c0-7.2,2.9-9.9,10.5-9.9L595.2,563.7L595.2,563.7z"/>
		<path class="st2" d="M620.9,563.7c2.2,0,3,0.5,4,2.8l7.8,18c0.1,0.3,0.3,0.3,0.5,0.3h0.5c0.3,0,0.4-0.1,0.5-0.3l7.8-18
			c1-2.4,1.8-2.8,4-2.8h4c2.6,0,3.3,1,3.3,3.9v21.5c0,0.6-0.3,0.8-0.9,0.8h-3.8c-0.6,0-0.8-0.3-0.8-0.8v-19.5c0-0.3-0.1-0.4-0.3-0.4
			h-0.3c-0.3,0-0.4,0.1-0.5,0.3l-7.6,16.8c-1.2,2.7-2.3,3.7-4.8,3.7h-1.8c-2.5,0-3.6-1-4.8-3.7l-7.6-16.8c-0.1-0.2-0.2-0.3-0.5-0.3
			h-0.3c-0.2,0-0.3,0.1-0.3,0.4v19.5c0,0.6-0.3,0.8-0.8,0.8h-3.8c-0.6,0-0.9-0.3-0.9-0.8v-21.5c0-2.8,0.7-3.9,3.3-3.9H620.9z"/>
		<path class="st2" d="M694,563.7c5.2,0,7.1,2,7.1,6.2v1.8c0,2.1-0.8,3.7-2.4,4.8c1.8,1,2.6,2.6,2.6,4.8v2.2c0,4-1.7,6.5-6.6,6.5
			h-22.2c-0.8,0-1.1-0.4-1.1-1.1v-24c0-0.8,0.4-1.1,1.1-1.1L694,563.7L694,563.7z M677,574.6h15.3c2.5,0,3.2-0.8,3.2-2.2v-1.3
			c0-1.5-0.8-2.2-2.8-2.2h-15.3c-0.3,0-0.5,0.2-0.5,0.5L677,574.6L677,574.6z M677,578.7v5.6c0,0.3,0.2,0.5,0.5,0.5h15.3
			c2,0,2.8-0.7,2.8-2.3v-1.4c0-1.5-0.8-2.4-3.3-2.4L677,578.7L677,578.7z"/>
		<path class="st2" d="M745.5,563.7c0.6,0,0.9,0.3,0.9,0.8v3.6c0,0.6-0.3,0.8-0.9,0.8h-16.4c-3.9,0-5,1.2-5,5.1v0.4h21.2
			c0.6,0,0.8,0.3,0.8,0.8v3c0,0.6-0.3,0.8-0.8,0.8h-21.2v0.6c0,3.9,1.1,5.1,5,5.1h16.4c0.6,0,0.9,0.3,0.9,0.8v3.6
			c0,0.6-0.3,0.8-0.9,0.8H729c-7.6,0-10.5-2.7-10.5-9.9v-6.4c0-7.2,2.9-9.9,10.5-9.9L745.5,563.7L745.5,563.7z"/>
		<path class="st2" d="M785,563.7c5.7,0,8,2.7,8,7.7v2.1c0,4.3-1.7,6.8-5.6,7.5l6.4,7.9c0.2,0.3,0.2,0.9-0.5,0.9h-4.8
			c-0.6,0-0.8-0.2-1-0.5l-5.9-7.8h-12.1v7.5c0,0.6-0.3,0.8-0.8,0.8h-4c-0.6,0-0.9-0.3-0.9-0.8v-24.3c0-0.8,0.4-1.1,1.1-1.1
			L785,563.7L785,563.7z M769.5,577.1h14.3c2.5,0,3.5-1.1,3.5-3.3v-1.6c0-2.2-0.9-3.3-3.5-3.3H770c-0.3,0-0.5,0.2-0.5,0.5
			L769.5,577.1L769.5,577.1z"/>
		<path class="st2" d="M836.4,563.7c0.6,0,0.8,0.3,0.8,0.8v3.6c0,0.6-0.3,0.8-0.8,0.8h-18.8c-1.4,0-2,0.8-2,2.1v1.3
			c0,1.4,0.6,2.1,2,2.1h14c4.3,0,6.5,2.3,6.5,6.4v3c0,3.6-2.1,6.1-6.6,6.1h-20.7c-0.6,0-0.9-0.3-0.9-0.8v-3.6c0-0.6,0.3-0.8,0.9-0.8
			h19.7c1.4,0,2-0.8,2-2.1v-1.5c0-1.4-0.6-2.1-2-2.1h-14c-4.3,0-6.5-2.3-6.5-6.4v-2.7c0-3.6,2.1-6.1,6.6-6.1L836.4,563.7
			L836.4,563.7z"/>
		<path class="st2" d="M860.5,563.7c0.6,0,0.8,0.3,0.8,0.8v9.7h17.5v-9.7c0-0.6,0.3-0.8,0.8-0.8h4c0.6,0,0.9,0.3,0.9,0.8v24.6
			c0,0.6-0.3,0.8-0.9,0.8h-4c-0.6,0-0.8-0.3-0.8-0.8v-10h-17.5v10c0,0.6-0.3,0.8-0.8,0.8h-4c-0.6,0-0.9-0.3-0.9-0.8v-24.6
			c0-0.6,0.3-0.8,0.9-0.8H860.5z"/>
		<path class="st2" d="M907.5,563.7c0.6,0,0.8,0.3,0.8,0.8v24.6c0,0.6-0.3,0.8-0.8,0.8h-4c-0.6,0-0.9-0.3-0.9-0.8v-24.6
			c0-0.6,0.3-0.8,0.9-0.8H907.5z"/>
		<path class="st2" d="M947.7,563.7c5.7,0,8,2.7,8,7.7v2.8c0,5-2.3,7.7-8,7.7h-15.5v7.2c0,0.6-0.3,0.8-0.8,0.8h-4
			c-0.6,0-0.9-0.3-0.9-0.8v-24.3c0-0.8,0.4-1.1,1.1-1.1L947.7,563.7L947.7,563.7z M932.2,577h14.3c2.5,0,3.5-1.1,3.5-3.3v-1.4
			c0-2.2-0.9-3.3-3.5-3.3h-13.8c-0.3,0-0.5,0.1-0.5,0.5L932.2,577L932.2,577z"/>
	</g>
	<g>
		<g>
			<path class="st2" d="M875.1,447.5l-5.5-14.4h2.2l4.5,11.8l4.5-11.8h2.2l-5.5,14.4H875.1z"/>
			<path class="st2" d="M891,433.1l5.5,14.4h-2.1l-1.3-3.3h-6.5l-1.3,3.3h-2.1l5.5-14.4H891z M887.5,442.1h4.9l-2.5-6.3L887.5,442.1
				z"/>
			<path class="st2" d="M901.7,433.1v12.3h7.4v2.1h-9.5v-14.4L901.7,433.1L901.7,433.1z"/>
			<path class="st2" d="M914.2,433.1v14.4h-2.1v-14.4H914.2z"/>
			<path class="st2" d="M918.5,447.5v-14.4h7.3c0.8,0,1.5,0.1,2.1,0.4s1.2,0.6,1.6,1c0.4,0.4,0.8,1,1,1.6s0.4,1.3,0.4,2.1v4.3
				c0,0.8-0.1,1.5-0.4,2.1s-0.6,1.1-1,1.6c-0.4,0.4-1,0.8-1.6,1c-0.6,0.2-1.3,0.4-2.1,0.4L918.5,447.5L918.5,447.5z M925.8,445.4
				c1,0,1.7-0.3,2.2-0.8c0.5-0.5,0.8-1.2,0.8-2.2v-4.3c0-0.5-0.1-0.9-0.2-1.3c-0.1-0.4-0.3-0.7-0.6-0.9s-0.6-0.5-0.9-0.6
				c-0.4-0.1-0.8-0.2-1.3-0.2h-5.3v10.3H925.8z"/>
			<path class="st2" d="M871.4,457.7H883v2.1h-4.7v12.3h-2.1v-12.3h-4.7L871.4,457.7L871.4,457.7z"/>
			<path class="st2" d="M898.4,457.7v14.4h-2.1V466h-8.2v6.2H886v-14.4h2.1v6.2h8.2v-6.2H898.4z"/>
			<path class="st2" d="M914.1,462.9c0,2-0.9,3.1-2.6,3.4l2.7,5.8h-2.3l-2.7-5.8h-4.5v5.8h-2.1v-14.4h7.9c2.3,0,3.5,1.2,3.5,3.5
				L914.1,462.9L914.1,462.9z M904.8,464.3h5.7c0.5,0,1-0.1,1.2-0.4s0.4-0.6,0.4-1.2v-1.4c0-0.5-0.1-1-0.4-1.2
				c-0.2-0.2-0.6-0.4-1.2-0.4h-5.7V464.3z"/>
			<path class="st2" d="M918.1,457.7h2.1v12.3h8.2v-12.3h2.1v12.3c0,0.3,0,0.5-0.2,0.8s-0.2,0.5-0.4,0.7s-0.4,0.3-0.7,0.4
				c-0.2,0.1-0.5,0.2-0.8,0.2h-8.2c-0.3,0-0.5,0-0.8-0.2c-0.2-0.1-0.5-0.3-0.7-0.4c-0.2-0.2-0.3-0.4-0.4-0.7
				c-0.1-0.2-0.2-0.5-0.2-0.8L918.1,457.7L918.1,457.7z"/>
		</g>
		<polygon class="st2" points="940.6,443 940.6,461.1 951.8,452 		"/>
	</g>
</g>
</svg>
