<?xml version="1.0" encoding="utf-8"?>
<!-- Generator: Adobe Illustrator 26.0.0, SVG Export Plug-In . SVG Version: 6.00 Build 0)  -->
<svg version="1.1" id="Capa_1" xmlns="http://www.w3.org/2000/svg" xmlns:xlink="http://www.w3.org/1999/xlink" x="0px" y="0px"
	 viewBox="0 0 1054.9 634.9" style="enable-background:new 0 0 1054.9 634.9;" xml:space="preserve">
<style type="text/css">
	.st0{fill:url(#SVGID_1_);}
	.st1{opacity:0.5;fill:url(#SVGID_00000098923445293792417930000002261501135855440274_);enable-background:new    ;}
	.st2{fill:#B3B3B3;}
	.st3{fill:#FFFFFF;}
	.st4{fill:#79038E;}
</style>
<g>
	
		<linearGradient id="SVGID_1_" gradientUnits="userSpaceOnUse" x1="0" y1="318.46" x2="1054.89" y2="318.46" gradientTransform="matrix(1 0 0 -1 0 635.89)">
		<stop  offset="7.790000e-02" style="stop-color:#540475"/>
		<stop  offset="1" style="stop-color:#000000"/>
	</linearGradient>
	<path class="st0" d="M996.2,634.9H58.7C26.3,634.9,0,608.6,0,576.1V58.7C0,26.3,26.3,0,58.7,0h937.5c32.4,0,58.7,26.3,58.7,58.7
		v517.4C1054.9,608.6,1028.6,634.9,996.2,634.9z"/>
	
		<linearGradient id="SVGID_00000086681449143258990890000003510026157591961985_" gradientUnits="userSpaceOnUse" x1="352.2985" y1="855.3495" x2="295.5442" y2="36.4759" gradientTransform="matrix(1 0 0 -1 0 635.89)">
		<stop  offset="0" style="stop-color:#FFFFFF"/>
		<stop  offset="7.090000e-02" style="stop-color:#D4D4D4"/>
		<stop  offset="0.1641" style="stop-color:#A3A3A3"/>
		<stop  offset="0.2621" style="stop-color:#777777"/>
		<stop  offset="0.3634" style="stop-color:#525252"/>
		<stop  offset="0.4686" style="stop-color:#343434"/>
		<stop  offset="0.5793" style="stop-color:#1D1D1D"/>
		<stop  offset="0.6976" style="stop-color:#0D0D0D"/>
		<stop  offset="0.8291" style="stop-color:#030303"/>
		<stop  offset="1" style="stop-color:#000000"/>
	</linearGradient>
	<path style="opacity:0.5;fill:url(#SVGID_00000086681449143258990890000003510026157591961985_);enable-background:new    ;" d="
		M670.2,0H58.7C26.3,0,0,26.3,0,58.7v517.4c0,32.4,26.3,58.7,58.7,58.7h248.1L670.2,0z"/>
	<g>
		<path class="st2" d="M910.7,92.7v8.1c9.6,0,17.4,7.8,17.4,17.4h8.1C936.2,104.1,924.7,92.7,910.7,92.7z"/>
		<path class="st2" d="M910.7,77v8.7c17.9,0,32.5,14.6,32.5,32.5h8.7C951.8,95.5,933.4,77,910.7,77z"/>
		<path class="st2" d="M915.3,108.8c-2.4,0-4.4,2-4.4,4.4s2,4.4,4.4,4.4c2.4,0,4.4-2,4.4-4.4S917.8,108.8,915.3,108.8z"/>
	</g>
	<g>
		<path class="st2" d="M358.3,82.3c0.4,0,0.6,0.2,0.7,0.7l8.2,27.4c0,0.3,0.2,0.4,0.4,0.4h0.2c0.2,0,0.3-0.1,0.4-0.4l8.2-25.1
			c0.8-2.3,1.9-2.9,3.8-2.9h5c2.2,0,3.3,0.8,4,2.9l8.4,25.1c0.1,0.3,0.2,0.4,0.4,0.4h0.3c0.2,0,0.3-0.1,0.4-0.4l8-27.4
			c0.1-0.6,0.5-0.7,0.8-0.7h6.9c0.6,0,0.6,0.6,0.4,1.2l-9.8,30.6c-1,3.1-2,3.9-3.9,3.9h-6c-2,0-2.9-0.9-3.9-3.9l-8-24.2
			c0-0.2-0.1-0.4-0.4-0.4h-0.2c-0.2,0-0.4,0.1-0.4,0.4l-8.1,24.2c-1,3-1.9,3.9-3.9,3.9h-5.8c-2.3,0-3.3-0.7-4.3-3.9l-9.4-30.6
			c-0.2-0.7-0.1-1.2,0.4-1.2H358.3z"/>
		<path class="st2" d="M430,82.3c0.8,0,1.1,0.4,1.1,1.1v33.4c0,0.8-0.4,1.1-1.1,1.1h-5.5c-0.8,0-1.2-0.4-1.2-1.1V83.4
			c0-0.8,0.4-1.1,1.2-1.1H430z"/>
		<path class="st2" d="M480.4,82.3c0.8,0,1.2,0.4,1.2,1.1v5c0,0.8-0.4,1.2-1.2,1.2h-16v27.2c0,0.8-0.4,1.1-1.1,1.1h-5.5
			c-0.8,0-1.1-0.4-1.1-1.1V89.6h-16c-0.8,0-1.2-0.4-1.2-1.2v-5c0-0.8,0.4-1.1,1.2-1.1C440.7,82.3,480.4,82.3,480.4,82.3z"/>
		<path class="st2" d="M496.6,82.3c0.8,0,1.1,0.4,1.1,1.1v13.2h23.8V83.4c0-0.8,0.4-1.1,1.1-1.1h5.5c0.8,0,1.2,0.4,1.2,1.1v33.4
			c0,0.8-0.4,1.1-1.2,1.1h-5.5c-0.8,0-1.1-0.4-1.1-1.1v-13.5h-23.8v13.5c0,0.8-0.4,1.1-1.1,1.1h-5.5c-0.8,0-1.2-0.4-1.2-1.1V83.4
			c0-0.8,0.4-1.1,1.2-1.1H496.6z"/>
		<path class="st2" d="M565.1,82.3c11,0,15.6,4.4,15.6,14.3v6.9c0,9.9-4.5,14.3-15.6,14.3h-23.8c-1,0-1.5-0.5-1.5-1.5V83.8
			c0-1,0.5-1.5,1.5-1.5H565.1z M547.6,110.2c0,0.5,0.2,0.7,0.7,0.7h16.7c6,0,8-1.9,8-7.9v-5.6c0-6-2-7.9-8-7.9h-16.7
			c-0.5,0-0.7,0.2-0.7,0.7V110.2z"/>
		<path class="st2" d="M619.7,82.3c7.8,0,10.9,3.6,10.9,10.5v2.9c0,5.8-2.2,9.2-7.6,10.2l8.7,10.8c0.3,0.4,0.2,1.3-0.7,1.3h-6.6
			c-0.9,0-1.1-0.2-1.4-0.7l-8-10.6h-16.4v10.1c0,0.8-0.4,1.1-1.1,1.1H592c-0.8,0-1.2-0.4-1.2-1.1V83.8c0-1,0.5-1.5,1.5-1.5H619.7z
			 M598.7,100.5h19.5c3.5,0,4.7-1.5,4.7-4.5v-2.1c0-3.1-1.3-4.5-4.7-4.5h-18.8c-0.5,0-0.7,0.2-0.7,0.6V100.5z"/>
		<path class="st2" d="M663.3,82.3c2.6,0,4.2,0.8,5.8,3.9l16.8,30.6c0.4,0.7,0.2,1.2-0.6,1.2h-6.5c-0.7,0-0.9-0.2-1.2-0.7l-3.6-6.6
			h-23.9l-3.5,6.6c-0.2,0.5-0.6,0.7-1.2,0.7h-6.6c-0.9,0-1-0.5-0.7-1.2L655,86.2c1.7-3.1,3.2-3.9,5.3-3.9H663.3z M653.4,104.8h17.5
			l-8.1-14.9c-0.2-0.2-0.3-0.4-0.6-0.4H662c-0.2,0-0.4,0.1-0.6,0.4L653.4,104.8z"/>
		<path class="st2" d="M693.5,82.3c0.4,0,0.6,0.2,0.7,0.7l8.2,27.4c0,0.3,0.2,0.4,0.4,0.4h0.2c0.2,0,0.3-0.1,0.4-0.4l8.2-25.1
			c0.8-2.3,1.9-2.9,3.8-2.9h5c2.2,0,3.3,0.8,4,2.9l8.4,25.1c0.1,0.3,0.2,0.4,0.4,0.4h0.3c0.2,0,0.3-0.1,0.4-0.4l8-27.4
			c0.2-0.6,0.5-0.7,0.8-0.7h6.9c0.6,0,0.6,0.6,0.4,1.2l-9.8,30.6c-1,3.1-2,3.9-3.9,3.9h-6c-2,0-2.9-0.9-3.9-3.9l-8-24.2
			c0-0.2-0.2-0.4-0.4-0.4h-0.2c-0.2,0-0.4,0.1-0.4,0.4l-8.1,24.2c-1,3-1.9,3.9-3.9,3.9h-5.8c-2.3,0-3.3-0.7-4.3-3.9l-9.4-30.6
			c-0.2-0.7-0.2-1.2,0.4-1.2H693.5z"/>
		<path class="st2" d="M775.6,82.3c2.6,0,4.2,0.8,5.8,3.9l16.8,30.6c0.4,0.7,0.2,1.2-0.6,1.2h-6.5c-0.7,0-0.9-0.2-1.2-0.7l-3.6-6.6
			h-23.9l-3.5,6.6c-0.2,0.5-0.6,0.7-1.2,0.7h-6.6c-0.9,0-1-0.5-0.7-1.2l16.7-30.6c1.7-3.1,3.2-3.9,5.3-3.9H775.6z M765.7,104.8h17.5
			l-8.1-14.9c-0.2-0.2-0.3-0.4-0.6-0.4h-0.3c-0.2,0-0.4,0.1-0.6,0.4L765.7,104.8z"/>
		<path class="st2" d="M810.9,82.3c0.8,0,1.1,0.4,1.1,1.1v20.3c0,5.4,1.5,7,6.8,7h20.6c0.8,0,1.1,0.4,1.1,1.1v5
			c0,0.8-0.4,1.1-1.1,1.1h-20.9c-10.3,0-14.2-3.7-14.2-13.4V83.4c0-0.8,0.4-1.1,1.2-1.1H810.9z"/>
		<path class="st2" d="M884.2,82.3c0.8,0,1.1,0.4,1.1,1.1v4.8c0,0.8-0.4,1.1-1.1,1.1h-25.5c-1.9,0-2.7,1.1-2.7,2.8V94
			c0,1.9,0.9,2.8,2.6,2.8h19.1c5.8,0,8.9,3.2,8.9,8.8v4.1c0,4.9-2.8,8.3-9,8.3h-28.2c-0.8,0-1.2-0.4-1.2-1.1V112
			c0-0.8,0.4-1.1,1.2-1.1h26.7c1.9,0,2.7-1.1,2.7-2.8v-2.1c0-1.9-0.9-2.8-2.6-2.8h-19.1c-5.8,0-8.9-3.2-8.9-8.8v-3.7
			c0-4.9,2.8-8.3,9-8.3L884.2,82.3L884.2,82.3z"/>
	</g>
	<g>
		<path class="st2" d="M122.1,563.7c0.6,0,0.9,0.3,0.9,0.8v3.6c0,0.6-0.3,0.8-0.9,0.8h-16.4c-3.9,0-5,1.2-5,5.1v0.4h21.2
			c0.6,0,0.8,0.3,0.8,0.8v3c0,0.6-0.3,0.8-0.8,0.8h-21.2v0.6c0,3.9,1.1,5.1,5,5.1h16.4c0.6,0,0.9,0.3,0.9,0.8v3.6
			c0,0.6-0.3,0.8-0.9,0.8h-16.5c-7.6,0-10.5-2.7-10.5-9.9v-6.4c0-7.2,2.9-9.9,10.5-9.9L122.1,563.7L122.1,563.7z"/>
		<path class="st2" d="M169.5,563.7c0.7,0,0.7,0.6,0.4,1l-11.5,11.6l12,12.6c0.3,0.3,0.3,1-0.4,1h-5.1c-0.6,0-0.9-0.2-1.2-0.5
			l-9.2-9.7l-9.3,9.7c-0.3,0.4-0.6,0.5-1.2,0.5h-4.9c-0.6,0-0.7-0.6-0.3-1l12.3-12.8l-11.1-11.5c-0.3-0.3-0.3-1,0.4-1h5.1
			c0.6,0,0.9,0.2,1.2,0.5l8.2,8.7l8.6-8.7c0.3-0.3,0.6-0.5,1.2-0.5L169.5,563.7L169.5,563.7z"/>
		<path class="st2" d="M212.8,563.7c0.6,0,0.8,0.3,0.8,0.8v3.7c0,0.6-0.3,0.9-0.8,0.9h-16.7c-3.9,0-5,1.1-5,5.1v5.3
			c0,4,1.1,5.1,5,5.1h16.7c0.6,0,0.8,0.3,0.8,0.8v3.7c0,0.6-0.3,0.8-0.8,0.8h-16.9c-7.6,0-10.5-2.7-10.5-9.9v-6.4
			c0-7.2,2.9-9.9,10.5-9.9H212.8z"/>
		<path class="st2" d="M235.5,563.7c0.6,0,0.8,0.3,0.8,0.8v14.9c0,4,1.1,5.1,5,5.1h15.2c0.6,0,0.8,0.3,0.8,0.8v3.7
			c0,0.6-0.3,0.8-0.8,0.8h-15.4c-7.6,0-10.5-2.7-10.5-9.9v-15.5c0-0.6,0.3-0.8,0.9-0.8H235.5z"/>
		<path class="st2" d="M278.1,563.7c0.6,0,0.8,0.3,0.8,0.8v14.9c0,4,1.1,5.1,5,5.1h10.4c3.9,0,4.9-1.2,4.9-5.1v-14.9
			c0-0.6,0.3-0.8,0.8-0.8h4.1c0.6,0,0.8,0.3,0.8,0.8V580c0,7.2-2.9,9.9-10.5,9.9h-10.8c-7.6,0-10.5-2.7-10.5-9.9v-15.5
			c0-0.6,0.3-0.8,0.9-0.8H278.1z"/>
		<path class="st2" d="M349,563.7c0.6,0,0.8,0.3,0.8,0.8v3.6c0,0.6-0.3,0.8-0.8,0.8h-18.8c-1.4,0-2,0.8-2,2.1v1.3
			c0,1.4,0.6,2.1,2,2.1h14c4.3,0,6.5,2.3,6.5,6.4v3c0,3.6-2.1,6.1-6.6,6.1h-20.7c-0.6,0-0.9-0.3-0.9-0.8v-3.6c0-0.6,0.3-0.8,0.9-0.8
			h19.7c1.4,0,2-0.8,2-2.1v-1.5c0-1.4-0.6-2.1-2-2.1h-14c-4.3,0-6.5-2.3-6.5-6.4v-2.7c0-3.6,2.1-6.1,6.6-6.1L349,563.7L349,563.7z"
			/>
		<path class="st2" d="M373.1,563.7c0.6,0,0.8,0.3,0.8,0.8v24.6c0,0.6-0.3,0.8-0.8,0.8h-4c-0.6,0-0.9-0.3-0.9-0.8v-24.6
			c0-0.6,0.3-0.8,0.9-0.8H373.1z"/>
		<path class="st2" d="M395.4,563.7c0.5,0,0.7,0.2,0.9,0.5l11,20.2c0.1,0.2,0.2,0.3,0.5,0.3h0.2c0.2,0,0.3,0,0.4-0.3l10.8-20.2
			c0.2-0.4,0.4-0.5,0.9-0.5h4.9c0.6,0,0.7,0.4,0.5,0.9l-12.3,22.5c-1.2,2.3-2.4,2.8-3.9,2.8H407c-2,0-3-0.6-4.3-2.8l-12.4-22.5
			c-0.3-0.5-0.1-0.9,0.5-0.9H395.4z"/>
		<path class="st2" d="M466.8,563.7c0.6,0,0.9,0.3,0.9,0.8v3.6c0,0.6-0.3,0.8-0.9,0.8h-16.4c-3.9,0-5,1.2-5,5.1v0.4h21.2
			c0.6,0,0.8,0.3,0.8,0.8v3c0,0.6-0.3,0.8-0.8,0.8h-21.2v0.6c0,3.9,1.1,5.1,5,5.1h16.4c0.6,0,0.9,0.3,0.9,0.8v3.6
			c0,0.6-0.3,0.8-0.9,0.8h-16.5c-7.6,0-10.5-2.7-10.5-9.9v-6.4c0-7.2,2.9-9.9,10.5-9.9L466.8,563.7L466.8,563.7z"/>
		<path class="st2" d="M518.1,563.7c2.2,0,3,0.5,4,2.8l7.8,18c0.1,0.3,0.3,0.3,0.5,0.3h0.5c0.3,0,0.4-0.1,0.5-0.3l7.8-18
			c1-2.4,1.8-2.8,4-2.8h4c2.6,0,3.3,1,3.3,3.9v21.5c0,0.6-0.3,0.8-0.9,0.8h-3.8c-0.6,0-0.8-0.3-0.8-0.8v-19.5c0-0.3-0.1-0.4-0.3-0.4
			h-0.3c-0.3,0-0.4,0.1-0.5,0.3l-7.6,16.8c-1.2,2.7-2.3,3.7-4.8,3.7h-1.8c-2.5,0-3.6-1-4.8-3.7l-7.6-16.8c-0.1-0.2-0.2-0.3-0.5-0.3
			h-0.3c-0.2,0-0.3,0.1-0.3,0.4v19.5c0,0.6-0.3,0.8-0.8,0.8h-3.8c-0.6,0-0.9-0.3-0.9-0.8v-21.5c0-2.8,0.7-3.9,3.3-3.9H518.1z"/>
		<path class="st2" d="M595.2,563.7c0.6,0,0.9,0.3,0.9,0.8v3.6c0,0.6-0.3,0.8-0.9,0.8h-16.4c-3.9,0-5,1.2-5,5.1v0.4H595
			c0.6,0,0.8,0.3,0.8,0.8v3c0,0.6-0.3,0.8-0.8,0.8h-21.2v0.6c0,3.9,1.1,5.1,5,5.1h16.4c0.6,0,0.9,0.3,0.9,0.8v3.6
			c0,0.6-0.3,0.8-0.9,0.8h-16.5c-7.6,0-10.5-2.7-10.5-9.9v-6.4c0-7.2,2.9-9.9,10.5-9.9L595.2,563.7L595.2,563.7z"/>
		<path class="st2" d="M620.9,563.7c2.2,0,3,0.5,4,2.8l7.8,18c0.1,0.3,0.3,0.3,0.5,0.3h0.5c0.3,0,0.4-0.1,0.5-0.3l7.8-18
			c1-2.4,1.8-2.8,4-2.8h4c2.6,0,3.3,1,3.3,3.9v21.5c0,0.6-0.3,0.8-0.9,0.8h-3.8c-0.6,0-0.8-0.3-0.8-0.8v-19.5c0-0.3-0.1-0.4-0.3-0.4
			h-0.3c-0.3,0-0.4,0.1-0.5,0.3l-7.6,16.8c-1.2,2.7-2.3,3.7-4.8,3.7h-1.8c-2.5,0-3.6-1-4.8-3.7l-7.6-16.8c-0.1-0.2-0.2-0.3-0.5-0.3
			h-0.3c-0.2,0-0.3,0.1-0.3,0.4v19.5c0,0.6-0.3,0.8-0.8,0.8h-3.8c-0.6,0-0.9-0.3-0.9-0.8v-21.5c0-2.8,0.7-3.9,3.3-3.9H620.9z"/>
		<path class="st2" d="M694,563.7c5.2,0,7.1,2,7.1,6.2v1.8c0,2.1-0.8,3.7-2.4,4.8c1.8,1,2.6,2.6,2.6,4.8v2.2c0,4-1.7,6.5-6.6,6.5
			h-22.2c-0.8,0-1.1-0.4-1.1-1.1v-24c0-0.8,0.4-1.1,1.1-1.1L694,563.7L694,563.7z M677,574.6h15.3c2.5,0,3.2-0.8,3.2-2.2v-1.3
			c0-1.5-0.8-2.2-2.8-2.2h-15.3c-0.3,0-0.5,0.2-0.5,0.5L677,574.6L677,574.6z M677,578.7v5.6c0,0.3,0.2,0.5,0.5,0.5h15.3
			c2,0,2.8-0.7,2.8-2.3v-1.4c0-1.5-0.8-2.4-3.3-2.4L677,578.7L677,578.7z"/>
		<path class="st2" d="M745.5,563.7c0.6,0,0.9,0.3,0.9,0.8v3.6c0,0.6-0.3,0.8-0.9,0.8h-16.4c-3.9,0-5,1.2-5,5.1v0.4h21.2
			c0.6,0,0.8,0.3,0.8,0.8v3c0,0.6-0.3,0.8-0.8,0.8h-21.2v0.6c0,3.9,1.1,5.1,5,5.1h16.4c0.6,0,0.9,0.3,0.9,0.8v3.6
			c0,0.6-0.3,0.8-0.9,0.8H729c-7.6,0-10.5-2.7-10.5-9.9v-6.4c0-7.2,2.9-9.9,10.5-9.9L745.5,563.7L745.5,563.7z"/>
		<path class="st2" d="M785,563.7c5.7,0,8,2.7,8,7.7v2.1c0,4.3-1.7,6.8-5.6,7.5l6.4,7.9c0.2,0.3,0.2,0.9-0.5,0.9h-4.8
			c-0.6,0-0.8-0.2-1-0.5l-5.9-7.8h-12.1v7.5c0,0.6-0.3,0.8-0.8,0.8h-4c-0.6,0-0.9-0.3-0.9-0.8v-24.3c0-0.8,0.4-1.1,1.1-1.1
			L785,563.7L785,563.7z M769.5,577.1h14.3c2.5,0,3.5-1.1,3.5-3.3v-1.6c0-2.2-0.9-3.3-3.5-3.3H770c-0.3,0-0.5,0.2-0.5,0.5
			L769.5,577.1L769.5,577.1z"/>
		<path class="st2" d="M836.4,563.7c0.6,0,0.8,0.3,0.8,0.8v3.6c0,0.6-0.3,0.8-0.8,0.8h-18.8c-1.4,0-2,0.8-2,2.1v1.3
			c0,1.4,0.6,2.1,2,2.1h14c4.3,0,6.5,2.3,6.5,6.4v3c0,3.6-2.1,6.1-6.6,6.1h-20.7c-0.6,0-0.9-0.3-0.9-0.8v-3.6c0-0.6,0.3-0.8,0.9-0.8
			h19.7c1.4,0,2-0.8,2-2.1v-1.5c0-1.4-0.6-2.1-2-2.1h-14c-4.3,0-6.5-2.3-6.5-6.4v-2.7c0-3.6,2.1-6.1,6.6-6.1L836.4,563.7
			L836.4,563.7z"/>
		<path class="st2" d="M860.5,563.7c0.6,0,0.8,0.3,0.8,0.8v9.7h17.5v-9.7c0-0.6,0.3-0.8,0.8-0.8h4c0.6,0,0.9,0.3,0.9,0.8v24.6
			c0,0.6-0.3,0.8-0.9,0.8h-4c-0.6,0-0.8-0.3-0.8-0.8v-10h-17.5v10c0,0.6-0.3,0.8-0.8,0.8h-4c-0.6,0-0.9-0.3-0.9-0.8v-24.6
			c0-0.6,0.3-0.8,0.9-0.8H860.5z"/>
		<path class="st2" d="M907.5,563.7c0.6,0,0.8,0.3,0.8,0.8v24.6c0,0.6-0.3,0.8-0.8,0.8h-4c-0.6,0-0.9-0.3-0.9-0.8v-24.6
			c0-0.6,0.3-0.8,0.9-0.8H907.5z"/>
		<path class="st2" d="M947.7,563.7c5.7,0,8,2.7,8,7.7v2.8c0,5-2.3,7.7-8,7.7h-15.5v7.2c0,0.6-0.3,0.8-0.8,0.8h-4
			c-0.6,0-0.9-0.3-0.9-0.8v-24.3c0-0.8,0.4-1.1,1.1-1.1L947.7,563.7L947.7,563.7z M932.2,577h14.3c2.5,0,3.5-1.1,3.5-3.3v-1.4
			c0-2.2-0.9-3.3-3.5-3.3h-13.8c-0.3,0-0.5,0.1-0.5,0.5L932.2,577L932.2,577z"/>
	</g>
	<g>
		<g>
			<path class="st2" d="M875.1,448.4l-5.7-14.3l2.2,0l4.6,11.8l4.4-11.9l2.2,0l-5.4,14.5L875.1,448.4z"/>
			<path class="st2" d="M890.8,433.8l5.7,14.3l-2.1,0l-1.3-3.3l-6.5,0.1l-1.2,3.3l-2.1,0l5.4-14.5L890.8,433.8z M887.4,442.9l4.9,0
				l-2.5-6.3L887.4,442.9z"/>
			<path class="st2" d="M901.5,433.7l0.1,12.3l7.4-0.1l0,2.1l-9.5,0.1l-0.1-14.4L901.5,433.7z"/>
			<path class="st2" d="M914,433.6l0.1,14.4l-2.1,0l-0.1-14.4L914,433.6z"/>
			<path class="st2" d="M918.5,447.9l-0.1-14.4l7.3-0.1c0.8,0,1.5,0.1,2.1,0.3c0.6,0.2,1.2,0.6,1.6,1c0.4,0.4,0.8,1,1,1.6
				c0.2,0.6,0.4,1.3,0.4,2.1l0,4.3c0,0.8-0.1,1.5-0.3,2.1c-0.2,0.6-0.6,1.2-1,1.6c-0.4,0.4-1,0.8-1.6,1c-0.6,0.2-1.3,0.4-2.1,0.4
				L918.5,447.9z M925.8,445.8c1,0,1.7-0.3,2.2-0.8c0.5-0.5,0.8-1.3,0.8-2.2l0-4.3c0-0.5-0.1-0.9-0.2-1.3c-0.1-0.4-0.3-0.7-0.6-0.9
				c-0.3-0.2-0.6-0.5-0.9-0.6c-0.4-0.1-0.8-0.2-1.3-0.2l-5.3,0l0.1,10.3L925.8,445.8z"/>
			<path class="st2" d="M871.5,458.7l11.5-0.1l0,2.1l-4.7,0l0.1,12.3l-2.1,0l-0.1-12.3l-4.7,0L871.5,458.7z"/>
			<path class="st2" d="M898.5,458.4l0.1,14.4l-2.1,0l-0.1-6.2l-8.2,0.1l0.1,6.2l-2.1,0l-0.1-14.4l2.1,0l0.1,6.2l8.2-0.1l-0.1-6.2
				L898.5,458.4z"/>
			<path class="st2" d="M914.2,463.4c0,2-0.8,3.2-2.5,3.5l2.8,5.8l-2.3,0l-2.7-5.7l-4.5,0l0.1,5.8l-2.1,0l-0.1-14.4l7.9-0.1
				c2.3,0,3.5,1.1,3.5,3.5L914.2,463.4z M904.9,464.9l5.7-0.1c0.5,0,0.9-0.1,1.2-0.4s0.4-0.6,0.3-1.2l0-1.4c0-0.5-0.1-0.9-0.4-1.2
				s-0.6-0.4-1.2-0.4l-5.7,0.1L904.9,464.9z"/>
			<path class="st2" d="M918.2,458.2l2.1,0l0.1,12.3l8.2-0.1l-0.1-12.3l2.1,0l0.1,12.3c0,0.3,0,0.5-0.2,0.8
				c-0.1,0.2-0.2,0.5-0.4,0.7s-0.4,0.3-0.7,0.5c-0.2,0.1-0.5,0.2-0.8,0.2l-8.2,0.1c-0.3,0-0.5,0-0.8-0.1c-0.2-0.1-0.5-0.2-0.7-0.4
				s-0.3-0.4-0.5-0.6s-0.2-0.5-0.2-0.8L918.2,458.2z"/>
		</g>
		<polygon class="st2" points="940.5,443.2 940.7,461.4 951.8,452.2 		"/>
	</g>
	<g>
		<g>
			<g>
				<g>
					<path class="st3" d="M329.1,369.2h124.8c1.1,0,1.9,0.9,1.9,1.9v20.2c0,1.1-0.9,1.9-1.9,1.9h-99.4v20.4h44.2l0.1,0
						c0.1,0,0.2,0,0.3,0h27.8c8.5,0,16.6,3.2,22.9,9l0,0c0,0,0,0,0,0l0.8,0.8c6.6,6.5,10.2,15.3,10.2,24.5
						c0,12.4-6.6,23.8-17.3,29.9c-5.1,2.9-10.9,4.5-16.8,4.5h-92.6c-1.1,0-1.9-0.9-1.9-1.9v-20.3c0-1.1,0.9-1.9,1.9-1.9h91.7
						c0.1,0,0.2,0,0.3,0c0,0,0,0,0,0l0.6,0c3.2,0,6.1-1.6,8-4.1c1.9-2.5,2.5-5.7,1.7-8.7c-1.1-4-4.6-7-8.7-7.4l0,0l-1.4-0.1
						c0,0,0,0,0,0c-0.1,0-0.3,0-0.5,0c0,0,0,0,0,0l-1.3-0.1l-0.1,0c-0.1,0-0.3,0-0.4,0h-49.2l0,0c-0.1,0-0.2,0-0.3,0h-45.4
						c-1.1,0-1.9-0.9-1.9-1.9v-64.9C327.2,370.1,328.1,369.2,329.1,369.2z"/>
					<path class="st4" d="M426.9,484.5h-92.6c-2.2,0-3.9-1.8-3.9-3.9v-20.3c0-2.2,1.8-3.9,3.9-3.9h91.7c0.1,0,0.2,0,0.2,0l0.7,0
						c2.5,0,4.9-1.2,6.4-3.3c1.5-2,2-4.6,1.4-7c-0.9-3.2-3.7-5.6-7-6h0l-1.5-0.1c-0.1,0-0.2,0-0.3,0l-1.1,0c-0.2,0-0.4,0-0.6,0h-49
						c-0.1,0-0.3,0-0.5,0h-45.4c-2.1,0-3.9-1.8-3.9-3.9v-64.9c0-2.2,1.8-3.9,3.9-3.9h124.8c2.2,0,3.9,1.8,3.9,3.9v20.2
						c0,2.2-1.8,3.9-3.9,3.9h-97.4v16.4h42.1c0.1,0,0.3,0,0.4,0h27.8c9,0,17.6,3.4,24.3,9.5l0.1,0.1c0,0,0,0,0,0l0.8,0.7
						c7,6.9,10.9,16.1,10.9,26c0,13-7,25.1-18.3,31.6C439.2,482.9,433,484.5,426.9,484.5z M334.2,460.3l0.1,20.3l92.6-0.1
						c5.5,0,11-1.5,15.8-4.2c10-5.8,16.3-16.6,16.3-28.2c0-8.8-3.4-17-9.7-23.1l-0.9-0.9c-5.9-5.4-13.5-8.4-21.5-8.4l-74.3,0v-24.4
						h101.4l-0.1-20.2l-124.6,0.1v64.7l94.9,0l0.3-0.1h0.3l1.3,0.1c0.2,0,0.4,0,0.5,0l1.7,0.1c4.8,0.6,8.9,4.1,10.3,8.9
						c1,3.6,0.2,7.4-2,10.4c-2.3,3.1-5.9,4.9-9.6,4.9l-0.5,0c-0.1,0-0.3,0-0.4,0L334.2,460.3L334.2,460.3z"/>
				</g>
				<g>
					<path class="st3" d="M469.3,448.2v-44.6c0-18.9,15.3-34.4,34.1-34.4h84.8c18.7,0,34.1,15.5,34.1,34.4v44.6
						c0,18.9-15.3,34.4-34.1,34.4h-84.8C484.6,482.6,469.3,467.1,469.3,448.2z M583,393.4h-74.6c-6.5,0-11.9,5.4-11.9,12v41
						c0,6.6,5.4,12,11.9,12H583c6.5,0,11.9-5.4,11.9-12v-41C594.9,398.8,589.6,393.4,583,393.4z"/>
					<path class="st4" d="M588.2,484.6h-84.8c-19.9,0-36.1-16.3-36.1-36.4v-44.6c0-20.1,16.2-36.4,36.1-36.4h84.8
						c19.9,0,36.1,16.3,36.1,36.4v44.6C624.2,468.3,608,484.6,588.2,484.6z M503.3,371.2c-17.7,0-32.1,14.5-32.1,32.4v44.6
						c0,17.9,14.4,32.4,32.1,32.4h84.8c17.7,0,32.1-14.5,32.1-32.4v-44.6c0-17.9-14.4-32.4-32.1-32.4L503.3,371.2L503.3,371.2z
						 M583,460.4h-74.6c-7.7,0-13.9-6.3-13.9-14v-41c0-7.7,6.2-14,13.9-14H583c7.7,0,13.9,6.3,13.9,14v41
						C596.9,454.1,590.7,460.4,583,460.4z M508.4,395.4c-5.5,0-9.9,4.5-9.9,10v41c0,5.5,4.4,10,9.9,10H583c5.5,0,9.9-4.5,9.9-10v-41
						c0-5.5-4.4-10-9.9-10H508.4z"/>
				</g>
				<g>
					<path class="st3" d="M630.6,448.2v-44.6c0-18.9,15.3-34.4,34-34.4h84.8c18.7,0,34,15.5,34,34.4v44.6c0,18.9-15.3,34.4-34,34.4
						h-84.8C645.9,482.6,630.6,467.1,630.6,448.2z M744.4,393.4h-74.6c-6.5,0-11.9,5.4-11.9,12v41c0,6.6,5.3,12,11.9,12h74.6
						c6.5,0,11.9-5.4,11.9-12v-41C756.2,398.8,750.9,393.4,744.4,393.4z"/>
					<path class="st4" d="M749.5,484.6h-84.8c-19.9,0-36-16.3-36-36.4v-44.6c0-20.1,16.2-36.4,36-36.4h84.8c19.9,0,36,16.3,36,36.4
						v44.6C785.5,468.3,769.3,484.6,749.5,484.6z M664.6,371.2c-17.7,0-32,14.5-32,32.4v44.6c0,17.9,14.4,32.4,32,32.4h84.8
						c17.7,0,32-14.5,32-32.4v-44.6c0-17.9-14.4-32.4-32-32.4L664.6,371.2L664.6,371.2z M744.4,460.4h-74.6c-7.7,0-13.9-6.3-13.9-14
						v-41c0-7.7,6.2-14,13.9-14h74.6c7.7,0,13.9,6.3,13.9,14v41C758.2,454.1,752,460.4,744.4,460.4z M669.7,395.4
						c-5.5,0-9.9,4.5-9.9,10v41c0,5.5,4.4,10,9.9,10h74.6c5.5,0,9.9-4.5,9.9-10v-41c0-5.5-4.4-10-9.9-10H669.7z"/>
				</g>
			</g>
		</g>
	</g>
</g>
</svg>
