<?xml version="1.0" encoding="utf-8"?>
<!-- Generator: Adobe Illustrator 26.0.0, SVG Export Plug-In . SVG Version: 6.00 Build 0)  -->
<svg version="1.1" id="Capa_1" xmlns="http://www.w3.org/2000/svg" xmlns:xlink="http://www.w3.org/1999/xlink" x="0px" y="0px"
	 viewBox="0 0 1054.9 634.9" style="enable-background:new 0 0 1054.9 634.9;" xml:space="preserve">
<style type="text/css">
	.st0{fill:url(#SVGID_1_);}
	.st1{opacity:0.5;fill:url(#SVGID_00000002373811087212311850000002388621143594064828_);enable-background:new    ;}
	.st2{fill:#B3B3B3;}
	.st3{fill:#79038E;}
	.st4{fill:#FFFFFF;}
</style>
<g>
	
		<linearGradient id="SVGID_1_" gradientUnits="userSpaceOnUse" x1="0" y1="318.46" x2="1054.89" y2="318.46" gradientTransform="matrix(1 0 0 -1 0 635.89)">
		<stop  offset="7.790000e-02" style="stop-color:#540475"/>
		<stop  offset="1" style="stop-color:#000000"/>
	</linearGradient>
	<path class="st0" d="M996.2,634.9H58.7C26.3,634.9,0,608.6,0,576.1V58.7C0,26.3,26.3,0,58.7,0h937.5c32.4,0,58.7,26.3,58.7,58.7
		v517.4C1054.9,608.6,1028.6,634.9,996.2,634.9z"/>
	
		<linearGradient id="SVGID_00000008128014554651917680000016276126753804357515_" gradientUnits="userSpaceOnUse" x1="352.2985" y1="855.3495" x2="295.5442" y2="36.4759" gradientTransform="matrix(1 0 0 -1 0 635.89)">
		<stop  offset="0" style="stop-color:#FFFFFF"/>
		<stop  offset="7.090000e-02" style="stop-color:#D4D4D4"/>
		<stop  offset="0.1641" style="stop-color:#A3A3A3"/>
		<stop  offset="0.2621" style="stop-color:#777777"/>
		<stop  offset="0.3634" style="stop-color:#525252"/>
		<stop  offset="0.4686" style="stop-color:#343434"/>
		<stop  offset="0.5793" style="stop-color:#1D1D1D"/>
		<stop  offset="0.6976" style="stop-color:#0D0D0D"/>
		<stop  offset="0.8291" style="stop-color:#030303"/>
		<stop  offset="1" style="stop-color:#000000"/>
	</linearGradient>
	<path style="opacity:0.5;fill:url(#SVGID_00000008128014554651917680000016276126753804357515_);enable-background:new    ;" d="
		M670.2,0H58.7C26.3,0,0,26.3,0,58.7v517.4c0,32.4,26.3,58.7,58.7,58.7h248.1L670.2,0z"/>
	<g>
		<path class="st2" d="M910.7,92.7v8.1c9.6,0,17.4,7.8,17.4,17.4h8.1C936.2,104.1,924.7,92.7,910.7,92.7z"/>
		<path class="st2" d="M910.7,77v8.7c17.9,0,32.5,14.6,32.5,32.5h8.7C951.8,95.5,933.4,77,910.7,77z"/>
		<path class="st2" d="M915.3,108.8c-2.4,0-4.4,2-4.4,4.4s2,4.4,4.4,4.4c2.4,0,4.4-2,4.4-4.4S917.8,108.8,915.3,108.8z"/>
	</g>
	<g>
		<path class="st2" d="M358.3,82.3c0.4,0,0.6,0.2,0.7,0.7l8.2,27.4c0,0.3,0.2,0.4,0.4,0.4h0.2c0.2,0,0.3-0.1,0.4-0.4l8.2-25.1
			c0.8-2.3,1.9-2.9,3.8-2.9h5c2.2,0,3.3,0.8,4,2.9l8.4,25.1c0.1,0.3,0.2,0.4,0.4,0.4h0.3c0.2,0,0.3-0.1,0.4-0.4l8-27.4
			c0.1-0.6,0.5-0.7,0.8-0.7h6.9c0.6,0,0.6,0.6,0.4,1.2l-9.8,30.6c-1,3.1-2,3.9-3.9,3.9h-6c-2,0-2.9-0.9-3.9-3.9l-8-24.2
			c0-0.2-0.1-0.4-0.4-0.4h-0.2c-0.2,0-0.4,0.1-0.4,0.4l-8.1,24.2c-1,3-1.9,3.9-3.9,3.9h-5.8c-2.3,0-3.3-0.7-4.3-3.9l-9.4-30.6
			c-0.2-0.7-0.1-1.2,0.4-1.2H358.3z"/>
		<path class="st2" d="M430,82.3c0.8,0,1.1,0.4,1.1,1.1v33.4c0,0.8-0.4,1.1-1.1,1.1h-5.5c-0.8,0-1.2-0.4-1.2-1.1V83.4
			c0-0.8,0.4-1.1,1.2-1.1H430z"/>
		<path class="st2" d="M480.4,82.3c0.8,0,1.2,0.4,1.2,1.1v5c0,0.8-0.4,1.2-1.2,1.2h-16v27.2c0,0.8-0.4,1.1-1.1,1.1h-5.5
			c-0.8,0-1.1-0.4-1.1-1.1V89.6h-16c-0.8,0-1.2-0.4-1.2-1.2v-5c0-0.8,0.4-1.1,1.2-1.1C440.7,82.3,480.4,82.3,480.4,82.3z"/>
		<path class="st2" d="M496.6,82.3c0.8,0,1.1,0.4,1.1,1.1v13.2h23.8V83.4c0-0.8,0.4-1.1,1.1-1.1h5.5c0.8,0,1.2,0.4,1.2,1.1v33.4
			c0,0.8-0.4,1.1-1.2,1.1h-5.5c-0.8,0-1.1-0.4-1.1-1.1v-13.5h-23.8v13.5c0,0.8-0.4,1.1-1.1,1.1h-5.5c-0.8,0-1.2-0.4-1.2-1.1V83.4
			c0-0.8,0.4-1.1,1.2-1.1H496.6z"/>
		<path class="st2" d="M565.1,82.3c11,0,15.6,4.4,15.6,14.3v6.9c0,9.9-4.5,14.3-15.6,14.3h-23.8c-1,0-1.5-0.5-1.5-1.5V83.8
			c0-1,0.5-1.5,1.5-1.5H565.1z M547.6,110.2c0,0.5,0.2,0.7,0.7,0.7h16.7c6,0,8-1.9,8-7.9v-5.6c0-6-2-7.9-8-7.9h-16.7
			c-0.5,0-0.7,0.2-0.7,0.7V110.2z"/>
		<path class="st2" d="M619.7,82.3c7.8,0,10.9,3.6,10.9,10.5v2.9c0,5.8-2.2,9.2-7.6,10.2l8.7,10.8c0.3,0.4,0.2,1.3-0.7,1.3h-6.6
			c-0.9,0-1.1-0.2-1.4-0.7l-8-10.6h-16.4v10.1c0,0.8-0.4,1.1-1.1,1.1H592c-0.8,0-1.2-0.4-1.2-1.1V83.8c0-1,0.5-1.5,1.5-1.5H619.7z
			 M598.7,100.5h19.5c3.5,0,4.7-1.5,4.7-4.5v-2.1c0-3.1-1.3-4.5-4.7-4.5h-18.8c-0.5,0-0.7,0.2-0.7,0.6V100.5z"/>
		<path class="st2" d="M663.3,82.3c2.6,0,4.2,0.8,5.8,3.9l16.8,30.6c0.4,0.7,0.2,1.2-0.6,1.2h-6.5c-0.7,0-0.9-0.2-1.2-0.7l-3.6-6.6
			h-23.9l-3.5,6.6c-0.2,0.5-0.6,0.7-1.2,0.7h-6.6c-0.9,0-1-0.5-0.7-1.2L655,86.2c1.7-3.1,3.2-3.9,5.3-3.9H663.3z M653.4,104.8h17.5
			l-8.1-14.9c-0.2-0.2-0.3-0.4-0.6-0.4H662c-0.2,0-0.4,0.1-0.6,0.4L653.4,104.8z"/>
		<path class="st2" d="M693.5,82.3c0.4,0,0.6,0.2,0.7,0.7l8.2,27.4c0,0.3,0.2,0.4,0.4,0.4h0.2c0.2,0,0.3-0.1,0.4-0.4l8.2-25.1
			c0.8-2.3,1.9-2.9,3.8-2.9h5c2.2,0,3.3,0.8,4,2.9l8.4,25.1c0.1,0.3,0.2,0.4,0.4,0.4h0.3c0.2,0,0.3-0.1,0.4-0.4l8-27.4
			c0.2-0.6,0.5-0.7,0.8-0.7h6.9c0.6,0,0.6,0.6,0.4,1.2l-9.8,30.6c-1,3.1-2,3.9-3.9,3.9h-6c-2,0-2.9-0.9-3.9-3.9l-8-24.2
			c0-0.2-0.2-0.4-0.4-0.4h-0.2c-0.2,0-0.4,0.1-0.4,0.4l-8.1,24.2c-1,3-1.9,3.9-3.9,3.9h-5.8c-2.3,0-3.3-0.7-4.3-3.9l-9.4-30.6
			c-0.2-0.7-0.2-1.2,0.4-1.2H693.5z"/>
		<path class="st2" d="M775.6,82.3c2.6,0,4.2,0.8,5.8,3.9l16.8,30.6c0.4,0.7,0.2,1.2-0.6,1.2h-6.5c-0.7,0-0.9-0.2-1.2-0.7l-3.6-6.6
			h-23.9l-3.5,6.6c-0.2,0.5-0.6,0.7-1.2,0.7h-6.6c-0.9,0-1-0.5-0.7-1.2l16.7-30.6c1.7-3.1,3.2-3.9,5.3-3.9H775.6z M765.7,104.8h17.5
			l-8.1-14.9c-0.2-0.2-0.3-0.4-0.6-0.4h-0.3c-0.2,0-0.4,0.1-0.6,0.4L765.7,104.8z"/>
		<path class="st2" d="M810.9,82.3c0.8,0,1.1,0.4,1.1,1.1v20.3c0,5.4,1.5,7,6.8,7h20.6c0.8,0,1.1,0.4,1.1,1.1v5
			c0,0.8-0.4,1.1-1.1,1.1h-20.9c-10.3,0-14.2-3.7-14.2-13.4V83.4c0-0.8,0.4-1.1,1.2-1.1H810.9z"/>
		<path class="st2" d="M884.2,82.3c0.8,0,1.1,0.4,1.1,1.1v4.8c0,0.8-0.4,1.1-1.1,1.1h-25.5c-1.9,0-2.7,1.1-2.7,2.8V94
			c0,1.9,0.9,2.8,2.6,2.8h19.1c5.8,0,8.9,3.2,8.9,8.8v4.1c0,4.9-2.8,8.3-9,8.3h-28.2c-0.8,0-1.2-0.4-1.2-1.1V112
			c0-0.8,0.4-1.1,1.2-1.1h26.7c1.9,0,2.7-1.1,2.7-2.8v-2.1c0-1.9-0.9-2.8-2.6-2.8h-19.1c-5.8,0-8.9-3.2-8.9-8.8v-3.7
			c0-4.9,2.8-8.3,9-8.3C857.3,82.3,884.2,82.3,884.2,82.3z"/>
	</g>
	<g>
		<g>
			<g>
				<path class="st3" d="M319.6,473.2c-0.1,0-0.2,0.1-0.2,0.1L319.6,473.2z M319.5,473.2h0.2l1.5-1L319.5,473.2z"/>
			</g>
			<g>
				<path class="st4" d="M343.7,386h-3.3c-1,0-1.7-0.9-1.7-1.9v-20.3c0-1.1,0.8-1.9,1.7-1.9h8.1c0.2,0,0.5,0,0.7,0h0.1
					c0,0,0,0,0.1,0c16.6,0.6,29.9,16,29.9,34.4v77.1c0,1.1-0.8,1.9-1.7,1.9h-21.3c-1,0-1.7-0.9-1.7-1.9v-75.2
					C354.5,391.4,349.6,386,343.7,386z"/>
				<path class="st3" d="M377.6,477.2h-21.3c-2.1,0-3.7-1.8-3.7-3.9V398c0-5.5-4-10-8.8-10h-3.3c-2.1,0-3.7-1.8-3.7-3.9v-20.3
					c0-2.2,1.7-3.9,3.7-3.9h8.1c0.2,0,0.5,0,0.8,0c0.1,0,0.2,0,0.3,0c17.5,0.7,31.7,17,31.7,36.4v77.1
					C381.3,475.5,379.6,477.2,377.6,477.2z M356.5,473.2h20.8l0-77c0-17.3-12.5-31.8-27.9-32.4h-0.1c-0.2,0-0.5,0-0.7,0h-7.9l0,20.2
					h3c7.1,0,12.8,6.3,12.8,14V473.2z"/>
			</g>
			<g>
				<path class="st4" d="M398.1,361.8h21.3c1,0,1.7,0.9,1.7,1.9v109.5c0,1.1-0.8,1.9-1.7,1.9h-21.3c-1,0-1.7-0.9-1.7-1.9V363.8
					C396.4,362.7,397.1,361.8,398.1,361.8z M438.9,406.4h36l33.2-43.9c0.3-0.5,0.8-0.7,1.3-0.7h27.4c0.7,0,1.3,0.4,1.6,1.1
					c0.3,0.7,0.2,1.5-0.2,2.1l-39.3,52l22.1,29c2.7,3.3,6.2,5,10.2,5h5.6c1,0,1.7,0.9,1.7,1.9v20.3c0,1.1-0.8,1.9-1.7,1.9h-14.3
					c-7.8,0-14.5-3.4-19.5-10l-14.7-19.5l0,0c-0.1-0.1-0.2-0.2-0.3-0.3l-7.7-10.2l-0.1-0.1c-0.1-0.1-0.2-0.1-0.2-0.2
					c-2.6-2.8-5.9-4.2-9.5-4.2h-31.5c-1,0-1.7-0.9-1.7-1.9v-20.3C437.2,407.3,438,406.4,438.9,406.4z"/>
				<path class="st3" d="M536.9,477.2h-14.3c-8.5,0-15.7-3.8-21.1-10.8L486.9,447c-0.1-0.1-0.3-0.3-0.5-0.5l-7.5-10
					c-0.1-0.1-0.3-0.2-0.4-0.4c-2.2-2.3-4.9-3.5-8-3.5h-31.5c-2.1,0-3.7-1.8-3.7-3.9v-20.3c0-2.2,1.7-3.9,3.7-3.9h35l32.6-43.1
					c0.7-1,1.8-1.5,2.9-1.5h27.4c1.5,0,2.8,0.9,3.4,2.3c0.6,1.4,0.4,2.9-0.5,4L501.5,417l21.2,27.8c2.3,2.8,5.2,4.2,8.7,4.2h5.6
					c2.1,0,3.7,1.8,3.7,3.9v20.3C540.7,475.5,539,477.2,536.9,477.2z M489.6,444.1l0.3,0.4l14.7,19.5c4.6,6,10.8,9.2,17.9,9.2h14.1
					l0-20.2h-5.4c-4.6,0-8.7-2-11.8-5.7l-23-30.2l40.2-53.2h-27L476,408.4h-36.8l0,20.2h31.2c4.2,0,8,1.7,11,4.8l0.3,0.3
					L489.6,444.1z M489.6,444.1L489.6,444.1L489.6,444.1L489.6,444.1z M419.4,477.2h-21.3c-2.1,0-3.7-1.8-3.7-3.9V363.8
					c0-2.2,1.7-3.9,3.7-3.9h21.3c2.1,0,3.7,1.8,3.7,3.9v109.5C423.1,475.5,421.5,477.2,419.4,477.2z M398.4,473.2h20.8l0-109.4
					h-20.8L398.4,473.2z"/>
			</g>
		</g>
	</g>
	<g>
		<path class="st2" d="M122.1,563.7c0.6,0,0.9,0.3,0.9,0.8v3.6c0,0.6-0.3,0.8-0.9,0.8h-16.4c-3.9,0-5,1.2-5,5.1v0.4h21.2
			c0.6,0,0.8,0.3,0.8,0.8v3c0,0.6-0.3,0.8-0.8,0.8h-21.2v0.6c0,3.9,1.1,5.1,5,5.1h16.4c0.6,0,0.9,0.3,0.9,0.8v3.6
			c0,0.6-0.3,0.8-0.9,0.8h-16.5c-7.6,0-10.5-2.7-10.5-9.9v-6.4c0-7.2,2.9-9.9,10.5-9.9L122.1,563.7L122.1,563.7z"/>
		<path class="st2" d="M169.5,563.7c0.7,0,0.7,0.6,0.4,1l-11.5,11.7l12,12.6c0.3,0.3,0.3,1-0.4,1h-5.1c-0.6,0-0.9-0.2-1.2-0.5
			l-9.2-9.7l-9.3,9.7c-0.3,0.4-0.6,0.5-1.2,0.5h-4.9c-0.6,0-0.7-0.6-0.3-1l12.3-12.8l-11.1-11.5c-0.3-0.3-0.3-1,0.4-1h5.1
			c0.6,0,0.9,0.2,1.2,0.5l8.2,8.7l8.6-8.7c0.3-0.3,0.6-0.5,1.2-0.5H169.5z"/>
		<path class="st2" d="M212.8,563.7c0.6,0,0.8,0.3,0.8,0.8v3.7c0,0.6-0.3,0.9-0.8,0.9h-16.7c-3.9,0-5,1.1-5,5.1v5.3
			c0,4,1.1,5.1,5,5.1h16.7c0.6,0,0.8,0.3,0.8,0.8v3.7c0,0.6-0.3,0.8-0.8,0.8h-16.9c-7.6,0-10.5-2.7-10.5-9.9v-6.4
			c0-7.2,2.9-9.9,10.5-9.9L212.8,563.7L212.8,563.7z"/>
		<path class="st2" d="M235.5,563.7c0.6,0,0.8,0.3,0.8,0.8v14.9c0,4,1.1,5.1,5,5.1h15.2c0.6,0,0.8,0.3,0.8,0.8v3.7
			c0,0.6-0.3,0.8-0.8,0.8h-15.4c-7.6,0-10.5-2.7-10.5-9.9v-15.5c0-0.6,0.3-0.8,0.9-0.8L235.5,563.7L235.5,563.7z"/>
		<path class="st2" d="M278.1,563.7c0.6,0,0.8,0.3,0.8,0.8v14.9c0,4,1.1,5.1,5,5.1h10.4c3.9,0,4.9-1.2,4.9-5.1v-14.9
			c0-0.6,0.3-0.8,0.8-0.8h4.1c0.6,0,0.8,0.3,0.8,0.8V580c0,7.2-2.9,9.9-10.5,9.9h-10.8c-7.6,0-10.5-2.7-10.5-9.9v-15.5
			c0-0.6,0.3-0.8,0.9-0.8H278.1z"/>
		<path class="st2" d="M349,563.7c0.6,0,0.8,0.3,0.8,0.8v3.6c0,0.6-0.3,0.8-0.8,0.8h-18.8c-1.4,0-2,0.8-2,2.1v1.3
			c0,1.4,0.6,2.1,2,2.1h14c4.3,0,6.5,2.3,6.5,6.4v3c0,3.6-2.1,6.1-6.6,6.1h-20.7c-0.6,0-0.9-0.3-0.9-0.8v-3.6c0-0.6,0.3-0.8,0.9-0.8
			h19.7c1.4,0,2-0.8,2-2.1v-1.5c0-1.4-0.6-2.1-2-2.1h-14c-4.3,0-6.5-2.3-6.5-6.4v-2.7c0-3.6,2.1-6.1,6.6-6.1L349,563.7L349,563.7z"
			/>
		<path class="st2" d="M373.1,563.7c0.6,0,0.8,0.3,0.8,0.8v24.6c0,0.6-0.3,0.8-0.8,0.8h-4c-0.6,0-0.9-0.3-0.9-0.8v-24.6
			c0-0.6,0.3-0.8,0.9-0.8H373.1z"/>
		<path class="st2" d="M395.4,563.7c0.5,0,0.7,0.2,0.9,0.5l11,20.2c0.1,0.2,0.2,0.3,0.5,0.3h0.2c0.2,0,0.3,0,0.4-0.3l10.8-20.2
			c0.2-0.4,0.4-0.5,0.9-0.5h4.9c0.6,0,0.7,0.4,0.5,0.9l-12.3,22.5c-1.2,2.3-2.4,2.8-3.9,2.8H407c-2,0-3-0.6-4.3-2.8l-12.4-22.5
			c-0.3-0.5-0.1-0.9,0.5-0.9H395.4z"/>
		<path class="st2" d="M466.8,563.7c0.6,0,0.9,0.3,0.9,0.8v3.6c0,0.6-0.3,0.8-0.9,0.8h-16.4c-3.9,0-5,1.2-5,5.1v0.4h21.2
			c0.6,0,0.8,0.3,0.8,0.8v3c0,0.6-0.3,0.8-0.8,0.8h-21.2v0.6c0,3.9,1.1,5.1,5,5.1h16.4c0.6,0,0.9,0.3,0.9,0.8v3.6
			c0,0.6-0.3,0.8-0.9,0.8h-16.5c-7.6,0-10.5-2.7-10.5-9.9v-6.4c0-7.2,2.9-9.9,10.5-9.9L466.8,563.7L466.8,563.7z"/>
		<path class="st2" d="M518.1,563.7c2.2,0,3,0.5,4,2.8l7.8,18c0.1,0.3,0.3,0.3,0.5,0.3h0.5c0.3,0,0.4-0.1,0.5-0.3l7.8-18
			c1-2.4,1.8-2.8,4-2.8h4c2.6,0,3.3,1,3.3,3.9v21.5c0,0.6-0.3,0.8-0.9,0.8h-3.8c-0.6,0-0.8-0.3-0.8-0.8v-19.5c0-0.3-0.1-0.4-0.3-0.4
			h-0.3c-0.3,0-0.4,0.1-0.5,0.3l-7.6,16.8c-1.2,2.7-2.3,3.7-4.8,3.7h-1.8c-2.5,0-3.6-1-4.8-3.7l-7.6-16.8c-0.1-0.2-0.2-0.3-0.5-0.3
			h-0.3c-0.2,0-0.3,0.1-0.3,0.4v19.5c0,0.6-0.3,0.8-0.8,0.8h-3.8c-0.6,0-0.9-0.3-0.9-0.8v-21.5c0-2.8,0.7-3.9,3.3-3.9H518.1z"/>
		<path class="st2" d="M595.2,563.7c0.6,0,0.9,0.3,0.9,0.8v3.6c0,0.6-0.3,0.8-0.9,0.8h-16.4c-3.9,0-5,1.2-5,5.1v0.4H595
			c0.6,0,0.8,0.3,0.8,0.8v3c0,0.6-0.3,0.8-0.8,0.8h-21.2v0.6c0,3.9,1.1,5.1,5,5.1h16.4c0.6,0,0.9,0.3,0.9,0.8v3.6
			c0,0.6-0.3,0.8-0.9,0.8h-16.5c-7.6,0-10.5-2.7-10.5-9.9v-6.4c0-7.2,2.9-9.9,10.5-9.9L595.2,563.7L595.2,563.7z"/>
		<path class="st2" d="M620.9,563.7c2.2,0,3,0.5,4,2.8l7.8,18c0.1,0.3,0.3,0.3,0.5,0.3h0.5c0.3,0,0.4-0.1,0.5-0.3l7.8-18
			c1-2.4,1.8-2.8,4-2.8h4c2.6,0,3.3,1,3.3,3.9v21.5c0,0.6-0.3,0.8-0.9,0.8h-3.8c-0.6,0-0.8-0.3-0.8-0.8v-19.5c0-0.3-0.1-0.4-0.3-0.4
			h-0.3c-0.3,0-0.4,0.1-0.5,0.3l-7.6,16.8c-1.2,2.7-2.3,3.7-4.8,3.7h-1.8c-2.5,0-3.6-1-4.8-3.7l-7.6-16.8c-0.1-0.2-0.2-0.3-0.5-0.3
			h-0.3c-0.2,0-0.3,0.1-0.3,0.4v19.5c0,0.6-0.3,0.8-0.8,0.8h-3.8c-0.6,0-0.9-0.3-0.9-0.8v-21.5c0-2.8,0.7-3.9,3.3-3.9H620.9z"/>
		<path class="st2" d="M694,563.7c5.2,0,7.1,2,7.1,6.2v1.8c0,2.1-0.8,3.7-2.4,4.8c1.8,1,2.6,2.6,2.6,4.8v2.2c0,4-1.7,6.5-6.6,6.5
			h-22.2c-0.8,0-1.1-0.4-1.1-1.1v-24c0-0.8,0.4-1.1,1.1-1.1L694,563.7L694,563.7z M677,574.6h15.3c2.5,0,3.2-0.8,3.2-2.2v-1.3
			c0-1.5-0.8-2.2-2.8-2.2h-15.3c-0.3,0-0.5,0.2-0.5,0.5L677,574.6L677,574.6z M677,578.7v5.6c0,0.3,0.2,0.5,0.5,0.5h15.3
			c2,0,2.8-0.7,2.8-2.3v-1.4c0-1.5-0.8-2.4-3.3-2.4L677,578.7L677,578.7z"/>
		<path class="st2" d="M745.5,563.7c0.6,0,0.9,0.3,0.9,0.8v3.6c0,0.6-0.3,0.8-0.9,0.8h-16.4c-3.9,0-5,1.2-5,5.1v0.4h21.2
			c0.6,0,0.8,0.3,0.8,0.8v3c0,0.6-0.3,0.8-0.8,0.8h-21.2v0.6c0,3.9,1.1,5.1,5,5.1h16.4c0.6,0,0.9,0.3,0.9,0.8v3.6
			c0,0.6-0.3,0.8-0.9,0.8H729c-7.6,0-10.5-2.7-10.5-9.9v-6.4c0-7.2,2.9-9.9,10.5-9.9L745.5,563.7L745.5,563.7z"/>
		<path class="st2" d="M785,563.7c5.7,0,8,2.7,8,7.7v2.1c0,4.3-1.7,6.8-5.6,7.5l6.4,7.9c0.2,0.3,0.2,0.9-0.5,0.9h-4.8
			c-0.6,0-0.8-0.2-1-0.5l-5.9-7.8h-12.1v7.5c0,0.6-0.3,0.8-0.8,0.8h-4c-0.6,0-0.9-0.3-0.9-0.8v-24.3c0-0.8,0.4-1.1,1.1-1.1
			L785,563.7L785,563.7z M769.5,577.1h14.3c2.5,0,3.5-1.1,3.5-3.3v-1.6c0-2.2-0.9-3.3-3.5-3.3H770c-0.3,0-0.5,0.2-0.5,0.5
			L769.5,577.1L769.5,577.1z"/>
		<path class="st2" d="M836.4,563.7c0.6,0,0.8,0.3,0.8,0.8v3.6c0,0.6-0.3,0.8-0.8,0.8h-18.8c-1.4,0-2,0.8-2,2.1v1.3
			c0,1.4,0.6,2.1,2,2.1h14c4.3,0,6.5,2.3,6.5,6.4v3c0,3.6-2.1,6.1-6.6,6.1h-20.7c-0.6,0-0.9-0.3-0.9-0.8v-3.6c0-0.6,0.3-0.8,0.9-0.8
			h19.7c1.4,0,2-0.8,2-2.1v-1.5c0-1.4-0.6-2.1-2-2.1h-14c-4.3,0-6.5-2.3-6.5-6.4v-2.7c0-3.6,2.1-6.1,6.6-6.1L836.4,563.7
			L836.4,563.7z"/>
		<path class="st2" d="M860.5,563.7c0.6,0,0.8,0.3,0.8,0.8v9.7h17.5v-9.7c0-0.6,0.3-0.8,0.8-0.8h4c0.6,0,0.9,0.3,0.9,0.8v24.6
			c0,0.6-0.3,0.8-0.9,0.8h-4c-0.6,0-0.8-0.3-0.8-0.8v-10h-17.5v10c0,0.6-0.3,0.8-0.8,0.8h-4c-0.6,0-0.9-0.3-0.9-0.8v-24.6
			c0-0.6,0.3-0.8,0.9-0.8H860.5z"/>
		<path class="st2" d="M907.5,563.7c0.6,0,0.8,0.3,0.8,0.8v24.6c0,0.6-0.3,0.8-0.8,0.8h-4c-0.6,0-0.9-0.3-0.9-0.8v-24.6
			c0-0.6,0.3-0.8,0.9-0.8H907.5z"/>
		<path class="st2" d="M947.7,563.7c5.7,0,8,2.7,8,7.7v2.8c0,5.1-2.3,7.7-8,7.7h-15.5v7.2c0,0.6-0.3,0.8-0.8,0.8h-4
			c-0.6,0-0.9-0.3-0.9-0.8v-24.3c0-0.8,0.4-1.1,1.1-1.1L947.7,563.7L947.7,563.7z M932.2,577h14.3c2.5,0,3.5-1.1,3.5-3.3v-1.4
			c0-2.2-0.9-3.3-3.5-3.3h-13.8c-0.3,0-0.5,0.1-0.5,0.5L932.2,577L932.2,577z"/>
	</g>
	<g>
		<g>
			<path class="st2" d="M875.1,447.5l-5.5-14.4h2.2l4.5,11.8l4.5-11.8h2.2l-5.5,14.4H875.1z"/>
			<path class="st2" d="M891,433.1l5.5,14.4h-2.1l-1.3-3.3h-6.5l-1.3,3.3h-2.1l5.5-14.4H891z M887.5,442.1h4.9l-2.5-6.3L887.5,442.1
				z"/>
			<path class="st2" d="M901.7,433.1v12.3h7.4v2.1h-9.5v-14.4L901.7,433.1L901.7,433.1z"/>
			<path class="st2" d="M914.2,433.1v14.4h-2.1v-14.4H914.2z"/>
			<path class="st2" d="M918.5,447.5v-14.4h7.3c0.8,0,1.5,0.1,2.1,0.4s1.2,0.6,1.6,1c0.4,0.4,0.8,1,1,1.6s0.4,1.3,0.4,2.1v4.3
				c0,0.8-0.1,1.5-0.4,2.1s-0.6,1.1-1,1.6c-0.4,0.4-1,0.8-1.6,1c-0.6,0.2-1.3,0.4-2.1,0.4L918.5,447.5L918.5,447.5z M925.8,445.4
				c1,0,1.7-0.3,2.2-0.8c0.5-0.5,0.8-1.2,0.8-2.2v-4.3c0-0.5-0.1-0.9-0.2-1.3c-0.1-0.4-0.3-0.7-0.6-0.9s-0.6-0.5-0.9-0.6
				c-0.4-0.1-0.8-0.2-1.3-0.2h-5.3v10.3H925.8z"/>
			<path class="st2" d="M871.4,457.7H883v2.1h-4.7v12.3h-2.1v-12.3h-4.7L871.4,457.7L871.4,457.7z"/>
			<path class="st2" d="M898.4,457.7v14.4h-2.1V466h-8.2v6.2H886v-14.4h2.1v6.2h8.2v-6.2H898.4z"/>
			<path class="st2" d="M914.1,462.9c0,2-0.9,3.1-2.6,3.4l2.7,5.8h-2.3l-2.7-5.8h-4.5v5.8h-2.1v-14.4h7.9c2.3,0,3.5,1.2,3.5,3.5
				L914.1,462.9L914.1,462.9z M904.8,464.3h5.7c0.5,0,1-0.1,1.2-0.4s0.4-0.6,0.4-1.2v-1.4c0-0.5-0.1-1-0.4-1.2
				c-0.2-0.2-0.6-0.4-1.2-0.4h-5.7V464.3z"/>
			<path class="st2" d="M918.1,457.7h2.1v12.3h8.2v-12.3h2.1v12.3c0,0.3,0,0.5-0.2,0.8s-0.2,0.5-0.4,0.7s-0.4,0.3-0.7,0.4
				c-0.2,0.1-0.5,0.2-0.8,0.2h-8.2c-0.3,0-0.5,0-0.8-0.2c-0.2-0.1-0.5-0.3-0.7-0.4c-0.2-0.2-0.3-0.4-0.4-0.7
				c-0.1-0.2-0.2-0.5-0.2-0.8L918.1,457.7L918.1,457.7z"/>
		</g>
		<polygon class="st2" points="940.6,443 940.6,461.1 951.8,452 		"/>
	</g>
</g>
</svg>
