<?xml version="1.0" encoding="utf-8"?>
<!-- Generator: Adobe Illustrator 26.0.0, SVG Export Plug-In . SVG Version: 6.00 Build 0)  -->
<svg version="1.1" id="Capa_1" xmlns="http://www.w3.org/2000/svg" xmlns:xlink="http://www.w3.org/1999/xlink" x="0px" y="0px"
	 viewBox="0 0 1054.9 634.9" style="enable-background:new 0 0 1054.9 634.9;" xml:space="preserve">
<style type="text/css">
	.st0{fill:#FFFFFF;}
	.st1{fill:#9E005D;}
	.st2{fill:url(#SVGID_1_);}
	.st3{opacity:0.5;fill:url(#SVGID_00000100366957802990101990000004696896192063441813_);enable-background:new    ;}
	.st4{fill:#B3B3B3;}
	.st5{fill:url(#SVGID_00000173148970960995490880000001371739897906152375_);}
	.st6{fill:url(#SVGID_00000062154231712578131350000015632705783995151239_);}
	.st7{fill:#79038E;}
</style>
<g>
	
		<image style="overflow:visible;opacity:0.75;enable-background:new    ;" width="1829" height="508" xlink:href="C2070B8A.png"  transform="matrix(0.2381 0 0 0.2381 112.5261 341.1726)">
	</image>
	<g>
		<g>
			<path class="st0" d="M116.4,344.4h21c0.9,0,1.7,0.9,1.7,1.9V454c0,1-0.8,1.9-1.7,1.9h-21c-0.9,0-1.7-0.9-1.7-1.9V346.3
				C114.7,345.3,115.5,344.4,116.4,344.4z"/>
			<path class="st1" d="M137.4,456.3h-21c-1.2,0-2.1-1-2.1-2.3V346.3c0-1.3,0.9-2.3,2.1-2.3h21c1.1,0,2.1,1,2.1,2.3V454
				C139.4,455.3,138.5,456.3,137.4,456.3z M116.4,344.8c-0.7,0-1.3,0.7-1.3,1.5V454c0,0.8,0.6,1.5,1.3,1.5h21c0.7,0,1.3-0.7,1.3-1.5
				V346.3c0-0.8-0.6-1.5-1.3-1.5H116.4z"/>
		</g>
		<g>
			<path class="st0" d="M250.6,371.5h-15.9c-2.5,0-4.8,1.4-6.1,3.8L183.8,455c-0.3,0.6-0.8,0.9-1.5,0.9h-24.7c-0.6,0-1.2-0.4-1.5-1
				c-0.3-0.6-0.3-1.3,0.1-1.9l53.7-95.5c4.7-8.4,12.4-13.1,21.3-13.1h23c8.9,0,16.6,4.7,21.3,13.1l53.7,95.5c0.3,0.6,0.4,1.3,0,1.9
				c-0.3,0.6-0.9,1-1.5,1H303c-0.6,0-1.1-0.3-1.5-0.9l-44.9-79.8C255.4,372.9,253.2,371.5,250.6,371.5z"/>
			<path class="st1" d="M327.8,456.3h-24.7c-0.8,0-1.4-0.4-1.8-1.1l-44.9-79.8c-1.3-2.3-3.4-3.6-5.8-3.6h-15.9
				c-2.4,0-4.5,1.3-5.8,3.6l-44.9,79.8c-0.4,0.7-1,1.1-1.8,1.1h-24.7c-0.8,0-1.4-0.4-1.8-1.2c-0.4-0.7-0.3-1.6,0.1-2.3l53.7-95.5
				c4.8-8.6,12.5-13.3,21.6-13.3h23c9.1,0,16.8,4.7,21.6,13.3l53.7,95.5c0.4,0.7,0.4,1.5,0,2.3C329.2,455.9,328.6,456.3,327.8,456.3
				z M234.8,371.1h15.9c2.7,0,5,1.4,6.4,4l44.9,79.8c0.3,0.5,0.6,0.7,1.1,0.7h24.7c0.5,0,0.9-0.3,1.2-0.8c0.3-0.5,0.2-1.1,0-1.6
				l-53.7-95.5c-4.7-8.3-12.1-12.9-21-12.9h-23c-8.8,0-16.3,4.6-21,12.9l-53.7,95.5c-0.3,0.5-0.3,1.1,0,1.6c0.2,0.4,0.5,0.8,1.2,0.8
				h24.7c0.5,0,0.9-0.2,1.1-0.7l44.9-79.8C229.8,372.6,232.1,371.1,234.8,371.1z"/>
		</g>
		<g>
			<path class="st0" d="M351.3,368.2h-3.2c-0.9,0-1.7-0.9-1.7-1.9v-20c0-1,0.8-1.9,1.7-1.9h8c0.2,0,0.5,0,0.7,0h0.1c0,0,0,0,0.1,0
				c16.3,0.6,29.4,15.7,29.4,33.8V454c0,1-0.8,1.9-1.7,1.9h-21c-0.9,0-1.7-0.9-1.7-1.9v-74C362,373.5,357.2,368.2,351.3,368.2z"/>
			<path class="st1" d="M384.6,456.3h-21c-1.1,0-2.1-1-2.1-2.3v-74c0-6.3-4.6-11.4-10.3-11.4h-3.2c-1.1,0-2.1-1-2.1-2.3v-20
				c0-1.3,0.9-2.3,2.1-2.3h8c0.2,0,0.5,0,0.7,0c0.1,0,0.1,0,0.2,0c16.4,0.6,29.7,16,29.7,34.2V454
				C386.7,455.3,385.8,456.3,384.6,456.3z M348.1,344.8c-0.7,0-1.3,0.7-1.3,1.5v20c0,0.8,0.6,1.5,1.3,1.5h3.2c6.1,0,11,5.5,11,12.2
				v74c0,0.8,0.6,1.5,1.3,1.5h21c0.7,0,1.3-0.7,1.3-1.5v-75.8c0-17.8-13-32.8-29-33.4l-0.1-0.4l0,0.4c-0.2,0-0.5,0-0.7,0
				L348.1,344.8L348.1,344.8z"/>
		</g>
		<g>
			<path class="st0" d="M404.8,344.4h21c0.9,0,1.7,0.9,1.7,1.9V454c0,1-0.8,1.9-1.7,1.9h-21c-0.9,0-1.7-0.9-1.7-1.9V346.3
				C403.1,345.3,403.9,344.4,404.8,344.4z M445,388.3h35.4l32.6-43.2c0.3-0.5,0.8-0.7,1.3-0.7h27c0.7,0,1.3,0.4,1.6,1.1
				c0.3,0.7,0.2,1.4-0.2,2L504,398.7l21.7,28.5c2.7,3.2,6.1,4.9,10.1,4.9h5.5c0.9,0,1.7,0.9,1.7,1.9v20c0,1-0.8,1.9-1.7,1.9h-14.1
				c-7.7,0-14.2-3.4-19.2-9.9l-14.5-19.2l0,0c-0.1-0.1-0.2-0.2-0.3-0.3l-7.6-10l-0.1-0.1c-0.1-0.1-0.2-0.1-0.2-0.2
				c-2.6-2.8-5.8-4.1-9.4-4.1h-31c-0.9,0-1.7-0.9-1.7-1.9v-20C443.3,389.1,444,388.3,445,388.3z"/>
			<path class="st1" d="M541.3,456.3h-14.1c-7.8,0-14.5-3.5-19.5-10l-14.5-19.2c-0.1-0.1-0.2-0.2-0.3-0.4l-7.6-10
				c-0.1-0.1-0.2-0.2-0.3-0.3c-2.5-2.6-5.6-4-9.1-4h-31c-1.1,0-2.1-1-2.1-2.3v-20c0-1.3,0.9-2.3,2.1-2.3h35.3l32.5-43
				c0.4-0.5,1-0.8,1.6-0.8h27c0.8,0,1.5,0.5,1.9,1.3c0.3,0.8,0.2,1.7-0.3,2.4l-38.5,50.9L526,427c2.5,3.1,5.9,4.8,9.8,4.8h5.5
				c1.2,0,2.1,1,2.1,2.3v20C543.4,455.3,542.5,456.3,541.3,456.3z M445,388.6c-0.7,0-1.3,0.7-1.3,1.5v20c0,0.8,0.6,1.5,1.3,1.5h31
				c3.7,0,7,1.5,9.6,4.2c0.1,0.1,0.1,0.1,0.2,0.2l0.1,0.1l7.7,10.1c0.1,0.1,0.1,0.2,0.2,0.2l0.1,0.1l14.5,19.2
				c4.8,6.4,11.3,9.7,18.9,9.7h14.1c0.7,0,1.3-0.7,1.3-1.5v-20c0-0.8-0.6-1.5-1.3-1.5h-5.5c-4.1,0-7.7-1.8-10.4-5.1l-21.9-28.7
				l38.8-51.4c0.4-0.5,0.4-1.1,0.2-1.7c-0.2-0.5-0.7-0.9-1.2-0.9h-27c-0.4,0-0.8,0.2-1,0.5l-32.7,43.3L445,388.6L445,388.6z
				 M425.8,456.3h-21c-1.1,0-2.1-1-2.1-2.3V346.3c0-1.3,0.9-2.3,2.1-2.3h21c1.1,0,2.1,1,2.1,2.3V454
				C427.9,455.3,426.9,456.3,425.8,456.3z M404.8,344.8c-0.7,0-1.3,0.7-1.3,1.5V454c0,0.8,0.6,1.5,1.3,1.5h21c0.7,0,1.3-0.7,1.3-1.5
				V346.3c0-0.8-0.6-1.5-1.3-1.5H404.8z"/>
		</g>
	</g>
</g>
<linearGradient id="SVGID_1_" gradientUnits="userSpaceOnUse" x1="0" y1="318.46" x2="1054.89" y2="318.46" gradientTransform="matrix(1 0 0 -1 0 635.89)">
	<stop  offset="7.790000e-02" style="stop-color:#540475"/>
	<stop  offset="1" style="stop-color:#000000"/>
</linearGradient>
<path class="st2" d="M996.2,634.9H58.7C26.3,634.9,0,608.6,0,576.1V58.7C0,26.3,26.3,0,58.7,0h937.5c32.4,0,58.7,26.3,58.7,58.7
	v517.4C1054.9,608.6,1028.6,634.9,996.2,634.9z"/>
<linearGradient id="SVGID_00000127739323684782767650000010021303764168588984_" gradientUnits="userSpaceOnUse" x1="352.2985" y1="855.3495" x2="295.5442" y2="36.4759" gradientTransform="matrix(1 0 0 -1 0 635.89)">
	<stop  offset="0" style="stop-color:#FFFFFF"/>
	<stop  offset="7.090000e-02" style="stop-color:#D4D4D4"/>
	<stop  offset="0.1641" style="stop-color:#A3A3A3"/>
	<stop  offset="0.2621" style="stop-color:#777777"/>
	<stop  offset="0.3634" style="stop-color:#525252"/>
	<stop  offset="0.4686" style="stop-color:#343434"/>
	<stop  offset="0.5793" style="stop-color:#1D1D1D"/>
	<stop  offset="0.6976" style="stop-color:#0D0D0D"/>
	<stop  offset="0.8291" style="stop-color:#030303"/>
	<stop  offset="1" style="stop-color:#000000"/>
</linearGradient>
<path style="opacity:0.5;fill:url(#SVGID_00000127739323684782767650000010021303764168588984_);enable-background:new    ;" d="
	M670.2,0H58.7C26.3,0,0,26.3,0,58.7v517.4c0,32.4,26.3,58.7,58.7,58.7h248.1L670.2,0z"/>
<g>
	<path class="st4" d="M122.1,563.7c0.6,0,0.9,0.3,0.9,0.8v3.6c0,0.6-0.3,0.8-0.9,0.8h-16.4c-3.9,0-5,1.2-5,5.1v0.4h21.2
		c0.6,0,0.8,0.3,0.8,0.8v3c0,0.6-0.3,0.8-0.8,0.8h-21.2v0.6c0,3.9,1.1,5.1,5,5.1h16.4c0.6,0,0.9,0.3,0.9,0.8v3.6
		c0,0.6-0.3,0.8-0.9,0.8h-16.5c-7.6,0-10.5-2.7-10.5-9.9v-6.4c0-7.2,2.9-9.9,10.5-9.9L122.1,563.7L122.1,563.7z"/>
	<path class="st4" d="M169.5,563.7c0.7,0,0.7,0.6,0.4,1l-11.5,11.6l12,12.6c0.3,0.3,0.3,1-0.4,1h-5.1c-0.6,0-0.9-0.2-1.2-0.5
		l-9.2-9.7l-9.3,9.7c-0.3,0.4-0.6,0.5-1.2,0.5h-4.9c-0.6,0-0.7-0.6-0.3-1l12.3-12.8l-11.1-11.5c-0.3-0.3-0.3-1,0.4-1h5.1
		c0.6,0,0.9,0.2,1.2,0.5l8.2,8.7l8.6-8.7c0.3-0.3,0.6-0.5,1.2-0.5L169.5,563.7L169.5,563.7z"/>
	<path class="st4" d="M212.8,563.7c0.6,0,0.8,0.3,0.8,0.8v3.7c0,0.6-0.3,0.9-0.8,0.9h-16.7c-3.9,0-5,1.1-5,5.1v5.3
		c0,4,1.1,5.1,5,5.1h16.7c0.6,0,0.8,0.3,0.8,0.8v3.7c0,0.6-0.3,0.8-0.8,0.8h-16.9c-7.6,0-10.5-2.7-10.5-9.9v-6.4
		c0-7.2,2.9-9.9,10.5-9.9H212.8z"/>
	<path class="st4" d="M235.5,563.7c0.6,0,0.8,0.3,0.8,0.8v14.9c0,4,1.1,5.1,5,5.1h15.2c0.6,0,0.8,0.3,0.8,0.8v3.7
		c0,0.6-0.3,0.8-0.8,0.8h-15.4c-7.6,0-10.5-2.7-10.5-9.9v-15.5c0-0.6,0.3-0.8,0.9-0.8H235.5z"/>
	<path class="st4" d="M278.1,563.7c0.6,0,0.8,0.3,0.8,0.8v14.9c0,4,1.1,5.1,5,5.1h10.4c3.9,0,4.9-1.2,4.9-5.1v-14.9
		c0-0.6,0.3-0.8,0.8-0.8h4.1c0.6,0,0.8,0.3,0.8,0.8V580c0,7.2-2.9,9.9-10.5,9.9h-10.8c-7.6,0-10.5-2.7-10.5-9.9v-15.5
		c0-0.6,0.3-0.8,0.9-0.8H278.1z"/>
	<path class="st4" d="M349,563.7c0.6,0,0.8,0.3,0.8,0.8v3.6c0,0.6-0.3,0.8-0.8,0.8h-18.8c-1.4,0-2,0.8-2,2.1v1.3
		c0,1.4,0.6,2.1,2,2.1h14c4.3,0,6.5,2.3,6.5,6.4v3c0,3.6-2.1,6.1-6.6,6.1h-20.7c-0.6,0-0.9-0.3-0.9-0.8v-3.6c0-0.6,0.3-0.8,0.9-0.8
		h19.7c1.4,0,2-0.8,2-2.1v-1.5c0-1.4-0.6-2.1-2-2.1h-14c-4.3,0-6.5-2.3-6.5-6.4v-2.7c0-3.6,2.1-6.1,6.6-6.1L349,563.7L349,563.7z"/>
	<path class="st4" d="M373.1,563.7c0.6,0,0.8,0.3,0.8,0.8v24.6c0,0.6-0.3,0.8-0.8,0.8h-4c-0.6,0-0.9-0.3-0.9-0.8v-24.6
		c0-0.6,0.3-0.8,0.9-0.8H373.1z"/>
	<path class="st4" d="M395.4,563.7c0.5,0,0.7,0.2,0.9,0.5l11,20.2c0.1,0.2,0.2,0.3,0.5,0.3h0.2c0.2,0,0.3,0,0.4-0.3l10.8-20.2
		c0.2-0.4,0.4-0.5,0.9-0.5h4.9c0.6,0,0.7,0.4,0.5,0.9l-12.3,22.5c-1.2,2.3-2.4,2.8-3.9,2.8H407c-2,0-3-0.6-4.3-2.8l-12.4-22.5
		c-0.3-0.5-0.1-0.9,0.5-0.9H395.4z"/>
	<path class="st4" d="M466.8,563.7c0.6,0,0.9,0.3,0.9,0.8v3.6c0,0.6-0.3,0.8-0.9,0.8h-16.4c-3.9,0-5,1.2-5,5.1v0.4h21.2
		c0.6,0,0.8,0.3,0.8,0.8v3c0,0.6-0.3,0.8-0.8,0.8h-21.2v0.6c0,3.9,1.1,5.1,5,5.1h16.4c0.6,0,0.9,0.3,0.9,0.8v3.6
		c0,0.6-0.3,0.8-0.9,0.8h-16.5c-7.6,0-10.5-2.7-10.5-9.9v-6.4c0-7.2,2.9-9.9,10.5-9.9L466.8,563.7L466.8,563.7z"/>
	<path class="st4" d="M518.1,563.7c2.2,0,3,0.5,4,2.8l7.8,18c0.1,0.3,0.3,0.3,0.5,0.3h0.5c0.3,0,0.4-0.1,0.5-0.3l7.8-18
		c1-2.4,1.8-2.8,4-2.8h4c2.6,0,3.3,1,3.3,3.9v21.5c0,0.6-0.3,0.8-0.9,0.8h-3.8c-0.6,0-0.8-0.3-0.8-0.8v-19.5c0-0.3-0.1-0.4-0.3-0.4
		h-0.3c-0.3,0-0.4,0.1-0.5,0.3l-7.6,16.8c-1.2,2.7-2.3,3.7-4.8,3.7h-1.8c-2.5,0-3.6-1-4.8-3.7l-7.6-16.8c-0.1-0.2-0.2-0.3-0.5-0.3
		h-0.3c-0.2,0-0.3,0.1-0.3,0.4v19.5c0,0.6-0.3,0.8-0.8,0.8h-3.8c-0.6,0-0.9-0.3-0.9-0.8v-21.5c0-2.8,0.7-3.9,3.3-3.9H518.1z"/>
	<path class="st4" d="M595.2,563.7c0.6,0,0.9,0.3,0.9,0.8v3.6c0,0.6-0.3,0.8-0.9,0.8h-16.4c-3.9,0-5,1.2-5,5.1v0.4H595
		c0.6,0,0.8,0.3,0.8,0.8v3c0,0.6-0.3,0.8-0.8,0.8h-21.2v0.6c0,3.9,1.1,5.1,5,5.1h16.4c0.6,0,0.9,0.3,0.9,0.8v3.6
		c0,0.6-0.3,0.8-0.9,0.8h-16.5c-7.6,0-10.5-2.7-10.5-9.9v-6.4c0-7.2,2.9-9.9,10.5-9.9L595.2,563.7L595.2,563.7z"/>
	<path class="st4" d="M620.9,563.7c2.2,0,3,0.5,4,2.8l7.8,18c0.1,0.3,0.3,0.3,0.5,0.3h0.5c0.3,0,0.4-0.1,0.5-0.3l7.8-18
		c1-2.4,1.8-2.8,4-2.8h4c2.6,0,3.3,1,3.3,3.9v21.5c0,0.6-0.3,0.8-0.9,0.8h-3.8c-0.6,0-0.8-0.3-0.8-0.8v-19.5c0-0.3-0.1-0.4-0.3-0.4
		h-0.3c-0.3,0-0.4,0.1-0.5,0.3l-7.6,16.8c-1.2,2.7-2.3,3.7-4.8,3.7h-1.8c-2.5,0-3.6-1-4.8-3.7l-7.6-16.8c-0.1-0.2-0.2-0.3-0.5-0.3
		h-0.3c-0.2,0-0.3,0.1-0.3,0.4v19.5c0,0.6-0.3,0.8-0.8,0.8h-3.8c-0.6,0-0.9-0.3-0.9-0.8v-21.5c0-2.8,0.7-3.9,3.3-3.9H620.9z"/>
	<path class="st4" d="M694,563.7c5.2,0,7.1,2,7.1,6.2v1.8c0,2.1-0.8,3.7-2.4,4.8c1.8,1,2.6,2.6,2.6,4.8v2.2c0,4-1.7,6.5-6.6,6.5
		h-22.2c-0.8,0-1.1-0.4-1.1-1.1v-24c0-0.8,0.4-1.1,1.1-1.1L694,563.7L694,563.7z M677,574.6h15.3c2.5,0,3.2-0.8,3.2-2.2v-1.3
		c0-1.5-0.8-2.2-2.8-2.2h-15.3c-0.3,0-0.5,0.2-0.5,0.5L677,574.6L677,574.6z M677,578.7v5.6c0,0.3,0.2,0.5,0.5,0.5h15.3
		c2,0,2.8-0.7,2.8-2.3v-1.4c0-1.5-0.8-2.4-3.3-2.4L677,578.7L677,578.7z"/>
	<path class="st4" d="M745.5,563.7c0.6,0,0.9,0.3,0.9,0.8v3.6c0,0.6-0.3,0.8-0.9,0.8h-16.4c-3.9,0-5,1.2-5,5.1v0.4h21.2
		c0.6,0,0.8,0.3,0.8,0.8v3c0,0.6-0.3,0.8-0.8,0.8h-21.2v0.6c0,3.9,1.1,5.1,5,5.1h16.4c0.6,0,0.9,0.3,0.9,0.8v3.6
		c0,0.6-0.3,0.8-0.9,0.8H729c-7.6,0-10.5-2.7-10.5-9.9v-6.4c0-7.2,2.9-9.9,10.5-9.9L745.5,563.7L745.5,563.7z"/>
	<path class="st4" d="M785,563.7c5.7,0,8,2.7,8,7.7v2.1c0,4.3-1.7,6.8-5.6,7.5l6.4,7.9c0.2,0.3,0.2,0.9-0.5,0.9h-4.8
		c-0.6,0-0.8-0.2-1-0.5l-5.9-7.8h-12.1v7.5c0,0.6-0.3,0.8-0.8,0.8h-4c-0.6,0-0.9-0.3-0.9-0.8v-24.3c0-0.8,0.4-1.1,1.1-1.1L785,563.7
		L785,563.7z M769.5,577.1h14.3c2.5,0,3.5-1.1,3.5-3.3v-1.6c0-2.2-0.9-3.3-3.5-3.3H770c-0.3,0-0.5,0.2-0.5,0.5L769.5,577.1
		L769.5,577.1z"/>
	<path class="st4" d="M836.4,563.7c0.6,0,0.8,0.3,0.8,0.8v3.6c0,0.6-0.3,0.8-0.8,0.8h-18.8c-1.4,0-2,0.8-2,2.1v1.3
		c0,1.4,0.6,2.1,2,2.1h14c4.3,0,6.5,2.3,6.5,6.4v3c0,3.6-2.1,6.1-6.6,6.1h-20.7c-0.6,0-0.9-0.3-0.9-0.8v-3.6c0-0.6,0.3-0.8,0.9-0.8
		h19.7c1.4,0,2-0.8,2-2.1v-1.5c0-1.4-0.6-2.1-2-2.1h-14c-4.3,0-6.5-2.3-6.5-6.4v-2.7c0-3.6,2.1-6.1,6.6-6.1L836.4,563.7L836.4,563.7
		z"/>
	<path class="st4" d="M860.5,563.7c0.6,0,0.8,0.3,0.8,0.8v9.7h17.5v-9.7c0-0.6,0.3-0.8,0.8-0.8h4c0.6,0,0.9,0.3,0.9,0.8v24.6
		c0,0.6-0.3,0.8-0.9,0.8h-4c-0.6,0-0.8-0.3-0.8-0.8v-10h-17.5v10c0,0.6-0.3,0.8-0.8,0.8h-4c-0.6,0-0.9-0.3-0.9-0.8v-24.6
		c0-0.6,0.3-0.8,0.9-0.8H860.5z"/>
	<path class="st4" d="M907.5,563.7c0.6,0,0.8,0.3,0.8,0.8v24.6c0,0.6-0.3,0.8-0.8,0.8h-4c-0.6,0-0.9-0.3-0.9-0.8v-24.6
		c0-0.6,0.3-0.8,0.9-0.8H907.5z"/>
	<path class="st4" d="M947.7,563.7c5.7,0,8,2.7,8,7.7v2.8c0,5-2.3,7.7-8,7.7h-15.5v7.2c0,0.6-0.3,0.8-0.8,0.8h-4
		c-0.6,0-0.9-0.3-0.9-0.8v-24.3c0-0.8,0.4-1.1,1.1-1.1L947.7,563.7L947.7,563.7z M932.2,577h14.3c2.5,0,3.5-1.1,3.5-3.3v-1.4
		c0-2.2-0.9-3.3-3.5-3.3h-13.8c-0.3,0-0.5,0.1-0.5,0.5L932.2,577L932.2,577z"/>
</g>
<g>
	<g>
		<path class="st4" d="M875.1,447.5l-5.5-14.4h2.2l4.5,11.8l4.5-11.8h2.2l-5.5,14.4H875.1z"/>
		<path class="st4" d="M891,433.1l5.5,14.4h-2.1l-1.3-3.3h-6.5l-1.3,3.3h-2.1l5.5-14.4H891z M887.5,442.1h4.9l-2.5-6.3L887.5,442.1z
			"/>
		<path class="st4" d="M901.7,433.1v12.3h7.4v2.1h-9.5v-14.4L901.7,433.1L901.7,433.1z"/>
		<path class="st4" d="M914.2,433.1v14.4h-2.1v-14.4H914.2z"/>
		<path class="st4" d="M918.5,447.5v-14.4h7.3c0.8,0,1.5,0.1,2.1,0.4s1.2,0.6,1.6,1c0.4,0.4,0.8,1,1,1.6s0.4,1.3,0.4,2.1v4.3
			c0,0.8-0.1,1.5-0.4,2.1s-0.6,1.1-1,1.6c-0.4,0.4-1,0.8-1.6,1c-0.6,0.2-1.3,0.4-2.1,0.4L918.5,447.5L918.5,447.5z M925.8,445.4
			c1,0,1.7-0.3,2.2-0.8c0.5-0.5,0.8-1.2,0.8-2.2v-4.3c0-0.5-0.1-0.9-0.2-1.3c-0.1-0.4-0.3-0.7-0.6-0.9s-0.6-0.5-0.9-0.6
			c-0.4-0.1-0.8-0.2-1.3-0.2h-5.3v10.3H925.8z"/>
		<path class="st4" d="M871.4,457.7H883v2.1h-4.7v12.3h-2.1v-12.3h-4.7L871.4,457.7L871.4,457.7z"/>
		<path class="st4" d="M898.4,457.7v14.4h-2.1V466h-8.2v6.2H886v-14.4h2.1v6.2h8.2v-6.2H898.4z"/>
		<path class="st4" d="M914.1,462.9c0,2-0.9,3.1-2.6,3.4l2.7,5.8h-2.3l-2.7-5.8h-4.5v5.8h-2.1v-14.4h7.9c2.3,0,3.5,1.2,3.5,3.5
			L914.1,462.9L914.1,462.9z M904.8,464.3h5.7c0.5,0,1-0.1,1.2-0.4s0.4-0.6,0.4-1.2v-1.4c0-0.5-0.1-1-0.4-1.2
			c-0.2-0.2-0.6-0.4-1.2-0.4h-5.7V464.3z"/>
		<path class="st4" d="M918.1,457.7h2.1v12.3h8.2v-12.3h2.1v12.3c0,0.3,0,0.5-0.2,0.8s-0.2,0.5-0.4,0.7s-0.4,0.3-0.7,0.4
			c-0.2,0.1-0.5,0.2-0.8,0.2h-8.2c-0.3,0-0.5,0-0.8-0.2c-0.2-0.1-0.5-0.3-0.7-0.4c-0.2-0.2-0.3-0.4-0.4-0.7
			c-0.1-0.2-0.2-0.5-0.2-0.8L918.1,457.7L918.1,457.7z"/>
	</g>
	<polygon class="st4" points="940.6,443 940.6,461.1 951.8,452 	"/>
</g>
<g>
	<path class="st4" d="M910.7,92.7v8.1c9.6,0,17.4,7.8,17.4,17.4h8.1C936.2,104.1,924.7,92.7,910.7,92.7z"/>
	<path class="st4" d="M910.7,77v8.7c17.9,0,32.5,14.6,32.5,32.5h8.7C951.8,95.5,933.4,77,910.7,77z"/>
	<path class="st4" d="M915.3,108.8c-2.4,0-4.4,2-4.4,4.4s2,4.4,4.4,4.4c2.4,0,4.4-2,4.4-4.4S917.8,108.8,915.3,108.8z"/>
</g>
<g>
	
		<linearGradient id="SVGID_00000168111491455781275870000004040024107591548308_" gradientUnits="userSpaceOnUse" x1="929.9138" y1="224.4102" x2="803.2747" y2="500.4434" gradientTransform="matrix(1 0 0 -1 0 635.89)">
		<stop  offset="0" style="stop-color:#FFFFFF"/>
		<stop  offset="1.390000e-02" style="stop-color:#F6F6F6"/>
		<stop  offset="7.150000e-02" style="stop-color:#D4D4D4"/>
		<stop  offset="0.1307" style="stop-color:#BABABA"/>
		<stop  offset="0.1912" style="stop-color:#A8A8A8"/>
		<stop  offset="0.254" style="stop-color:#9D9D9D"/>
		<stop  offset="0.3227" style="stop-color:#999999"/>
		<stop  offset="0.3969" style="stop-color:#9F9F9F"/>
		<stop  offset="0.4959" style="stop-color:#B0B0B0"/>
		<stop  offset="0.6086" style="stop-color:#CCCCCC"/>
		<stop  offset="0.661" style="stop-color:#DBDBDB"/>
		<stop  offset="0.7215" style="stop-color:#E4E4E4"/>
		<stop  offset="0.8873" style="stop-color:#F8F8F8"/>
		<stop  offset="1" style="stop-color:#FFFFFF"/>
	</linearGradient>
	<path style="fill:url(#SVGID_00000168111491455781275870000004040024107591548308_);" d="M890.8,289.2h-90c-33.7,0-61-27.3-61-61.1
		l0,0c0-33.7,27.3-61.1,61-61.1h90c33.7,0,61,27.3,61,61.1l0,0C951.8,261.9,924.5,289.2,890.8,289.2z"/>
	
		<linearGradient id="SVGID_00000114054225660099982230000003357151684098547597_" gradientUnits="userSpaceOnUse" x1="826.3821" y1="365.122" x2="851.611" y2="423.4946" gradientTransform="matrix(1 0 0 -1 0 635.89)">
		<stop  offset="0" style="stop-color:#FFFFFF"/>
		<stop  offset="1.390000e-02" style="stop-color:#F6F6F6"/>
		<stop  offset="7.150000e-02" style="stop-color:#D4D4D4"/>
		<stop  offset="0.1307" style="stop-color:#BABABA"/>
		<stop  offset="0.1912" style="stop-color:#A8A8A8"/>
		<stop  offset="0.254" style="stop-color:#9D9D9D"/>
		<stop  offset="0.3227" style="stop-color:#999999"/>
		<stop  offset="0.3969" style="stop-color:#9F9F9F"/>
		<stop  offset="0.4959" style="stop-color:#B0B0B0"/>
		<stop  offset="0.6086" style="stop-color:#CCCCCC"/>
		<stop  offset="0.661" style="stop-color:#DBDBDB"/>
		<stop  offset="0.7215" style="stop-color:#E4E4E4"/>
		<stop  offset="0.8873" style="stop-color:#F8F8F8"/>
		<stop  offset="1" style="stop-color:#FFFFFF"/>
	</linearGradient>
	<path style="fill:url(#SVGID_00000114054225660099982230000003357151684098547597_);" d="M776.1,206c0.3,0,0.4,0.1,0.7,0
		s1.1-0.7,1.4-0.7c0.3-0.1,0.5,0,0,0.3c-0.4,0.2-1.2,0.7-1.1,0.7s0.6-0.2,1.2-0.5s0.5-0.2,0.7-0.5c0.2-0.3,0.2-0.5,0.2-0.5
		s0.9,1,1,1s0.1,0,0.2-0.1c0-0.1,0.2-0.3,0.3-0.2s0,0.3,0.1,0.3c0.1,0,0.2,0,0.5-0.1s0.1-0.3,0.1-0.3s0,0,0.3,0
		c0.3,0,1.2,0.3,1.5,0.4c0.3,0.1,1.1,0.2,1.3,0.3s0.3-0.1,0.6,0c0.3,0.2,0.5,0.4,0.3,0.5c-0.2,0.1-0.8,0.2-0.5,0.3
		c0.3,0.1,0.8,0.2,1.2,0.2c0.4,0,1.2-0.2,1.5-0.2c0.2,0,0.4,0.1,0.6,0.5s0.4,0.5,0.5,0.6s-0.1-0.2,0-0.4c0-0.2,0-0.6-0.1-0.7
		s0-0.2-0.1-0.4s-0.3-0.1,0-0.3s0.5-0.4,0.9-0.3s0.5,0.5,0.8,0.6c0.3,0,0.4,0.2,1,0.2c0.6,0,0.3,0,1,0.1c0.6,0,0.4-0.1,0.5-0.4
		c0.1-0.3,0.3-0.4,0.4-0.4c0.2,0,0.7,0.1,0.7,0.2s-0.2,0.4-0.1,0.6c0.1,0.2,0.6,0.5,0.6,0.5s-0.1-0.4-0.1-0.4c0,0,0-0.4,0-0.4
		c0.1-0.1,0.5,0,0.7-0.4s-0.2-0.4-0.2-0.4s-0.2,0-0.1-0.2c0.1-0.2,0.5-0.3,0.5-0.3s0,0.1,0-0.1c0-0.2-0.3-0.1-0.6-0.1
		c-0.3,0-0.5-0.1-0.6-0.3c0-0.3-0.1-0.8-0.1-1.2c0-0.4,0.3-0.2,0.3-0.4c0-0.2,0-1.2-0.1-1.4c-0.1-0.2,0.1-0.6,0.2-0.9
		c0-0.3,0.3-0.2,0.3-0.2c0-0.1,0.1-0.4,0.5-0.5c0.4-0.1,1.2,0,1.2,0s-0.1,0-0.3,0.2s-0.1,0.7-0.3,1c-0.3,0.3-1,0.2-1,0.2
		s0.2,0.5,0.1,0.7c-0.1,0.2-0.2,0.5-0.2,0.5s0.6,0.2,0.7,0.6c0,0.4,0.3,0.5,0.4,0.8s-0.3,0.7-0.2,0.7s0.1,0.1,0.3,0.1
		c0.2,0,0.5,0.1,0.5,0.1s-0.1,0.2,0,0.4c0.1,0.2,0,0.3,0,0.5c0,0.2,0.1,0.4,0.2,0.4c0,0,0.3-0.6,0.4-0.8c0-0.2,0.1-0.4,0.2-0.4
		s0.5,0.3,0.5,0.4c0,0.1,0.1,0.3-0.1,0.6c-0.2,0.3-0.2,0.5,0,0.6c0.2,0.1,0.2,0.1,0.5,0.2c0.3,0.1,0.3,0.1,0.5,0.1s-0.1-0.6-0.1-0.6
		s0.5-0.1,0.4-0.3c-0.1-0.2-0.2-0.4,0-0.5s0.4-0.2,0.4-0.2c-0.1-0.2-0.1-0.2-0.3-0.6s0.1-0.3,0.7-0.3c0.6,0,0.6,0.2,0.9,0.4
		c0.3,0.2,0.1,0.2,0.2,0.5c0.1,0.2-0.2,0.3-0.2,0.3s-0.2,0-0.2,0.2c0,0.2,0.2,0.4,0.3,0.7c0.2,0.3,0,0.5-0.3,0.8s-0.6,0.3-0.9,0.3
		c-0.3,0-0.4,0.1-0.5,0c0-0.1-0.2-0.2-0.3-0.1c-0.2,0-0.5,0.2-0.4,0.2s0.5,0,0.3,0.3c-0.2,0.3-0.3,0.3-0.6,0.2s-0.6,0-0.8,0
		s-1.1-0.1-1.1-0.1s0.6,0.4,1.1,0.5c0.5,0.2,1,0.1,1,0.1s-0.2,0.4-0.4,0.8c-0.2,0.4-0.5,0.2-0.7,0.2s-0.3,0.2-0.7,0.2
		s-1.2-0.1-1-0.1s0.2,0.2,0.4,0.2c0.2,0,0.3,0.1,0.5,0.2c0.2,0.2-0.1,0.2-0.4,0.2c-0.2,0-0.3,0.1-0.4,0.2c-0.1,0.2-0.5,0.8-0.7,0.9
		s-0.2,0.5-0.3,0.9c0,0.4-0.4,0.8-0.2,0.9c0.1,0.1,0.7,0.1,0.9,0.2c0.2,0.1,0.5,0.8,0.6,1.1c0.2,0.3,0.3,0.4,0.5,0.2s0.6-0.1,0.9,0
		c0.3,0.1,1.1,0.6,1.3,0.8c0.2,0.2,0.6,0.2,1,0.2c0.4,0.1,0.5,0.2,0.5,0.2s0.5,0,0.3,0.2c-0.2,0.2-0.2,0,0,0.3s0.2,0.8,0.1,1
		s0.6,0.1,0.9,0.3s0.3,0.8,0.4,0.7s0.4-0.2,0.4-0.4s0-0.4,0-0.7c0-0.3-0.1-0.9-0.2-1.1s0.3-0.3,0.2-0.4s0-0.3,0.2-0.4
		c0.3-0.1,0.3,0,0.5-0.1c0.2-0.1,0.2-0.7,0.2-0.9s0-0.6-0.1-0.8c-0.1-0.2-0.3-0.7-0.4-0.8s-0.2-0.1,0-0.5c0.3-0.4,0.1-0.3,0.1-0.4
		c0-0.1-0.1-0.4-0.2-0.6c0-0.2,0.1-0.5,0-0.8s-0.2-0.3-0.2-0.3s0.7-0.1,1.1,0c0.5,0.1,0.7-0.1,0.8-0.1s0.4,0.1,0.6,0.3
		s0.4,0.1,0.5,0.3c0.1,0.2,0.2,0.3,0.5,0.3c0.3,0,0.6,0.1,0.6,0.1s-0.2,0.1-0.2,0.5c0,0.4,0,0.6,0,0.8c0,0.1,0.1,0.2,0.2,0.2
		c0.1,0,0.5,0.3,0.8,0.4c0.4,0.1,0.5,0.1,0.6-0.2c0.1-0.3,0.1-0.3,0.3-0.3s0.2,0,0.2,0s-0.1-0.2-0.1-0.4s0.2-0.5,0.4-0.6
		c0.2-0.1,0.3,0.1,0.4,0.4c0.1,0.3,0.6,1.2,0.8,1.5c0.1,0.3,0.3,0.3,0.2,0.6c-0.2,0.3-0.2,0.4,0,0.5s0.5,0.3,0.5,0.6s-0.1,0.2,0,0.3
		c0.1,0.1,0.4-0.1,0.6,0s0.5,0.2,0.7,0.4c0.2,0.2,0.2,0.2-0.1,0.3c-0.2,0.1-0.5,0.2-0.6,0.2c-0.1,0.1-0.3,0.2-0.3,0.3s0,0.3,0.1,0.1
		s0.5-0.3,0.7-0.3c0.2-0.1,0,0,0.2,0c0.2,0,0.4,0.1,0.7,0.2s0.2,0.2,0.1,0.4c-0.1,0.2-0.1,0.3,0,0.5s0,0.3-0.3,0.5
		c-0.2,0.2-0.4,0.2-0.8,0.3c-0.4,0.1-0.6,0.3-0.8,0.5s-0.4,0.2-0.8,0.2c-0.4,0-0.2-0.2-0.3-0.1c-0.1,0-0.3,0.2-0.5,0.2
		c-0.2,0-1.1,0-1.4,0.1c-0.3,0.1-0.2,0.3-0.3,0.5c-0.1,0.2-0.2,0.1-0.5,0.2s-0.5,0.4-0.8,0.9c-0.3,0.5-0.7,0.8-0.7,0.8
		c0.1,0,0.5-0.3,0.7-0.5s1-0.8,1.2-1c0.2-0.2,0.8-0.4,0.9-0.4c0.1,0,0.4,0.3,0.4,0.4c0,0.1-0.1,0.2-0.3,0.4c-0.2,0.2-0.5,0-0.5,0.1
		s0.2,0.3,0.4,0.3c0.2,0,0.2,0.3,0.2,0.4c0,0.1-0.1,0.2,0.3,0.6c0.4,0.3,0.7,0.4,1,0.3c0.3,0,0.1,0.1,0.3,0.1c0.1,0,0.2-0.2,0.2-0.4
		c0-0.2,0.1-0.4,0.2-0.4c0.1-0.1,0.2-0.2,0.2,0.1c0,0.3-0.1,0.7-0.3,0.8c-0.2,0.1-0.1,0.2-0.1,0.3s-0.2,0.1-0.6,0.3
		c-0.4,0.2-0.5,0.3-0.6,0.3s-0.2,0-0.4,0.2c-0.2,0.2-0.4,0.4-0.6,0.4c-0.2,0-0.3-0.1-0.1-0.3c0.2-0.2,0.3-0.5,0.5-0.6
		c0.2-0.1,0.3-0.1,0.5-0.1c0.2,0,0.1-0.1,0.2-0.2c0.1-0.1-0.1-0.1-0.3-0.1c-0.2,0,0-0.2,0-0.2l-0.2,0.1c0,0-0.3,0.2-0.5,0.2
		c-0.1,0-0.1,0.1-0.1,0.1c0,0-0.4,0.1-0.4,0.1s-0.2,0.4-0.4,0.4c-0.3,0.1-0.1,0-0.3,0.1s-0.2-0.1-0.2,0s-0.1,0.1-0.3,0.2
		s-0.3,0.2-0.5,0.8c-0.2,0.6,0,0.8,0,0.9s-0.3-0.1-0.3,0c-0.1,0.1-0.2,0.3-0.5,0.3c-0.2,0.1-0.7,0.2-0.8,0.3
		c-0.1,0.1-0.1,0.3-0.2,0.5c0,0.2-0.3,0.7-0.3,0.7s0.1-0.2-0.1-0.4s-0.2-0.3-0.2-0.3s0,0.2,0,0.4c0.1,0.2,0.2,0.4,0.1,0.7
		c-0.1,0.2-0.2,0.5-0.3,0.6s0-0.2,0-0.3c0-0.2-0.1-0.2-0.2-0.3s-0.1-0.3,0-0.6c0.1-0.3-0.1-0.1-0.2,0.1c-0.1,0.2-0.2,0.6,0,0.9
		c0.2,0.3-0.1,0.2,0,0.6c0.1,0.4-0.2,0.6-0.1,0.6c0,0.1,0.2,0,0.3,0.2c0.1,0.2-0.1,0.1-0.2,0.1c-0.1,0.1,0,0.1,0,0.2
		c0,0.1,0.1,0,0.1,0.1c0,0-0.1,0.2-0.3,0.2c-0.2,0.1-0.2,0-0.3,0.1s-0.2,0.2-0.3,0.4s-0.2,0.1-0.3,0.2s-0.2,0.2-0.3,0.3
		c-0.2,0.1-0.5,0.3-0.7,0.6c-0.2,0.2-0.1,0.3-0.2,0.7c-0.1,0.4,0.2,1.1,0.4,1.7c0.2,0.6,0.3,0.5,0.2,0.7c0,0.2-0.1,0.5-0.3,0.6
		c-0.1,0.1-0.2-0.1-0.4-0.2s0-0.2-0.2-0.5c-0.2-0.3-0.2-0.4-0.2-0.6c0-0.2,0-0.5-0.2-0.8c-0.1-0.2-0.3-0.5-0.6-0.4s-0.2,0.1-0.4,0
		c-0.2-0.1-0.6-0.2-0.9-0.1c-0.2,0.1-1,0-1.1,0s-0.3,0.1-0.3,0.2s-0.1,0.1,0.2,0.2s0.2,0.2,0.2,0.3c0,0.1-0.2-0.1-0.3-0.1
		c-0.1,0-0.2,0.1-0.4,0.1c-0.2,0-0.2-0.2-0.4-0.2c-0.2,0-0.2,0-0.4-0.1c-0.2-0.1-0.4-0.2-0.6-0.2s-0.9,0.5-1.2,0.8s-0.6,0.5-0.7,0.7
		c-0.1,0.2-0.1,0.2,0.2,0.5c0.3,0.3,0.2,0.3,0.1,0.4c0,0.2-0.2,0.4-0.4,0.8c-0.2,0.4-0.1,0.7,0.2,1.1c0.2,0.4,0.4,0.7,0.6,0.9
		s0.3,0.4,0.5,0.4s0.2,0.1,0.3,0.2c0.1,0.1,0,0.1,0.3,0c0.2-0.1,0.4-0.2,0.6-0.2s0.3,0,0.5,0.1c0.1,0.1,0.1,0,0.1,0
		c0-0.1,0.1-0.2,0.1-0.3c0-0.1,0.3-0.4,0.3-0.6s0-0.6,0.3-0.6c0.2,0,0.7-0.1,1.2-0.1c0.5,0,0.2,0.3,0.1,0.5
		c-0.1,0.2-0.2,0.3-0.2,0.4c0,0.2,0,0.2-0.1,0.3c-0.2,0.1,0-0.1-0.1,0c-0.1,0.1-0.3,0.3-0.2,0.2c0,0,0.1,0.2,0.1,0.3s0,0.1,0,0.4
		s-0.5,0.5-0.5,0.5s0.2,0.1,0.4,0.1s0.6,0,0.8,0.1s0.8-0.1,1.2,0.1c0.4,0.2,0.2,0.3,0.3,0.5s0.1,0.8,0,0.9s-0.2,0.5-0.3,0.8
		c-0.1,0.3,0.3,0.5,0.6,0.7c0.3,0.2,0.6,0.3,0.8,0.4c0.2,0.1,0.5-0.3,1.1-0.2c0.6,0,0.8,0.5,0.8,0.5s0.1-0.3,0.3-0.7
		c0.3-0.4,0.3-0.6,0.6-0.7s0.5-0.2,1.1-0.4s0.5-0.1,0.8,0c0.3,0,1,0.1,1.7,0.3c0.7,0.2,1.8,0.3,2.2,0.4c0.4,0.2,0.6,0.7,1,1.1
		c0.4,0.4,1,0.8,1.2,0.9s1.5,0.4,1.8,0.5s0.7,0.6,0.7,0.9s0.3,0.4,0.7,0.6s0.5,0.4,0.8,0.9s0.2,0.6,0.5,0.8c0.3,0.1,2.8,0.8,3.4,1
		c0.6,0.2,1.4,0.9,1.6,0.9c0.2,0.1,0.6-0.1,0.7,0c0.2,0.1-0.1,0.6,0.1,0.9s0.2,0.4,0.1,0.6s-0.6,0.9-0.8,1.1
		c-0.2,0.3-0.6,0.5-0.8,0.6s-0.4,0-0.2,0.2s0,0.5-0.2,0.7c-0.2,0.2,0,0.2,0,0.9s0,1.5-0.1,1.8s-0.5-0.3-1.1,0.4
		c-0.5,0.7-0.7,1.2-1,1.3c-0.3,0.1-1.1,0.5-1.3,0.7s-0.3,0.3-0.5,0.7s-0.3,1.1-0.5,1.5c-0.2,0.4-0.5,0.7-1.1,1.3
		c-0.6,0.6-0.9,1.2-1.3,1.6c-0.4,0.5-0.3,0.4-0.4,0.5c-0.2,0.2-1.1-0.4-0.9,0c0.2,0.2-0.1,0,0,0.2c0.2,0.2,0.3,0.3-0.1,0.7
		c-0.3,0.4-0.7,0.3-1,0.4c-0.2,0.1-0.6-0.3-0.7-0.1c0,0.2-0.2,0.6-0.4,0.7c-0.2,0.1-0.7,0.2-0.7,0.3c0.2,1.2,0.8,1.3,0.2,1.2
		c-1.5-0.1-0.4-0.5-1.5,1.7c-0.2,0.3-0.3,0.2-0.3,0.6s0,0.7,0.2,1c0.2,0.2,0.1,0.2-0.3,0.6c-0.4,0.3-0.4,0.3-0.7,0.8
		c-0.3,0.5-0.7,0.5-0.5,0.9c0.1,0.4,0.2,1,0.3,1.5c0.2,0.6,0.6,0.5,1.3,0.9c0.7,0.4,0.7,0.2,1.1,0.3s-0.2,0.1-0.8,0.2
		c-0.6,0.1-1,0.2-1.3,0.1c-0.4-0.1-1.3-0.6-1.7-0.9c-0.3-0.2-0.8-0.7-1-1.1s-0.3-0.8-0.6-1.4c-0.2-0.6-0.1-0.9,0-2.1
		s0.2-2.2,0.4-2.9c0.2-0.7,0.7-3.6,0.9-4.4c0.2-0.8,0.8-3.9,0.9-4.3c0-0.5,0.1-0.9,0.2-1.4c0.1-0.5,0-1.5,0-1.5s0-0.1-0.2-0.5
		s-0.4-0.7-0.7-0.9c-0.3-0.2-0.7-0.4-1-0.6s-0.6-0.4-0.9-0.8c-0.3-0.3-0.5-1-0.7-1.3c-0.1-0.3-0.6-1.3-1.1-1.9s-0.5-0.7-0.7-1.4
		c-0.2-0.7,0.2-0.7,0.3-1.1s0.3-0.8,0.6-1.4c0.3-0.6,0.7-0.7,0.9-1.2s0-0.5,0-1s0-0.4-0.1-0.7s-0.2-0.6-0.4-0.7
		c-0.1-0.1-0.3-0.1-0.5,0c-0.1,0.1-0.3,0.5-0.5,0.6c-0.1,0-0.2-0.1-0.3-0.2c-0.1-0.1-0.5-0.1-0.5-0.2c-0.1-0.1-0.3-0.1-0.4-0.2
		c-0.1-0.1-0.7-0.3-0.8-0.5c-0.2-0.1-0.3-0.4-0.3-0.8s-0.3-0.4-0.9-0.9c-0.6-0.4-0.9-0.5-1.7-0.7c-0.8-0.2-1.1-0.7-1.3-0.9
		c-0.2-0.1-0.2-0.3-0.8-0.2s-1.2-0.2-1.7-0.4c-0.4-0.2-1.2-0.3-1.5-0.5c-0.3-0.2-0.9-0.3-1.1-0.8c-0.2-0.5-0.2-0.3-0.1-0.8
		s-0.5-0.8-0.9-1.2c-0.4-0.4-0.7-0.5-0.9-1c-0.2-0.5-0.5-0.5-0.9-0.9c-0.4-0.4-0.4-0.9-0.6-1.3s-1.2-1-1.2-1s0.3,0.7,0.4,1
		s0.4,1,0.7,1.5c0.3,0.5,0.6,0.6,0.9,1.1c0.3,0.5,0,0.8-0.1,0.6c-0.1-0.2-0.5-0.3-0.5-0.5c0-0.2-0.1-0.4-0.2-0.6
		c-0.1-0.2-0.5-0.4-0.9-0.7c-0.4-0.3-0.7-0.5-0.4-0.5s0.6,0.2,0.5,0.1c-0.1-0.1-0.5-0.6-0.7-0.9c-0.2-0.3-0.3-0.7-0.5-1.2
		c-0.2-0.6-1-1.1-1.4-1.1s-0.5-0.2-0.6-0.6s-0.2-0.8-0.3-1.1c-0.2-0.3-0.9-1.4-0.9-1.8s-0.2-1.6,0-2.2c0.3-0.6,0.2-2.1,0.2-2.4
		c0-0.3-0.5-0.8-0.5-1.1s0.3-0.1,0.5,0c0.2,0.1,0.7,0.2,0.7,0.2s-0.3-0.6-0.6-0.9c-0.2-0.2-0.8-0.5-1.1-0.6
		c-0.3-0.1-0.6-0.2-0.8-0.4c-0.2-0.2-0.3-0.6-0.4-0.8s-0.6-0.4-0.7-0.6c-0.1-0.2-0.1-0.6-0.2-0.8c-0.2-0.2-0.4-0.3-0.6-0.2
		s-0.3-0.1-0.5-0.4c-0.2-0.3-0.6-0.5-0.7-0.5s-0.5-0.6-0.6-0.7c0-0.1-0.7-0.9-0.9-1c-0.2-0.1-2.3-0.8-2.3-0.8c0,0-0.7,0.1-0.8,0
		c-0.2-0.1-0.7-0.5-1-0.6c-0.3-0.1-0.5,0.1-0.6,0.4s-0.8,0.9-1.2,1.1c-0.4,0.2-0.7,0.3-0.6,0.1c0-0.1,0-0.3,0.1-0.6
		c0.1-0.3,0.2-0.4,0.6-0.6c0.4-0.2,0.4-0.2,0.2-0.2c-0.2,0-0.3,0,0-0.2c0.3-0.2,0.4-0.2,0.4-0.4c0-0.1-0.6,0.2-1,0.5
		c-0.4,0.3-0.6,0.6-1,1.1c-0.3,0.6,0,0.4-0.3,0.7c-0.3,0.4-1.3,1.1-1.6,1.4c-0.3,0.3-1.5,0.9-2,1.1c-0.5,0.1-0.7,0.2-0.9,0.4
		s-0.8,0.3-0.6,0.1c0.2-0.1,0.6-0.4,0.8-0.6c0.2-0.1,0.9-0.4,1.1-0.5s0.8-0.4,1-0.7c0.3-0.3,0.5-0.7,0.7-1s0.2-0.4-0.2-0.3
		c-0.4,0.1-0.8,0.1-1,0s-0.7,0.2-0.9,0.1s0-0.4-0.1-0.6s-0.5-0.1-0.8-0.1c-0.3-0.1-0.6-0.3-0.6-0.6c0-0.4-0.3-0.7-0.1-1
		c0.2-0.3,0.4-0.4,0.6-0.5s0.9-0.4,1-0.4c0.1,0,0.3-0.1,0.4-0.3s-0.3-0.6-0.3-0.6s0.1-0.1,0.2-0.1c0.2-0.1,0-0.3-0.2-0.3
		c-0.3,0-0.9,0.3-1.3,0.4c-0.4,0.1-0.9,0-0.9-0.1c0-0.2,0.1-0.3,0-0.4c-0.1-0.1-0.2-0.3-0.1-0.3c0.1-0.1,1-0.5,1-0.5
		s0.3,0.3,0.6,0.4c0.3,0,1-0.6,1-0.6c-0.4-0.3-0.3-0.3-0.3-0.3s-0.7,0-0.9-0.1s-0.2-0.3-0.2-0.5c0-0.2-0.7-0.3-0.5-0.6
		c0.2-0.3,0.5-0.4,0.8-0.7c0.2-0.3,0.4-0.8,1.1-1.1c0.7-0.3,1.5-0.6,1.8-0.8s0.5,0,0.6,0s1,0,1.3,0s0.4,0.4,0.5,0.4
		c0.1,0.1,2.9,0.2,2.9,0.2s2.4,0,2.9,0.2s1.3,0.5,1.3,0.5C775.8,206.7,775.8,206,776.1,206z M808.3,191.5c0,0-0.2,1-1.2,1.3
		c-1,0.3-2.7,1.1-2.8,1.1s0.1,0.6,0.3,0.9c0.2,0.3,0.5,0.5,0.7,0.7c0.2,0.3,0.6,0.2,0.9,0.5c0.3,0.3,0.5,0.2,1.3,0.2
		s0.6,0.1,1.5,0.1c0.9,0.1,1.8,0.1,2.2,0.4c0.3,0.3,0.8,1.4,1,2s0.8,1.7,0.8,1.8s-0.3,0.9-0.3,1c0,0.1,0.2,0.3,0.3,0.5
		s0.1,0.3,0,0.5s0.2,0.6,0.2,0.6c0,0.1,0.4-0.4,0.7-0.5s0.9,0.4,0.9,0.8c0,0.8,0.2,0.5-1.1,1.5c-0.2,0.1-0.3,1.1-0.2,1.6
		c0.1,0.5,0.5,1,0.7,1.7c0.2,0.7,1,1.6,1.2,2.1s0.3,1,0.8,1.2c0.5,0.1,1,0.3,1.4,0.4c0.4,0.1,0.6,0.2,0.8-0.1s0.6-1.7,0.9-2.7
		s0-1.3,0.7-1.5c0.7-0.2,1.9-0.7,2.2-0.8c0.3-0.1,0.3-1.1,0.9-1.4c0.7-0.3,0.8-0.3,1.5-0.5c0.7-0.2,1.6-0.6,2.3-1.1
		c0.7-0.5,0.9-0.2,1.1-0.7s-0.2-1.1-0.3-1.7c0-0.6,0.2-0.7,0.3-1.3c0.1-0.6,0.2-1,0.7-1.4c0.5-0.4,0.8-0.6,0.7-1
		c-0.1-0.4-0.4-0.9-0.4-1.4s0.1-0.2-0.1-0.8c-0.2-0.6-0.2-0.6,0-1.2c0.2-0.5,0.7-0.4,0.7-0.6s-0.9-0.6-0.9-1.3c0-0.7,0.2-0.9,0.3-1
		s1.5-1.2,1.6-1.4c0.1-0.1,0-0.4,0.6-0.7c0.7-0.3,0.9-0.5,1.2-0.6c0.3-0.1,0.7-0.1-0.1-0.3c-0.8-0.2-1-0.3-1.5-0.3
		c-0.5,0.1-0.7,0.4-1.6,0.4c-0.9,0.1-1.9,0.5-1.9,0.5s0.3-0.3,0-0.5c-0.3-0.3,0.7-1.1,0.9-1.2s-1.3-0.4-2-0.6s-2.2-0.6-3-0.5
		c-0.8,0.1-2,0.1-2.5,0.2s-0.4,0.7-0.8,0.7c-0.5,0-1.3-0.3-2-0.2s-1.7,0.6-1.9,0.6s0.4,0.4,0.8,0.4c0.3,0.1,0.8,0.8,0.8,0.8
		s-0.9-0.3-1.9-0.6c-1-0.3-2.1,0-2.5,0.1c-0.4,0.1-0.9,0.3-1.7,0.4c-0.8,0-1.7,0.7-2.1,1s-1.8,1.1-2.2,1.3c-0.3,0.2-0.2,0.3,0.2,0.4
		C807.9,191.5,808.3,191.5,808.3,191.5z M788.5,201.9c0.1,0.5,0.1,1.1-0.1,0.8c-0.2-0.3-0.5-0.9-0.9-0.6c-0.4,0.2-0.8,0.2-0.8,0.1
		s0-0.3-0.2-0.4c-0.2-0.1-0.3,0-0.5,0.2c-0.2,0.1-0.9,0.3-0.6,0.1c0.3-0.2,0.2-0.3,0.1-0.6s-0.8,0.2-1.2,0.4
		c-0.4,0.3-0.6,0.7-0.8,0.9c-0.2,0.3-0.1,0.4,0.3,0.6s0.9,0.2,0.4,0.3c-0.5,0.2-0.8,0.3-0.6,0.4s0.6,0.2,1,0.1
		c0.4-0.1,0.7-0.2,1.4,0c0.6,0.2,1,0.2,1,0.2s-0.2,0.1-0.7,0.2s-1.2,0-1.6,0.1c-0.4,0.1-1,0.2-0.9,0.3c0.2,0.1,0.3,0.4,0.8,0.6
		c0.5,0.2,0.7,0,1,0.1c0.3,0.1,0.2,0.5,0.2,0.5c0.1,0.1,0.7-0.1,1.3-0.2c0.6-0.1,0.4-0.2,0.9-0.3c0.5-0.1,0.5-0.5,0.8-0.6
		s0.1,0.2,0.4,0.3c0.3,0.1,0.2,0.1,0.5,0.2s0.3,0.2,0.7,0.2c0.4,0,0.8-0.3,0.7-0.3c0,0-0.1-0.1-0.1-0.3c0-0.2-0.4,0-0.5,0.1
		c-0.1,0.1-0.1-0.2,0.2-0.4s0.6,0,0.8,0s0-0.5-0.3-0.6s-0.5-0.3-1-0.6c-0.5-0.3-0.2-0.4-0.4-0.7c-0.1-0.4-0.5-1.4-0.7-1.6
		c-0.3-0.2-0.5-0.1-0.8-0.3C788.4,201.2,788.3,201.4,788.5,201.9z M781,201.2c0.1,0.3,0.1,0.1-0.1,0.5c-0.2,0.4-0.1,0.5-0.3,0.8
		c-0.2,0.3-0.6,0.6-0.5,0.8c0.1,0.2,0.6,0.3,0.7,0.4s0.4,0.4,0.7,0.3c0.3-0.1,0.4-0.2,0.7-0.3c0.2-0.1,0.4-0.2,0.4-0.5
		c0-0.3,0-0.4,0.1-0.4c0.1,0,0.2,0.2,0.3,0s0.2-0.4,0.3-0.6c0.2-0.1,0.6-0.3,0.8-0.5c0.2-0.2,0.5-0.4,0.7-0.5
		c0.1-0.1-0.2-0.3-0.3-0.3c-0.2-0.1-0.4-0.3-0.8-0.3s-0.6,0.3-0.6,0.2c0-0.1-0.3-0.2-0.4-0.3s-0.3-0.1-0.8-0.1s-0.7,0.1-1.1,0.2
		C780.5,200.6,780.9,200.8,781,201.2z M792.7,205.1c0,0.1-0.3,0.1-0.4,0.3s0.3,0.1,0.5,0.1c0.1,0.1,0.2,0.2,0.4,0.2s0.7,0.1,1-0.1
		c0.3-0.1,0.3-0.2,0.3-0.2c0-0.1-0.5-0.6-0.9-0.8c-0.4-0.2-0.4-0.2-0.5-0.2C792.9,204.7,792.7,205.1,792.7,205.1z M791,201.3
		c-0.2,0.1-0.4,0.3,0,0.5c0.4,0.2,0.5,0.4,0.8,0.6c0.3,0.2,0.4,0.7,1,0.4c0.6-0.2,0.8-0.5,0.9-0.7s-0.1-0.3-0.2-0.5
		c-0.1-0.2-0.2-0.3-0.5-0.3c-0.3,0-0.4,0-0.4,0s0.2-0.2,0.5-0.4s0-0.3,0.2-0.4c0.2-0.1-0.4-0.2-0.6-0.2c-0.2,0.1-0.2,0-0.6,0
		c-0.4,0-1,0.3-1,0.5c0,0.1,0.3,0.1,0.6,0.2s0.3,0.1,0.1,0.6c-0.3,0.4-0.4-0.1-0.5-0.2C791.2,201.3,791.2,201.1,791,201.3z
		 M789.3,200.5c-0.4,0-0.5,0.3-0.4,0.4c0.2,0,0.2,0,0.5,0.2s0.5,0.4,0.5,0C790,200.6,789.9,200.4,789.3,200.5z M782.8,197.3
		c-0.5,0.4-0.5,0.6-0.9,0.9c-0.3,0.2-0.3,0.4-0.2,0.5c0.1,0.1,0.5,0,0.6-0.1s0.3-0.3,0.4-0.2c0.1,0.1,0.5-0.4,0.7-0.6
		c0.2-0.2,0.4-0.4,0.5-0.4c0,0-0.2,0.2-0.1,0.4c0.1,0.2,0.4,0.2,0.7-0.1c0.3-0.3,0-0.6,0.2-0.8c0.2-0.2,0.4-0.2,0-0.4
		s-0.7,0-0.8,0.1C783.8,196.7,783.7,196.6,782.8,197.3z M785.5,197.8c-0.2,0-0.4,0.1-0.8,0.2s-0.6,0.7-0.7,0.9
		c-0.1,0.3,0,0.3,0.4,0.4c0.4,0.1,0.9,0,1-0.4s0.3,0.1,0.2,0.3c-0.1,0.2,0.3,0,0.4-0.1c0.2-0.1,0.6-0.1,0.7-0.1s-0.4,0.3-0.8,0.5
		c-0.4,0.1-0.8,0.2-0.9,0.2c-0.1,0,0.1,0.2,0.6,0.3c0.5,0.1,0.8-0.3,1.5-0.6c0.7-0.3,0.7-0.3,0.9-0.2c0.2,0.1,0.5-0.1,0.8-0.2
		c0.3-0.1,0.4,0,0.5-0.4c0.1-0.4,0.3-0.8,0-0.9c-0.4,0-0.4,0-0.5,0.4c0,0.5-0.1,0.2-0.1,0.2s-0.3-0.4-0.4-0.6s-0.3-0.5-0.5-0.7
		c-0.2-0.2-0.3,0.1-0.5,0.4c-0.3,0.3,0,0.4,0.2,0.6c0.3,0.1,0.5,0.5,0.3,0.6c-0.1,0.1-0.3,0-0.8,0s-0.5-0.2-0.6-0.2
		c-0.1-0.1,0.2-0.2-0.3-0.4C785.7,197.8,785.7,197.8,785.5,197.8z M783.9,198.3c0.1-0.1-0.7,0.4-0.8,0.6c-0.1,0.2,0.1,0.1,0.3,0.1
		C783.7,199,783.7,198.6,783.9,198.3z M785.3,197.2c-0.2,0.1-0.2,0.1,0.1,0.2s0.5-0.1,0.4-0.2C785.8,197,785.5,197.1,785.3,197.2z
		 M786.8,195.6c-0.2,0-0.8,0.2-0.8,0.3c0,0.1,0,0.3,0.1,0.5c0.1,0.2,0.1,0.2,0.6,0.1c0.5-0.1,0.8-0.4,0.7-0.4
		c-0.2-0.1-0.3-0.1-0.4-0.1c-0.2,0,0.1-0.1,0.5-0.2C787.8,195.6,787.9,195.4,786.8,195.6z M785.1,195.8c-0.1,0.1-0.2,0.1,0.1,0.2
		c0.3,0.1,0.6,0.1,0.6,0C785.8,195.9,785.5,195.7,785.1,195.8z M786.3,195c-0.3,0.1-0.3,0.3-0.4,0.4c-0.1,0.1,0.3-0.1,0.5-0.1
		c0.2,0,0.2,0.1,0.4-0.1c0.2-0.1,0.5,0,0.8-0.1c0.3-0.1,0.3-0.3,0.3-0.4C787.8,194.6,787.1,194.7,786.3,195z M789.3,195.8
		c-0.1,0,0,0.2,0,0.3c0.1,0.1,0.1,0.1,0.2,0.2c0.2,0.1,0.3,0.2,0.3,0.2c0,0,0.1,0.1,0.1-0.1c0.1-0.1,0-0.1-0.2-0.3
		C789.7,195.9,789.5,195.7,789.3,195.8z M790.3,197.1c-0.2-0.1-0.4,0.1-0.5,0.1c-0.1,0,0,0.1,0.1,0.3c0.1,0.2,0,0.2,0.3,0.3
		c0.3,0,0.4,0,0.5-0.2C790.8,197.3,790.6,197.1,790.3,197.1z M791.7,197.5c-0.2-0.1-0.3-0.3-0.5-0.2c-0.2,0.1,0,0.2,0,0.2
		c0,0.1,0.3,0,0.3,0.1s0.1,0.2-0.2,0.2s-0.4,0-0.5,0.1c-0.1,0.1,0.2,0,0.3,0.1c0.1,0.1,0.3,0.2,0.6,0.1c0.3-0.1,0.7-0.1,0.7-0.1
		s-0.2,0.2-0.3,0.4c-0.1,0.1-0.1,0.4,0,0.5c0.2,0.1,0.2-0.1,0.6-0.1c0.4,0,0.6-0.2,0.6-0.2s-0.1-0.1-0.1-0.3c0-0.2,0-0.3,0-0.3
		s0.2,0.1,0.2,0.2c0,0,0-0.1-0.1-0.4s0-0.2-0.1-0.6s0-0.4-0.4-0.4c-0.3,0-0.5,0.1-0.8,0.1s-0.4,0.1-0.2,0.1c0.2,0.1,0.2,0.2,0.3,0.3
		c0.1,0.1,0.1,0.4,0.1,0.4C792.1,197.8,791.7,197.5,791.7,197.5z M790,198.7C790,198.7,790,198.7,790,198.7
		c-0.2,0.1-0.2,0.2-0.2,0.3c0,0.1,0.2,0.1,0.5-0.1C790.6,198.8,790.5,198.5,790,198.7z M794.2,198.1c-0.2,0.1-0.5,0.3-0.6,0.5
		c-0.1,0.2,0,0.2,0.3,0.4s0.8,0.2,0.9,0C795.1,198.8,794.9,197.8,794.2,198.1z M796,196.6c-0.5,0.1-0.3,0.1-0.9-0.1
		s-1.2-0.2-1.4-0.2s-0.1,0.1,0.1,0.4s0.2,0.4,0.7,0.3c0.4-0.1,0.7-0.2,1,0.3c0.3,0.4,0.5,0.6,0.2,0.7c-0.2,0.2-0.1,0.4,0,0.7
		c0.1,0.3,0.5,0.3,0.9,0.3c0.5,0,3.3,0,3.7-0.1s0.8-0.5,1.1-0.6c0.2-0.2,0.4-0.4,0-0.6s-0.8-0.4-1.1-0.4s-0.7,0.2-1.2,0.2
		c-0.5,0.1-0.4,0.3-0.9,0.3c-0.5,0-0.3,0.2-0.9,0s-1.1-0.6-0.8-0.6c0.3,0,0.5-0.1,0.4-0.2C796.7,197,796.4,196.6,796,196.6z
		 M790.3,194.3c0.3,0.1,0.4,0.2,0,0.3s-0.6,0.3-0.2,0.3c0.3,0,0.6,0,1,0.1c0.4,0.1,0.4,0,0.6,0.3c0.2,0.2,0.4,0.2,0.7,0.2
		s0.3-0.1,0.1-0.3c-0.2-0.2-0.4-0.6-0.6-0.7c-0.3-0.1-0.5-0.4-0.7-0.3c-0.2,0-0.3,0-0.5-0.3s-0.4-0.2-0.7-0.1
		c-0.3,0.1-0.4,0.3-0.5,0.4C789.1,194.3,790,194.2,790.3,194.3z M794.2,191.3c-0.3,0.4-0.6,0.8-0.2,0.9c0.4,0,0.6,0,0.6,0.1
		c0,0.1-0.1,0.2-0.7,0.2c-0.6,0-0.4,0.1-0.1,0.5c0.3,0.4,0.4,0.3,0.9,0.2c0.5,0,0.7-0.2,1.1-0.1c0.4,0.1,0.5,0.2,0.2,0.3
		c-0.4,0.1-1.3,0.3-1.1,0.5c0.2,0.2,0.8,0.6,1.1,0.7c0.3,0,0.3-0.2,1-0.1s0.5,0.1,0.5,0s0.4-0.6,0.5-0.8c0.1-0.2,0.2-0.3,0.6-0.3
		c0.3-0.1,0.4-0.2,0.1-0.3s-0.7-0.2-0.6-0.2c0-0.1,0.2-0.3,0.1-0.5c-0.1-0.1-0.3-0.1-0.5-0.2c-0.2-0.1-0.4-0.4-0.6-0.5
		c-0.2-0.1-0.4-0.1-0.7-0.4s-0.7-0.7-1.2-0.7C794.7,190.6,794.5,190.8,794.2,191.3z M793.5,194.9c-0.1,0.1-0.5,0.1-0.2,0.3
		c0.2,0.2,0.2,0.2,0.5,0.1c0.3-0.1,0.8-0.4,0.8-0.5s-0.3-0.3-0.6-0.3c-0.2-0.1-0.4-0.3-0.9-0.4C792.3,193.9,793.6,194.8,793.5,194.9
		z M809.9,188.4c-0.5-0.1-2.5-0.5-3.2-0.4s-0.6-0.3-1.5-0.2c-0.9,0.1-2.3,0.1-2.7,0.1c-0.4,0.1,0.2,0.2,0.5,0.4
		c0.2,0.1-1.1-0.2-2.1,0.1c-1,0.3-1.7,0.4-0.6,0.9c1.1,0.4,1.2,0.5,1.2,0.5s-1.4-0.2-2-0.5c-0.6-0.2-0.3-0.2-1.4,0.1
		s-2.2,0.5-2.1,0.8c0,0.3,0.9,0.8,1.5,0.9c0.5,0.1,1.7-0.2,1.8-0.2c0.1,0-0.5,0.4-0.5,0.4s0.6-0.1,1.2-0.3c0.6-0.2,1.1-0.4,1.8-0.6
		s0.7-0.3,0.7-0.3s-1,0.8-1.8,1.1c-0.7,0.3-1.7,0.5-2.1,0.5c-0.5,0-0.4,0.3,0.1,0.5s0.8,0.7,1,0.9c0.2,0.2,0.3,0.4,0.3,0.4
		s-0.7-0.6-1.5,0c-0.8,0.6-0.7,0.8-0.5,0.9c0.2,0.1,0.9,0.1,1,0.4c0.1,0.2,1-0.2,1-0.2s-0.5,0.6-0.9,0.6s-0.4-0.4-1-0.3
		c-0.6,0.1-0.6,0.2-0.3,0.4c0.3,0.2,0.5,0.3,0,0.5c-0.5,0.2-0.7,0.3-0.7,0.6s0.6,0.3,1,0.3s0.8,0,1.5-0.1c0.7,0,0.6-0.2,0.9-0.2
		c0.3,0,0.5,0.1,0.4,0.4s0.1,0.1,0.9-0.2c0.8-0.3,0.4-0.7,0.4-0.9s-0.3-0.2-0.5-0.3s0.5-0.8,0.4-1.1s0.9-0.1,1.3-0.6
		c0.5-0.6,0.3-1,0-1.1c-0.3-0.1,0.6,0,0.9-0.2s0.9-0.4,1.2-0.7c0.2-0.3,0.3-0.4-0.3-0.4c-0.6,0.1,0.9-0.3,1.6-0.7
		c0.7-0.5,1.5-1,1.7-1.1c0.2-0.1,0.3-0.1-0.5,0s-1.8-0.1-1.3-0.1c0.5-0.1,2.2-0.3,2.6-0.6C809.7,188.5,809.9,188.4,809.9,188.4z
		 M799.9,200c-0.9-0.1-2.2-0.3-2.5,0.5c-0.3,0.8-0.7,2.5-0.7,2.8c0,0.3,1.1,0.8,1.8,0.8c0.8,0,2,0.1,1.8-0.1c-0.2-0.2,0-0.3,0.7-0.2
		c0.7,0,0.8-0.1,0.8-0.3c0-0.1,0.1,0.2,0.6,0.4s0.9,1,1.4,1.4s1.5,1,1.2,1.4s0.2,1.5-1.3,1.8c-1.5,0.3-1.6,0.1-1.6,0.4
		c0,0.4,0.1,0.5,0.7,0.5s1.5-0.5,1.7-0.1c0.3,0.4,0.7,0.5,0.9,0.6s-0.3,0.2-0.5,0.3c-0.1,0.1,0.3,0.1,1.2,0.5s1.9,0.5,1.4,0.2
		s-0.8-0.9-1-1s0,0,0.4,0.1c0.4,0.1,0.8,0.4,1,0.6c0.2,0.1,0.3-0.1,0.4-0.6s0-0.6-0.8-1.1s-0.9-0.8-1-1.2c-0.1-0.3,0.4-0.4,0.5-0.6
		c0.2-0.2,0.7,0.4,1,0.8s0.6,1.1,0.9,0.6s0.5-1.6,0.5-1.8s-0.3,0-1.4-0.6c-1.1-0.6-1.7-0.8-1.8-0.8c-0.1,0,0.3-0.2,0.8-0.5
		s0.7-0.2-0.4-1.2c-1.1-1-1.4-1.2-2.1-1.3c-0.7-0.1-0.9-0.8-1.4-1.1s-1.7,0.3-2,0.4s-0.2,0.2-0.7-0.4
		C800.2,200.4,799.9,200,799.9,200z M800.7,200c-0.4,0.1,0.3,0.9,0.8,0.9s1-0.2,1.2-0.3C802.8,200.6,801.4,199.9,800.7,200z
		 M798.7,208.2c-0.1,0.2-0.3,0.7-0.3,1c0,0.3-0.1,0.4-0.2,0.6s0.2,0,0.4,0.3s0.1,0.4,0.4,0s0.7-0.5,1.2-0.3c0.5,0.1,0.8,0.2,0.7-0.1
		c-0.2-0.3-0.4-0.3-0.7-0.6s-0.6-0.5-1-0.6C798.9,208.3,798.8,207.8,798.7,208.2z M802,237.4c-0.1-0.3-0.3-0.8-1.2-0.9
		s-1.2,0.2-1.5,0.3s0.3,0.2,0.7,0c0.4-0.2,0.7,0,0.8,0c0,0.1-0.1,0.1-0.2,0s-0.1,0.2,0.4,0.4c0.5,0.2,0.6,0.2,0.6,0.4s0,0.3,0.2,0.5
		c0.1,0.2,0.2,0.2,0,0.3c-0.2,0.1-0.1,0.1,0,0.1c0.1,0.1,0.4,0.2,0.8,0.3c0.4,0,0.5,0.1,0.3-0.3C802.6,238.2,802.1,237.5,802,237.4z
		 M803.3,239.2c0.2,0.2,0.2,0.5,0.1,0.6c0,0.1-0.3,0-0.7-0.1s-0.4-0.1,0,0.1c0.4,0.2,0.6,0.2,0.6,0.4c0,0.3,0.4,0,0.5-0.1
		c0.2-0.2,0.2,0,0.8,0.1c0.7,0.1,0.8,0.2,0.7-0.1c-0.1-0.3,0.3-0.3-0.3-0.6C804.6,239.4,803.1,239,803.3,239.2z M801.3,239.4
		c-0.3-0.3-0.6-0.3-0.6-0.1s0.1,0.2,0.3,0.3C801.3,239.7,801.5,239.6,801.3,239.4z M806.4,240.6c-0.3-0.1-0.3,0.1-0.2,0.3
		c0.2,0.2,0.5,0.1,0.8,0.1C807.3,241,806.9,240.8,806.4,240.6z M803.1,205.8c-0.4,0.2-0.6,0.3-0.3,0.7c0.3,0.4,0.5,0.7,0.7,0.4
		C803.6,206.6,803.8,205.5,803.1,205.8z M800.1,210.4c-0.6,0.1-0.8,0.1-0.7,0.4c0.1,0.3,0.2,0.3,0.6,0.1
		C800.5,210.7,800.7,210.3,800.1,210.4z M801.3,210.9c-0.1,0-0.1,0.2,0,0.4c0.1,0.2,0.4-0.1,0.5-0.3
		C801.9,210.8,801.7,210.8,801.3,210.9z M795.1,195.6c-0.5,0-1.3,0.2-0.9,0.2s0.8,0.1,1.5,0.1c0.7,0,0.8-0.1,0.8-0.4
		C796.6,195,796.1,195.5,795.1,195.6z M791.8,192.6c-0.5,0.2-0.4,0.3,0.2,0.6c0.6,0.3,0.7,0.1,0.6-0.4
		C792.5,192.3,792.1,192.5,791.8,192.6z M830,206.5c-0.7,0.2-0.9,0.1-1,0.4s-0.4,0.2-0.5,0.2c-0.2,0-0.4,1-0.5,0.9s-0.2-0.2-0.3-0.6
		c-0.2-0.3,0-0.3-0.2-0.6c-0.3-0.4-0.9-0.3-0.9-0.2s0.4,0.3,0.2,0.4c-0.2,0.2-0.5,0.4-0.7,0.5c-0.1,0.1,0.3,0.1,0.5,0
		c0.2-0.1,0.4,0.2,0.5,0.4c0.1,0.2-0.1,0.4-0.2,0.4s0.4,0.1,0.6,0.1c0.2,0,0.3,0.2,0.2,0.4c-0.1,0.2,0.6,0,1,0s0.5,0.3,1.1,0.1
		c0.6-0.2,0.9-0.2,1.4-0.6c0.5-0.4,0.5-0.3,0.8-0.6c0.3-0.2,0.3-0.3,0.3-0.6s0.2,0.1,0.2-0.4c-0.1-0.4-0.5-0.3-0.8-0.3
		c-0.3,0-0.3-0.3-0.5-0.4C830.8,206.2,830.7,206.4,830,206.5z M875.2,243.2c0,0.1-0.1,0.2-0.1,0.4c0,0.2,0,0.5,0,0.7
		c0,0.2,0,0.4,0.2,0.4c0.1,0.1,0.2,0.1,0.4,0c0.2-0.1,0.4-0.3,0.3-0.5c-0.1-0.3-0.3-0.6-0.4-0.8C875.5,243.3,875.3,243,875.2,243.2z
		 M875,242.9c0,0.1,0,0.1,0.1,0.1c0,0.1,0.1,0,0-0.1S875.1,242.9,875,242.9C875.1,242.9,875,242.8,875,242.9 M894.3,256.2
		C894.3,256.2,894.3,256.2,894.3,256.2c-0.4,0.4-0.7,0.3-1.4,0.5c-0.6,0.2-1.8,0.9-1.8,1.1s0,0.3-0.1,0.3c-0.1,0-0.2-0.2-0.2-0.2
		s-0.2,0.4-0.1,0.7s0.2,0.5,0.2,0.9c0,0.4-0.2,0.6-0.2,0.9c0,0.3,0.5,0.8,0.6,1.1c0.1,0.3,0.2,0.2,0.3,0.8c0.1,0.6,0.4,0.9,0.1,1.2
		s-0.5,0.2-0.2,0.6s0.7,0.5,1.3,0.3c0.6-0.2,0.4-0.4,0.9-0.5s0.6-0.2,1-0.2s0.7,0,0.8-0.3c0.2-0.3,0-0.3,0.4-0.5
		c0.4-0.2,0.4-0.2,0.6-0.3s0.4,0.1,0.8-0.1s0.1-0.3,0.9-0.3c0.8,0,1.1,0.1,1.4,0.2c0.3,0.1,0.8,0.4,0.9,0.5s0.3,0.4,0.3,0.4
		s0.1,0,0.3-0.2c0.2-0.2,0.7-0.6,0.7-0.6s0,0.4-0.2,0.5s-0.1,0.4-0.1,0.4c0,0.1,0.3-0.2,0.3-0.2s0.1,0.5,0.1,0.6c0,0,0.2,0,0.3,0.2
		c0.1,0.2,0.3,0.3,0.4,0.6s0.6,0.6,1,0.7c0.3,0,0.6,0,0.8,0c0.2,0,0.2-0.3,0.5-0.2c0.2,0.1,0,0.4,0.6,0.3c0.6,0,0.8-0.2,1-0.4
		c0.2-0.2,0.3,0.2,0.6-0.2s0.4-0.3,0.4-0.8c0-0.5,0-0.6,0.3-1.1c0.3-0.5,0.4-0.2,0.6-1s0.5-1.4,0.4-2c0-0.6,0-0.2-0.1-0.9
		c-0.1-0.7,0-0.6-0.5-0.9s-0.5-0.2-0.6-0.6c-0.1-0.4,0-0.5-0.2-0.5s-0.4,0.1-0.5-0.2s-0.1-0.4-0.3-0.6c-0.2-0.2-0.4-0.2-0.9-0.4
		c-0.4-0.2-0.2-0.2-0.2-0.6c0-0.3,0-0.7-0.3-0.8c-0.3-0.1-0.1,0.1-0.1-0.4s0-0.5-0.3-0.6s-0.4-0.1-0.5-0.4c-0.2-0.3-0.4-0.9-0.5-1.1
		c-0.1-0.2-0.2,0-0.3,0.2c-0.1,0.2-0.3,0.5-0.3,0.8s0.1,0.5,0.1,0.9c0,0.4-0.3,0.9-0.5,1.1s-0.3,0-0.5,0c-0.2-0.1-0.2-0.3-0.5-0.5
		c-0.3-0.2-1-0.3-1.2-0.6c-0.3-0.3-0.1-0.3,0-0.5c0.1-0.3,0.2-0.5,0.4-0.7c0.2-0.2,0.2-0.2-0.1-0.4s-0.6-0.2-1.1-0.2
		c-0.5,0-0.7,0-0.7,0.2c0,0.3,0.3,0.4-0.1,0.3s-0.7-0.1-0.9,0.1c-0.2,0.2-0.2,0.3-0.3,0.7c-0.1,0.4,0,0.4-0.1,0.4
		c-0.2,0-0.8-0.3-1-0.4s-0.3-0.1-0.6,0.1s-1.1,1-1.4,1.2C894.7,255.2,894.7,255.2,894.3,256.2z M882.4,244.9c-0.2,0-0.3-0.1-0.1,0.2
		c0.2,0.3,0.3,0.4,0.5,0.6c0.2,0.2,0.3-0.1,0.5,0.2s0.1,0.4,0.3,0.6c0.2,0.1,0.3,0.2,0.4,0.3c0,0.1,0.1,0.4,0.3,0.6s0.2,0.1,0.3,0.5
		c0.1,0.3,0.3,0.6,0.4,0.8c0.1,0.3,0.6,0.5,0.9,0.9c0.3,0.3,0.7,0.8,0.8,0.7c0.1-0.1,0.3,0,0.4-0.1s0.2-0.2,0.3-0.7
		s-0.1-0.7-0.2-0.8c-0.1-0.1-0.4-0.1-0.4-0.2c-0.1-0.1-0.2-0.4-0.3-0.6s-0.2,0-0.2-0.3c0-0.3,0.2-0.2,0-0.4s-0.2-0.3-0.3-0.3
		s-0.5-0.2-0.7-0.3c-0.1-0.1-0.7-0.4-0.9-0.6s-0.5-0.4-0.6-0.6C883.5,245.2,883.2,245,882.4,244.9z M887.6,250.3
		c-0.2,0-0.3-0.1-0.5,0.1c-0.1,0.3-0.1,0.3,0.1,0.3s0.2,0.1,0.2,0.1s-0.1,0,0.3,0.2c0.5,0.2,0.8,0.1,0.9,0s0.2,0.2,0.8,0.3
		c0.6,0.1,1-0.1,1.4,0c0.4,0.1,0.3-0.1,0-0.3c-0.3-0.2-0.3-0.1-0.5-0.3c-0.3-0.2-0.7-0.2-0.9-0.2s0.2,0.2-0.4,0.1
		c-0.6-0.1-0.4,0.1-0.7-0.1c-0.3-0.2-0.3-0.2-0.5-0.3C887.7,250.2,887.6,250.3,887.6,250.3z M892.2,251.2c-0.2,0.1-0.5,0.1-0.3,0.2
		c0.2,0.1,0,0.1,0.5,0.1c0.5,0,0.9-0.1,1-0.2c0.1-0.1-0.1,0-0.3-0.1s-0.2,0-0.5,0.1C892.3,251.3,892.2,251.2,892.2,251.2z
		 M893.8,251.2c-0.3,0-0.3,0.1,0,0.2c0.2,0.1,0.5,0.1,0.7,0.1s0.2-0.1,0.6-0.2s0.5-0.1,0.7-0.1c0.3,0,0.3,0,0.3,0s0-0.1-0.2-0.1
		c-0.2,0-0.3,0-0.5,0s-0.5,0.2-0.6,0.2s-0.4-0.1-0.5-0.1C894.2,251.3,894.2,251.1,893.8,251.2z M895.6,251.6
		C895.6,251.6,895.6,251.6,895.6,251.6c-0.2,0.2-0.2,0.2-0.2,0.3c0,0.1,0,0.2,0,0.2s0.3,0,0.6-0.3c0.2-0.2,0.3-0.2,0.5-0.3
		c0.3-0.1,0.5-0.4,0.5-0.4s-0.2,0-0.4,0c-0.2,0-0.4,0.1-0.5,0.2C896,251.4,896.1,251.4,895.6,251.6z M893.7,251.7
		c-0.2-0.2-0.5-0.1-0.5,0c0,0.1-0.2,0.1,0.1,0.2s0.6,0.3,0.6,0.1C894,251.9,893.8,251.8,893.7,251.7z M891.6,244.8
		c-0.1,0.2,0.1,0.1-0.1,0.3s-0.3,0.1-0.5,0.3c-0.2,0.2-0.5,0.4-0.6,0.5c-0.1,0.1-0.5,0.2-0.7,0.4s0.1,0.4,0.1,0.4s-0.1,0.1-0.4-0.1
		c-0.3-0.1-0.3-0.2-0.3-0.2s-0.2,0-0.3,0.3c-0.1,0.3-0.2,0.3,0,0.5c0.2,0.2-0.1,0.2-0.1,0.3c0,0.1,0,0.4,0.2,0.4
		c0.1,0,0.2-0.1,0.3,0.1c0.2,0.2,0,0.7,0.2,0.8c0.2,0,0.3-0.1,0.5,0s0.3,0.1,0.5,0.1c0.2-0.1,0.5,0,0.6,0.1s0.5,0.2,0.7,0.2
		c0.2,0,0.2,0,0.3-0.3c0-0.3,0-0.6,0.3-0.8c0.2-0.2,0.3-0.2,0.3-0.4c0-0.2,0-0.4,0.2-0.6c0.2-0.2,0.2,0.1,0.3,0
		c0.1-0.2,0.2-0.2,0.1-0.2c0-0.1-0.3-0.1-0.4-0.2c-0.1-0.2,0-0.2-0.1-0.6c-0.1-0.3-0.2-0.2,0-0.4c0.2-0.2,0.3-0.2,0.3-0.4
		c0-0.1,0.1-0.1,0.3-0.3s0-0.1-0.2-0.2c-0.2-0.1-0.5-0.6-0.7-0.6C892.2,244.1,891.7,244.6,891.6,244.8z M918,262.5
		c-0.1-0.1-0.2,0,0,0.2c0.2,0.2,0.2,0.2,0.3,0.2c0.1,0,0.2,0.5,0.3,0.6c0.1,0.1,0.2,0.3,0.2,0.3s0.1,0.5,0,0.7s-0.2,0.3-0.2,0.5
		s0.2,0.1,0.4,0.2c0.2,0.1,0.1,0.1,0.1,0.2s-0.2,0.3-0.2,0.3s0.4,0.2,0.5,0c0.2-0.2,0.5-0.6,0.6-0.8s-0.1-0.1,0.1-0.3
		s0.2-0.1,0.4-0.3c0.1-0.2,0.3-0.4,0.1-0.6s-0.3,0.1-0.5,0.2c-0.1,0-0.2,0.1-0.4,0s-0.2-0.1-0.3-0.3c-0.1-0.2-0.2-0.3-0.2-0.3
		s0,0.3-0.2,0.2c-0.1-0.1-0.1-0.2-0.2-0.4c-0.1-0.2-0.1-0.2-0.2-0.3c-0.1-0.1,0-0.3-0.3-0.4C918,262.5,918.1,262.5,918,262.5z
		 M918.1,265.5c0,0-0.2,0.2-0.5,0.5c-0.2,0.3-0.3,0.4-0.3,0.6c-0.1,0.2-0.3,0.4-0.8,0.6s-0.6,0.3-0.7,0.5c-0.1,0.2-0.7,0.9-0.7,0.9
		s0.2,0.1,0.5,0.1s0.8,0.3,1.1,0s0.5-1,0.7-1.2c0.2-0.2,0.3-0.3,0.6-0.6c0.3-0.2,0.7-0.7,0.7-0.9c0-0.2-0.1-0.5-0.1-0.5
		s-0.1,0.2-0.3,0.2C918,265.8,918.1,265.5,918.1,265.5z M916,268.7c-0.3-0.2-0.4,0.1-0.4,0.5c0,0.3,0.1,0,0.4-0.1
		C916.2,268.9,916.1,268.7,916,268.7z M905.3,266.5c-0.3-0.1-0.3,0.2-0.2,0.5c0,0.2,0.1,0.5,0.3,0.7c0.1,0.2,0.6,0.3,0.8,0.2
		s0.3-0.4,0.5-0.7s0.3-0.6,0.2-0.8c0-0.2-0.3,0.2-0.5,0.2c-0.2,0.1-0.4,0.3-0.7,0.2C905.5,266.7,905.5,266.5,905.3,266.5z
		 M900.9,248.6c-0.3,0.1-0.4-0.2-0.7-0.7c-0.2-0.5-0.4-0.6-1-0.3s-0.5,0.2-0.1,0.3c0.4,0.1,0.5,0.2,0.5,0.2s0.6,0.1,0.5,0.2
		c-0.1,0.1-0.7,0.2-0.3,0.4c0.3,0.2,0.2,0.1,1.1,0.5s1,0.1,1.3,0.7c0.3,0.6,0.3,0.5,0,0.6c-0.2,0.1-0.5,0.3-0.4,0.3
		c0.1,0,0.4,0.1,1,0.1c0.6,0,0,0.4,0.7,0.4c0.7,0,0.9-0.2,1.1-0.5c0.3-0.3,0.3-0.1,0.9,0c0.6,0.1,0.8,0.6,1.5,0.8
		c0.7,0.2,1,0.5,0.6,0.1s-0.6-0.7-1.2-1.2s-0.6-0.5-0.8-0.9s-0.8-0.8-1.5-1.1s-1.1-0.3-1.9-0.6C901.3,247.7,901.2,248.6,900.9,248.6
		z M896.2,247c-0.3,0.2-0.3,0.1-0.5-0.1c-0.2-0.1-0.1,0.3-0.6,0.1c-0.5-0.2-0.6-0.3-1.1,0c-0.5,0.4-0.2,0.5-0.2,0.8
		s-0.4,0.9-0.5,1.2c-0.1,0.3-0.1,0.4,0,0.5s0.3,0.1,0.3,0.2c0.1,0.1,0,0.7-0.1,0.9c-0.1,0.2,0.2,0.3,0.5,0.2c0.3-0.1,0-0.1,0-0.3
		s0.1-0.3,0.1-0.8c0-0.4,0-0.6,0-0.6s0.1,0,0.2,0.1c0.1,0.1,0.2,0.6,0.4,0.8c0.1,0.2,0.2,0.4,0.4,0.2s0.4-0.3,0.4-0.3
		s-0.4-0.1-0.4-0.2c0-0.1,0.2-0.2-0.1-0.6c-0.3-0.4-0.4-0.4-0.1-0.5s0.3-0.3,0.5-0.4c0.2-0.1,0.5-0.1,0.5-0.1s-0.2-0.2-0.5-0.1
		c-0.3,0.1-0.5,0.1-0.8,0.3c-0.2,0.1-0.5,0.2-0.5,0s-0.1-0.3,0-0.6c0-0.3,0.4-0.1,0.7-0.2c0.3-0.1,0.3-0.1,0.9,0s0.7-0.1,0.9-0.4
		s0.3-0.6,0.3-0.6S896.5,246.8,896.2,247z M897.7,246.1c0.1-0.1-0.5,0.4-0.6,0.4s0,0.2,0.1,0.4c0.1,0.1,0,0.6,0.1,0.7
		s0.3,0.2,0.3,0.2s0-0.3,0.1-0.4c0.1-0.1,0-0.3,0-0.6C897.7,246.5,897.5,246.4,897.7,246.1z M896.7,248.8c-0.4-0.2-0.6-0.1-0.6,0.2
		s0,0.3,0.4,0.3C896.9,249.3,897.4,249.1,896.7,248.8z M897.5,248.6c-0.1,0-0.2,0.4-0.2,0.6c0.1,0.2,0.1,0.1,0.4,0s0.2-0.2,0.5-0.2
		c0.3,0,0.9,0.2,0.9,0.2s0.1-0.1-0.3-0.4C898.2,248.4,898,248.5,897.5,248.6z M889.3,238.1c0,0-0.4,0-0.5,0s-0.2,0.2-0.3,0.2
		s-0.1,0.1,0,0.3c0.1,0.2,0.2,0.2,0.4,0.2s0.1-0.1,0.3-0.1s0.2-0.2,0.2-0.3c0-0.1,0.1-0.2,0.2-0.2c0,0-0.1-0.2-0.1-0.2
		C889.4,238,889.3,238.1,889.3,238.1z M894.1,238.6c-0.2-0.1-0.2,0.3-0.3,0.5c0,0.2-0.1,0.4,0,0.5c0.1,0.2,0,0.2,0,0.2l-0.2-0.2
		c0,0-0.1,0.2-0.1,0.4c0,0.2-0.1,0.2,0.2,0.4c0.3,0.1,0.4,0.1,0.4,0.2c0,0.2,0,0.3,0.2,0.3c0.2,0,0.4,0.1,0.5,0.2
		c0.1,0.1,0-0.3,0.2-0.3s0.3,0.2,0.4,0.3c0.1,0.1,0.2,0.1,0.2,0.1s-0.2-0.3-0.1-0.4c0.1,0,0.1-0.1-0.1-0.2c-0.2-0.1-0.4-0.1-0.6-0.1
		c-0.2,0-0.2,0.1-0.3-0.2c-0.1-0.4,0-0.6,0-0.6c0-0.1,0.1,0.1,0.2-0.1c0.1-0.2,0.1-0.4,0.1-0.7c0-0.2,0.2-0.3,0-0.3
		S894.2,238.7,894.1,238.6z M896.3,243.1c0,0.2-0.2-0.1-0.2,0.1s-0.1,0.1-0.2,0.1c-0.1,0.1-0.4,0.3-0.4,0.3s0-0.2,0-0.2
		c0,0-0.1-0.2-0.2-0.1c-0.1,0.1-0.2,0.2-0.3,0.3s-0.3,0.2-0.3,0.4c0,0.2,0.1,0.2,0.1,0.2s0.1-0.1,0.2-0.2c0.1-0.2,0.2-0.2,0.4-0.2
		s0.2,0,0.3,0.1c0.1,0.1,0,0.3,0,0.4c0,0.1,0,0.3,0.2,0.4c0.2,0.1,0.1,0,0.3,0c0.2,0,0.2,0,0.2-0.1s-0.1-0.2-0.1-0.3
		c0-0.1,0.1-0.2,0.2-0.2c0,0,0.1,0.1,0.1,0.3s0.1,0.1,0.1,0c0-0.1,0.1-0.4,0.1-0.6c0-0.1,0-0.3,0-0.4c0-0.1-0.1-0.3-0.2-0.3
		c-0.1,0-0.3-0.2-0.3-0.2S896.2,242.9,896.3,243.1z M895.2,242.1c0,0,0-0.1-0.2-0.3s-0.2-0.2-0.5-0.3s-0.6,0-0.5,0.3
		c0.1,0.3,0.2,0.4,0.4,0.4s0.4-0.1,0.4-0.1s0,0.1-0.2,0.2s-0.3,0.4-0.1,0.5c0.2,0.1,0.2,0.3,0.3,0.2c0.1-0.1,0.2-0.4,0.4-0.6
		c0.2-0.2,0.2-0.2,0.3-0.4s0-0.4,0-0.4L895.2,242.1z M895.7,241.5c0,0-0.2,0,0,0.1s0.3,0.2,0.3,0.3s0,0.1-0.1,0.1
		c-0.1,0-0.1,0-0.2,0c0,0,0,0.1,0,0.1c0,0.1,0,0,0.1,0.1c0.1,0.1,0.1,0.2,0.1,0.3s0.1,0.1,0.1,0.1s0-0.3,0-0.4s0-0.2,0.1-0.2
		c0.1,0.1,0.1,0.2,0.2,0.1c0.1-0.2,0-0.4,0-0.5c0-0.1-0.2-0.2-0.3-0.2C895.8,241.5,895.7,241.5,895.7,241.5z M893.4,242.1
		c-0.1,0-0.1,0.1-0.2,0.3c0,0.2-0.2,0.4-0.3,0.5c-0.1,0.1-0.5,0.5-0.5,0.6c0,0.1,0,0,0.2-0.1c0.3-0.1,0.5-0.3,0.5-0.5
		c0-0.2,0-0.1,0.2-0.2c0.2-0.1,0.1-0.1,0.1-0.3S893.5,242,893.4,242.1z M908.2,248.9c0,0.2,0.1,0.3-0.2,0.5
		c-0.2,0.2-0.5,0.2-0.7,0.2c-0.2,0-0.1,0-0.3-0.1c-0.3,0-0.3,0-0.2,0.1s0.1,0.3,0.5,0.3c0.4,0,0.8-0.2,1-0.3s0.2-0.3,0.3-0.4
		C908.7,249.1,908.3,248.6,908.2,248.9z M909.4,249.4c0.1,0.2,0.1,0.1,0.2,0.4c0.2,0.2,0.4,0.2,0.5,0.3s0-0.1-0.1-0.2
		c-0.1-0.2-0.1-0.3-0.3-0.4C909.5,249.2,909.2,249.1,909.4,249.4z M894.3,235.4c-0.6,0.4-0.8,0.3-0.6,0.8c0.2,0.5,0.4,0.7,0.4,0.7
		c0,0.1,0.2-0.1,0.3-0.4c0.2-0.4,0.2-0.8,0.2-1C894.7,235.4,894.5,235.3,894.3,235.4z M904.1,217.4c0.1,0.2,0.1,0.6,0,0.7
		c-0.1,0-0.2,0.3-0.3,0.6c0,0.3-0.1,0.6,0,0.8c0.2,0.2,0,0.2,0,0.4c0,0.2,0,0.6,0,0.9c-0.1,0.3-0.1,0.3-0.1,0.6c0,0.3,0,0.4,0,0.8
		s0,0.8,0,0.9c0,0.2,0.1-0.1,0.2-0.1s0.3-0.1,0.4,0.1s0.1,0.1,0.1,0.1s0.2,0.1-0.1-0.5c-0.3-0.6-0.3-0.5-0.3-1.1
		c0.1-0.6,0.1-0.6,0.4-0.6c0.3-0.1,0.5,0.4,0.5,0.4s0-0.1-0.1-0.5c-0.1-0.3-0.2-0.4-0.2-0.8c0-0.4-0.2-0.8-0.3-0.9
		c-0.2-0.1-0.1-0.3,0-0.5s0.1-0.4,0.1-0.7c0-0.3-0.1-0.7-0.2-0.8s-0.2,0.1-0.2,0.1L904.1,217.4z M903.8,223.8c0,0.2,0,0.4-0.1,0.6
		c-0.1,0.2,0,0.3-0.1,0.6c-0.1,0.3-0.4,0-0.4,0.1s0,0.3-0.1,0.3c-0.1,0.1-0.4,0.1-0.3,0.4c0.1,0.3,0.2,0.6,0.2,0.6s0.2-0.2,0.2-0.2
		c0,0,0.2-0.1,0.2-0.1s0-0.1-0.2-0.2c-0.2-0.1-0.2-0.3-0.2-0.3c0-0.1,0.3,0,0.4,0s0.3-0.1,0.5,0.1c0.2,0.2,0.5,0.2,0.5,0.2
		s0-0.2,0.1-0.4c0.1-0.2,0.3-0.1,0.6-0.2s0.5-0.1,0.4-0.2s-0.1-0.4-0.1-0.5c0-0.2-0.2,0-0.4,0.1c-0.1,0.1-0.3,0-0.5-0.1
		c-0.2-0.1-0.5-0.6-0.6-0.7C904,223.7,903.8,223.6,903.8,223.8z M903,226.5c-0.1,0-0.2,0.3-0.2,0.5c0,0.2,0.2,0,0,0.7
		c-0.3,0.8-0.4,0.9-0.7,1.1c-0.3,0.2-0.5,0.2-0.6,0.1s0-0.2,0.1-0.3c0.1-0.1-0.2-0.1-0.4-0.1s0,0.2,0,0.3s-0.3,0.4-0.2,0.6
		s0,0.2-0.1,0.2c-0.2,0.1-0.3-0.1-0.3-0.1c0,0-0.3,0-0.6,0.1c-0.3,0-0.4,0.1-0.5,0.4c-0.1,0.2-0.5,0.3-0.7,0.4s-0.1,0.4-0.4,0.5
		s-0.2,0.3-0.3,0.5s0.2,0.1,0.2,0c0,0,0-0.2,0.2-0.2c0.2,0,0.2,0,0.1,0.2c-0.1,0.2-0.1,0.3-0.2,0.4c-0.1,0.1,0,0.2,0.2,0.4
		s0.2,0,0.5-0.3s0.3-0.3,0.3-0.6s-0.1-0.3-0.3-0.4s-0.2,0,0-0.2c0.2-0.2,0.3,0,0.4-0.1c0.1-0.1,0.5-0.1,0.8-0.2
		c0.3-0.1,0.6-0.2,0.7-0.1c0,0.1,0.1,0.5,0.1,0.5c0,0.1,0.2-0.1,0.5-0.2c0.2-0.1,0-0.1,0-0.3s0.1-0.2,0.1-0.2s0.1,0.2,0.5,0.1
		s0.4-0.2,0.5-0.2c0.1,0,0.2,0.1,0.3,0c0.2-0.1,0.2,0,0.2,0.1c0,0.1,0.4-0.1,0.5-0.2c0.1-0.1,0,0,0-0.3c0-0.3-0.2-0.3-0.1-0.6
		c0.1-0.3,0-0.4,0.1-0.6s0.1-0.2,0.2-0.3c0,0,0-0.3,0.2-0.4c0.1-0.1,0.1-0.2,0.1-0.6s-0.2-0.3-0.2-0.5s0-0.5,0-0.5s-0.4,0.1-0.4,0.2
		s0,0.1,0,0.1S903.2,226.5,903,226.5z M900.5,230.3c-0.4,0.1-0.7,0.1-0.9,0.2c-0.2,0.1-0.3,0.2-0.2,0.4c0,0.2,0.1,0.5,0.2,0.6
		c0,0.1,0.2,0,0.4-0.1c0.2-0.1,0.2-0.5,0.4-0.5c0.2,0,0.1,0.2,0.4-0.1c0.3-0.3,0.1-0.4,0.1-0.5C900.8,230.1,900.5,230.3,900.5,230.3
		z M925.6,211.8c-0.4-0.1-0.5-0.2-0.6,0c0,0.1-0.1,0.2,0.2,0.3s0.4-0.1,0.7,0.1s0.3,0.2,0.5,0.1c0.2,0,0.3-0.1,0.3-0.1
		S925.9,211.9,925.6,211.8z M920.7,205.1c-0.2,0-0.3-0.1-0.2,0.3c0,0.4,0.1,0.4,0.6,0.4c0.5-0.1,0.1,0,0.8-0.1s0.8-0.1,0.8-0.1
		s-0.1-0.2-0.3-0.4s-0.5,0.1-1,0S920.7,205.1,920.7,205.1z M905.6,199.5c0,0.1,0.7,0.6,0.9,0.7c0.2,0.1,0.4,0.1,0.9,0
		c0.5-0.1,0.5-0.3,0.6-0.4c0.1-0.1-0.2-0.1-0.6-0.1c-0.3-0.1-0.6,0.1-0.7,0s0.2-0.1-0.1-0.2c-0.3-0.1-0.4,0-0.4,0
		c-0.1-0.1-0.1-0.2-0.2-0.2S905.6,199.4,905.6,199.5z M903,200.4c-0.2,0.1-0.2,0.2,0,0.4c0.3,0.2,0.2,0.2,0.1,0.3
		c-0.1,0.2,0,0,0.4,0.2s0.5,0.5,0.8,0.5c0.2,0.1,0.4,0,0.4,0s-0.1-0.2-0.3-0.6s-0.7-0.4-0.8-0.6C903.5,200.3,903.3,200.2,903,200.4z
		 M905.4,199.1c0,0-0.3-0.2-0.9-0.5c-0.5-0.3-0.7-0.4-0.9-0.4c-0.2,0-0.2,0.2-0.2,0.3c-0.1,0.2-0.1,0.1-0.4,0s-0.5-0.3-0.8-0.4
		c-0.3-0.1-0.4,0.2-0.8,0.5c-0.3,0.3-0.1,0.4,0.2,0.9s0.5,0.5,0.9,0.3c0.3-0.2,0.2-0.3,0.4-0.2c0.2,0.1,1-0.1,1-0.1
		c0,0,0,0.4,0.3,0.3c0.3-0.1,0.6-0.2,0.8-0.3C905.3,199.3,905.4,199.1,905.4,199.1z M882.2,190.2c-0.1,0.1-0.7,0-1,0.5
		c-0.3,0.5-0.5,0.1-0.7,0.4s-0.3,0.6-0.3,0.6s0.3,0.3,0.5,0.3c0.3,0,0.8,0.1,1.1,0.5c0.3,0.4,0.5,0.4,1.2,0.5
		c0.7,0.1,0.4,0.2,0.7,0.2s0.8,0,0.7-0.1c-0.1-0.2-0.2-0.3-0.1-0.6c0-0.3,0.4-0.3,0-0.6s-0.6,0-0.6-0.1c0,0,0.3-0.2,0.2-0.2
		c-0.1,0-0.7,0-0.8-0.4s0.2-0.4,0.3-0.4c0.1,0,0.1-0.1-0.3-0.3c-0.4-0.3-0.8-0.5-0.8-0.5C882.1,190.1,882.3,190.1,882.2,190.2z
		 M885.5,192.7c-0.3,0.1-0.5,0.3-0.6,0.5c-0.2,0.2-0.5,0.6-0.6,0.7c-0.2,0.1-0.1,0.2,0.2,0.3s0.8-0.2,1-0.2c0.2,0,0.3,0.2,0.8,0.2
		s1.2-0.1,0.9-0.4c-0.4-0.3-0.2-0.1-0.6-0.4c-0.4-0.3-0.9-0.3-0.9-0.3s0.8-0.3,0.6-0.3C886,192.7,885.5,192.7,885.5,192.7z
		 M864.9,188.6c-0.5,0.2-0.3,0.2-0.6,0.5c-0.3,0.2-0.1,0.3,0.5,0.1c0.7-0.2,0.7-0.2,1.1-0.4C866.4,188.7,865.6,188.4,864.9,188.6z
		 M865.9,189.8c-0.4,0.2-0.3,0.4-0.2,0.6c0.1,0.2,0.4-0.1,0.5,0.1c0.1,0.2,0.1,0.1,0.5-0.2c0.4-0.3,0.3-0.2,0.1-0.5
		C866.7,189.5,866.7,189.5,865.9,189.8z M863.5,189.7c-0.3,0.1-0.3,0.1,0,0.2c0.3,0.1,0.9,0.2,1.2,0c0.3-0.2,0.3-0.2-0.1-0.2
		C864.2,189.6,863.8,189.5,863.5,189.7z M859.3,190.2c0.4,0,0.8-0.1,1.2,0s0.2,0.3-0.4,0.4c-0.6,0.1,0.1,0.2,0.5,0.1
		s0.2-0.4,0.5-0.5s0.6-0.1,1.1-0.2s-0.3-0.3-0.8-0.3c-0.5,0-0.7,0-1.2,0s-0.8,0.2-1.3,0.2C858.1,190.1,858.9,190.2,859.3,190.2z
		 M862.8,190.3c-0.4,0-1.3,0.2-0.5,0.3c0.8,0.1,0.7,0.1,1,0C863.6,190.5,863.2,190.3,862.8,190.3z M865.5,190.5
		c-0.5-0.2-0.6-0.1-1-0.1s-0.6,0.3-0.3,0.4c0.3,0.1,0.5,0.1,0.7,0c0.2,0,0.2-0.1,0.1-0.2C864.8,190.6,865.8,190.6,865.5,190.5z
		 M867.8,189.8c-0.4,0.1-0.4,0.1-0.5,0.3c0,0.1,0.1,0.1,0.5,0.1s0.7-0.1,0.9-0.3c0.3-0.2-0.1-0.5-0.1-0.6s-0.4,0.2-0.5,0.3
		C868,189.6,868.2,189.7,867.8,189.8z M834.9,213.7c-0.2,0.6-0.6,0.9-0.2,0.7s0.8-0.7,0.8-0.2c0,0.4-0.4,0.4-0.3,0.8
		c0.1,0.4,0,0.4,0.7,0.5c0.7,0.1,0.1,0.1,0.3,0.5s0.3,0.5,0.1,0.6c-0.2,0.1-0.7-0.4-0.7-0.2c0,0.2,0.1,0.4,0.2,0.6
		c0.1,0.3-0.1,0.4-0.5,0.6c-0.4,0.2,0,0.3,0.2,0.3c0.3,0,1.1-0.2,1,0.1c-0.1,0.3-0.5,0-0.8,0.4c-0.3,0.4-1.2,0.8-0.7,0.8
		c0.5,0,0.4-0.2,1.9-0.4c1.5-0.2,0.5,0,1.5-0.3s0.7-0.4,0.1-0.3s0.4-0.5,0.2-1.1s-0.5,0-0.7-0.4c-0.2-0.4-0.2-0.5,0.2-0.3
		s0.4-0.1-0.5-0.6c-0.8-0.6-0.3-0.4-0.7-0.9c-0.4-0.5-1-0.4-1-0.4s0.3-0.2,0.5-0.5s0.2-0.3,0.4-0.7c0.2-0.4-0.2-0.4-0.6-0.3
		c-0.5,0.1-0.6,0.1-0.5,0c0.1-0.2,0.2-0.2,0.4-0.5c0.2-0.2,0.2-0.3-0.1-0.2s-0.5,0.1-0.8,0.2C834.8,212.8,835.1,213.2,834.9,213.7z
		 M833.9,215.1c-0.7,0.3-0.5,0.4-0.4,0.6c0.1,0.1,0.3-0.1-0.3,0.3c-0.6,0.4-0.7,0.8-0.3,0.9c0.3,0.1,0.3-0.2-0.1,0.5
		c-0.4,0.7-0.6,1.1,0.1,1s0.9-0.6,1.3-0.6c0.3-0.1,0.4-0.3,0.4-0.7s-0.2-0.4,0-0.8c0.3-0.4,0.3-0.7-0.2-0.9
		C833.9,215.1,834.3,214.9,833.9,215.1z M842.5,224.5c0,0.1,0,0.4-0.2,0.5c-0.3,0.2,0.1,0.3,0.2,0.5c0.1,0.2,0.2-0.6,0.2-0.9
		C842.7,224.3,842.6,224.2,842.5,224.5z M842.4,225.9c-0.5,0.2-0.5,0.4-0.5,0.7c0,0.3,0.4,0.1,0.3,0.4c-0.1,0.3,0,0.5,0.5,0.2
		c0.5-0.3,0.2-0.5,0.3-0.9C842.9,225.9,843,225.6,842.4,225.9z M849.4,229.6c-0.4,0-0.6,0.2,0.1,0.3c0.7,0.1,1,0.1,1.2,0
		c0.2-0.1,0,0-0.3-0.2C850.1,229.4,849.9,229.6,849.4,229.6z M853.2,229.8c-0.5-0.1-0.4,0.6,0.2,0.4s0.3,0,0.6-0.4
		C854.2,229.5,853.8,229.9,853.2,229.8z M839.5,226.7c-0.5,0.1-0.5,0.2-0.1,0.3s0.3,0,0.5-0.2S839.7,226.7,839.5,226.7z
		 M812.4,218.5c-0.3,0.2-0.6,0.5-1,1.2c-0.4,0.7-0.3,0.6-0.7,1c-0.4,0.4-0.2,0.3,1,0.5s1.1,0.4,1.3,0.3c0.3-0.1,0.3,0.1,0.3,0.4
		s0.2,0.1,0.4-0.3c0.1-0.4-0.1-1.1-0.4-1.4s-0.3-0.4-0.7-0.3s-0.3-0.1-0.4-0.4s-0.3-0.1,0-0.5C812.6,218.7,812.7,218.3,812.4,218.5z
		 M776.8,217.7c0,0.4,0.4,1,0.7,1.2c0.3,0.2,0.2,0.1,0.1-0.4s0-0.4-0.1-0.7C777.4,217.6,776.8,217.6,776.8,217.7z M778.7,219.8
		c0.1,0.1,0.3,0.4,0.7,0.7s0.5,0.3,1,0.4c0.4,0.1,0.6,0,0.3-0.3c-0.3-0.2,0-0.2-0.5-0.3c-0.5-0.1-0.6-0.1-0.9-0.2
		C779.1,219.9,778.5,219.6,778.7,219.8z M767.8,215.6c-0.3-0.1-0.5-0.1-0.7,0.1c-0.2,0.2-0.3,0.3-0.2,0.5c0.1,0.2,0,0.1,0.3-0.1
		c0.3-0.2,0.2-0.2,0.5-0.3c0.4-0.1,0.3-0.2,0.3-0.2S768,215.7,767.8,215.6z M767.7,215.2c-0.2,0.1-0.3,0.2,0,0.2s0.2-0.2,0.4-0.2
		c0.2,0,0.2,0,0.2,0S767.9,215.1,767.7,215.2z M761.5,214.2c-0.3,0.1-0.6,0-0.4,0.1c0.2,0.1,0.4,0.2,0.6,0.2s0.3,0,0.2-0.1
		s-0.1-0.1-0.1-0.2C761.9,214,761.8,214.1,761.5,214.2z M860.5,254.9c-0.3,0.8-1.1,0.4-1.6,0.9c-0.6,0.6-0.5,0.4,0,1.2
		c0.4,0.8-0.4,0.7-0.5,1.6c-0.2,0.9,0.2,0.7,0.5,1.5c0.2,0.8,0.3,0.5,0.8,0.4s0.7-0.3,0.7-0.3s0.1-0.7,0.4-1.6
		c0.3-1,0.5-1.7,0.5-2.4c0-0.7,0.1-1.1,0.2-0.9s0.2,0.2,0.2-0.1c0-0.3-0.2-1.2-0.5-1.4C860.6,253.4,860.8,254.1,860.5,254.9z
		 M861,203.7c-0.5,0.1-0.7,0.4-0.3,0.5c0.3,0.1,0.3,0.1,0.9-0.1C862,203.8,861.4,203.6,861,203.7z M869.7,195.2
		c-0.2-0.2-0.3,0.1-2,0.8s-1.6,0.1-3.2,1.3c-1.5,1.2-1.2,1.1-1.3,1.8c-0.1,0.7-0.5,0.4-0.6,1.1c-0.1,0.7-0.9,0.7-0.5,1.2
		s0.9,0.9,1.7,1.1c0.8,0.2,1,0,0.9-0.1c-0.2-0.1-0.8-1.1-0.7-2.2c0.1-1.1,0.5-0.9,0.9-1.4c0.4-0.4,1.3-1.5,1.9-1.9
		c0.6-0.4,2.2-0.9,3-1.1c0,0,0,0,0.1,0C870.5,195.2,869.9,195.4,869.7,195.2z M865.3,202.7c-0.2,0-0.3,0,0.1,0.4s0.7,0.6,0.5,0.1
		C865.8,202.7,865.5,202.6,865.3,202.7z M871.2,199.3c-0.3-0.1-0.4-0.2-0.5-0.1s0.3,0.5,0.6,0.5
		C871.7,199.8,871.4,199.4,871.2,199.3z M809.6,220.2c-0.4-0.2-0.8-0.4-1-0.4c-0.3,0,0,0.3,0.5,0.5
		C809.5,220.6,809.8,220.3,809.6,220.2z M808.7,221.9c0-0.3-0.2,0.4,0.1,0.5c0.3,0.2,0.5,0.2,0.6,0s0-0.1-0.2-0.1
		C808.9,222.3,808.7,222.2,808.7,221.9z M925.8,210.4c-0.5,0.1-0.8-0.1-0.8-0.1s0,0.4-0.2,0.6c-0.2,0.2,0,0.4,0,0.4
		s-0.5-0.2-0.8-0.3c-0.3-0.1-0.5,0-0.7-0.4c-0.2-0.4-0.6-0.4-1-0.4s-0.3-0.5-0.3-0.5s0,0-0.2,0s-0.2,0.6-0.5,0.7
		c-0.3,0.2-1.2,0.3-1.2,0.3s0.6,0.4,0.7,0.8s0.3,0.7,0.3,0.7s0,0.2-0.8,0c-0.7-0.1-0.7,0.1-1.4,0.4s-1.6,0.8-1.8,1
		c-0.2,0.2-0.2,0.1-0.9-0.1c-0.7-0.2-0.8,0.2-1,0.3c-0.2,0.1-0.1-0.4-0.1-0.4s-0.2,0-0.5,0.1c-3.1,1.6-1,1.5-1,1.8l-0.3,1.2
		c-0.5,1.3-0.8,0.6-1.1,1.7c-1.2,3.4-1.9-0.5-1.9-1.4c0-0.6-0.1-1.3,0.2-1.4c3-1.4,0.3-0.2,3.1-2.1c0.9-0.6,0.4-1,0.6-1.2
		s0.5-0.2,0.5-0.2s0,0-0.5-0.1s-0.5,0.1-0.9,0.5c-0.4,0.4-0.7,0.5-0.6,0.2c0.1-0.3,0.1-0.7-0.2-0.5c-0.3,0.2-0.4,0.1-1,0.3
		s-1.1,0.4-1.6,1c-0.5,0.6-0.2,0.6,0,0.7c0.2,0.1-0.8,0.1-1.2,0.1c-0.5,0-0.2-0.1,0-0.2c0.3-0.1-0.4-0.2-1-0.3
		c-0.6-0.1-0.4,0.1-0.7,0.2c-0.3,0.1-0.3-0.1-0.5-0.2c-0.2,0-1-0.1-1.5-0.1s-0.5,0-0.7,0.2c-0.2,0.2-1.2,1.1-1.6,1.6
		c-0.4,0.5-1,0.6-1.5,1.1c-0.5,0.5-0.6,0.4-0.2,0.5c0.4,0.1,0.5,0,0.5,0.4c0.1,0.4,0.3,0.5,0.7,0.5c0.4,0,0.3,0.1,0.4-0.2
		s-0.1-0.7,0.3-0.4c0.4,0.3,0.7,0.5,0.8,0.9c0.1,0.4,0,0.7-0.2,1.4c-0.2,0.7-0.2,1.7-0.5,2.2c-0.2,0.5-0.5,0.9-0.7,1.4
		c-0.3,0.6-1.7,1.9-2,2.1s-0.5,0.1-0.7-0.1c-0.2-0.3-0.2-0.2-0.6,0.1s-0.5,0.5-0.6,1s-0.4,0.5-0.7,0.9s-0.4,0.3-0.2,0.7
		c0.2,0.4,0.6,0.9,0.6,1.3c0,0.4-0.2,1-0.3,1.3c-0.2,0.3-0.8,0.4-0.8,0.3s0-0.8,0-1.1s-0.3-0.4-0.2-0.5c0.1-0.1,0.5-0.3,0.2-0.6
		c-0.3-0.3-0.5,0-0.6-0.4c-0.1-0.3,0-0.6,0-0.7c-0.1-0.1-0.3-0.2-0.7-0.3c-0.4,0-0.5,0.4-0.6,0c-0.1-0.4,0-0.4-0.2-0.6
		c-0.2-0.1-0.3-0.1-0.8,0.4c-0.5,0.4-0.6,0.3-1,0.5c-0.4,0.2-0.4,0.3-0.3,0.4s0.4,0.7,0.7,0.8s0.5-0.1,0.9-0.1s0.5,0.1,0.4,0.2
		s-0.4,0.3-0.9,0.9c-0.5,0.5-0.4,0.4-0.2,0.6c0.2,0.2,0.4,0.5,0.6,0.9c0.2,0.4,0,0.6,0,0.8s-0.1,0.6,0.3,1c0.3,0.4,0.1,0.2,0.1,0.4
		s-0.6,1.2-0.9,1.8s-0.3,0.6-1.1,1.2s-1.3,0.7-1.7,0.8s-0.9,0.2-1.1,0.3c-0.2,0.1-0.2,0.3-0.2,0.4c0,0.1-0.3,0-0.2-0.2
		c0-0.2,0-0.3-0.1-0.4c-0.1-0.1-0.5-0.2-0.9,0.2c-0.4,0.4-0.9,0.4-1,0.9c-0.2,0.5-0.1,0.3,0,0.5s1,1,1.2,1.4
		c0.2,0.4,0.2,0.8,0.3,1.2c0,0.5-1,1.4-1.4,1.6c-0.4,0.3-0.5,0.6-0.5,0.1c0.1-0.4-0.2-0.7-0.5-1.1s-1.2-0.6-1.4-0.6s0.1-0.3,0-0.3
		s-0.4-0.1-0.4,0.4c0,0.4-0.3,0.3-0.3,0.7c-0.1,0.4-0.2,0.9,0.1,0.9s0.2,0.4,0.4,0.9s0.1,0.2,0.7,0.6c0.5,0.4,0.4,0.4,0.5,0.8
		s0.1,0.7,0.3,1.1c0.3,0.4,0.3,0.5-0.2,0.3c-0.4-0.2-0.8-0.5-1-0.8c-0.2-0.3-0.3-1-0.4-1.3s-0.8-0.8-1.1-1s-0.1-0.4,0-1
		c0.1-0.6,0-1.1-0.1-1.5c0-0.4-0.3-1.3-0.5-1.7c-0.1-0.3-0.1-0.3-0.3,0c-0.2,0.3-0.4,0.5-0.6,0.5s-0.5,0-0.5-0.2s0.2-0.6,0.2-0.8
		s-0.2-0.8-0.5-1s-0.6-0.5-0.8-1c-0.2-0.5-0.2-0.4-0.6-0.1c-0.3,0.3-1.2,0.3-1.5,0.3c-0.4,0-0.1,0.2-0.2,0.4
		c-0.1,0.2-0.5,0.4-1.5,1.4c-0.9,0.9-1,1-1.3,1.1c-0.2,0.1-0.4,0.1-0.4,0.5s0,0.6,0,0.9c0,0.4-0.2,0.5-0.2,0.7s-0.2,0.6-0.2,0.8
		c0,0.2-0.2,0.4-0.5,0.7c-0.3,0.2-0.3,0.2-0.4-0.1c-0.1-0.3-0.8-1.5-1.4-2.6c-0.6-1.1-0.4-1.3-0.5-1.6c0-0.3-0.1-2.3,0-2.4
		c0-0.1-0.3,0.2-0.3,0.4c-0.1,0.2-0.1,0.4-0.4,0.4s-0.4,0-0.7-0.3s-0.4-0.5-0.4-0.5c0,0,0.4,0,0.6-0.1c0.2-0.1,0.1-0.2,0.1-0.2
		s-0.2,0-0.5,0c-0.3,0-0.1-0.1-0.5-0.2c-0.3-0.1-0.4-0.1-0.5-0.3c-0.1-0.1-0.1-0.4-0.2-0.5c0-0.1-0.1-0.1-0.2-0.3
		c-0.1-0.1-0.2,0-0.6,0c-0.4,0-0.3,0-0.7,0.2c-0.5,0.2-0.5,0.1-1,0.1c-0.5,0-0.9-0.2-1.1-0.3c-0.2-0.1-0.3-0.1-0.7-0.1
		s-0.3-0.2-0.4-0.4c-0.1-0.2-0.2-0.2-0.7-0.2s-0.5,0-0.8-0.1c-0.3-0.1-0.3-0.2-0.5-0.4c-0.2-0.2-0.2-0.1-0.3-0.2s-0.3-0.3-0.4-0.6
		s-0.1-0.4-0.2-0.6c-0.1-0.1-0.1-0.1-0.6-0.1s-0.2,0-0.3,0.1s-0.2,0.2-0.3,0.4s0.1,0.4,0.3,0.6c0.2,0.2,0,0.2,0.3,0.5
		c0.3,0.3,0.2,0.3,0.4,0.7c0.2,0.4,0.3,0.5,0.4,0.7c0,0.1,0.1-0.1,0.1-0.2c0-0.1,0-0.5,0-0.5s0.1,0.2,0.2,0.5c0.1,0.3,0,0.3,0.1,0.5
		c0,0.2,0,0.2,0.3,0.2c0.3,0,0.5,0,0.9-0.1c0.4-0.1,0.5-0.4,0.7-0.5c0.2-0.1,0.2-0.4,0.3-0.4s0,0.4,0.1,0.7c0.1,0.2,0.1,0.2,0.4,0.3
		s0.3,0.2,0.6,0.3s0.1,0.1,0.2,0.4c0.1,0.3,0.1,0.1,0.3,0.2c0.1,0.1,0.1,0,0,0.3c-0.1,0.3-0.1,0.3-0.3,0.6s-0.2,0.2-0.3,0.2
		c0,0-0.1-0.2-0.1-0.2s-0.2,0.3-0.2,0.7c0,0.4,0.1,0.2-0.3,0.4c-0.4,0.2-0.7,0.2-0.8,0.4c-0.2,0.1-0.2,0.3-0.3,0.4
		c-0.1,0.1-0.2,0-0.5,0.1c-0.3,0.1-0.2,0.1-0.5,0.3s0,0.2-0.3,0.3c-0.3,0.1-0.9,0.4-1.2,0.4s-0.2,0.1-0.3,0.2
		c-0.1,0.1-0.1,0.2-0.4,0.2c-0.4,0.1-0.8,0.1-1,0.2c-0.2,0.1-0.5,0.4-0.8,0.3c-0.2-0.1-0.2-0.1-0.2-0.3c-0.1-0.2-0.1-0.4-0.2-0.7
		c0-0.3-0.2-0.9-0.3-1.2c-0.2-0.3-0.2-0.4-0.4-0.7c-0.2-0.4-0.4-0.6-0.5-0.8s-0.3-0.1-0.4-0.2c-0.1-0.1,0-0.4-0.1-0.7
		s-0.2-0.6-0.3-0.7c-0.1-0.2-0.3-0.4-0.5-0.7c-0.2-0.4-0.2-0.4-0.5-0.9c-0.3-0.5-0.4-0.6-0.6-1s-0.1-0.3-0.1-0.5s-0.2,0.4-0.4,0.4
		c-0.1,0.1-0.2,0.1-0.3-0.3c-0.1-0.3-0.2-0.6-0.3-0.5c-0.1,0.1-0.2,0.2,0,0.6c0.1,0.3,0.2,0.3,0.3,0.6c0.2,0.3,0.6,1.1,0.7,1.5
		c0.2,0.3,0.1,0.2,0.3,0.7c0.2,0.5,0.2,0.6,0.5,0.8c0.2,0.2,0.2,0.1,0.3,0.4c0.1,0.3,0.1,0.7,0.1,0.9c0,0.2,0.1,0.3,0.4,0.5
		c0.2,0.2,0.1,0.1,0.2,0.4c0.1,0.2,0.2,0.5,0.3,0.8s0.2,0.4,0.3,0.5c0.2,0.1,0.2,0.1,0.5,0.2c0.2,0.1,0.1,0.1,0.3,0.3
		s0.4,0.3,0.6,0.6c0.2,0.3,0,0.2,0,0.4s-0.1,0.1,0,0.3c0.1,0.1,0.3,0.2,0.7,0.5c0.3,0.2,0.1,0.1,0.4,0.1c0.3,0,0.4-0.1,0.7-0.2
		c0.3-0.1,0.8-0.2,1.2-0.3c0.4-0.1,0.8-0.2,1-0.2c0.2-0.1,0.2,0.2,0,0.5c-0.2,0.4-0.2,0.6-0.4,0.9c-0.1,0.3-0.2,0.3-0.3,0.5
		c-0.1,0.2-0.8,1.2-0.9,1.5s-0.3,0.5-0.5,0.8c-0.2,0.2-0.8,0.7-1.1,0.9c-0.3,0.2-0.2,0.2-0.4,0.5c-0.2,0.3-0.9,1.1-1.1,1.3
		c-0.2,0.3-0.3,0.4-0.4,0.6c-0.1,0.3-0.5,0.6-0.5,0.9c0,0.2-0.2,0.2-0.1,0.4s0.2,0.2,0.3,0.4c0.1,0.2-0.2,0.5,0,0.9
		c0.2,0.4,0,0.1,0.3,0.4c0.2,0.3,0.2,0.5,0.2,1c0,0.5,0,0.9,0,1.2s-0.2,0.5-0.3,0.8c-0.1,0.3-0.7,0.5-1,0.6s-0.3,0.1-0.5,0.3
		c-0.2,0.2-0.6,0.6-0.7,0.9c-0.2,0.3-0.3,0.2-0.2,0.4s0.2,0.4,0.3,0.8c0.2,0.3,0,0.3,0,0.6c0,0.3,0,0.2-0.1,0.6s-0.5,0.4-0.9,0.5
		c-0.5,0.2-0.3,0.1-0.3,0.4c0,0.2,0,0.8,0,1c0,0.3-0.2,0.2-0.4,0.5s-0.4,0.5-0.6,1s-0.2,0.4-0.6,0.7s-0.6,0.4-0.8,0.7
		s-0.3,0.1-1.1,0.4c-0.7,0.2-0.2,0.1-0.9,0.2c-0.7,0.1-1,0.1-1.3,0.2s-0.3,0-0.5-0.3s-0.3-0.2-0.4-0.4c-0.1-0.2,0-0.3-0.1-0.6
		c0-0.4-0.1-0.4-0.2-0.6c-0.1-0.2-0.1-0.3-0.3-0.6c-0.2-0.4-0.2-0.5-0.4-0.7c-0.2-0.2-0.2-0.2-0.4-0.3c-0.2-0.2-0.2-0.3-0.2-0.5
		c0-0.2-0.1-0.8-0.2-1.3c-0.1-0.6,0-0.3-0.1-0.5c-0.1-0.2-0.2-0.5-0.3-0.9c-0.2-0.3-0.1-0.2-0.3-0.6c-0.2-0.4-0.2-0.3-0.4-0.7
		c-0.2-0.4-0.2-0.2-0.2-0.3c0-0.1,0.1-0.4,0.1-0.6c0-0.2,0.1-0.5,0.1-0.9s-0.1-0.4,0.1-0.6s0.3-0.5,0.4-0.8s0.1-0.3,0.1-0.6
		s0-0.3-0.1-0.6c-0.1-0.3-0.2-0.6-0.3-1.1c-0.1-0.5-0.1-0.5-0.1-0.6c0-0.2-0.1-0.6-0.2-0.8c-0.1-0.2-0.1-0.1-0.3-0.3
		s-0.1-0.1-0.2-0.3c-0.2-0.2-0.1-0.2-0.3-0.4c-0.2-0.2-0.2-0.2-0.3-0.4s-0.1-0.1,0-0.5c0-0.4,0.1-1.1,0.2-1.5s0.1-0.4-0.1-0.6
		c-0.2-0.2-0.3-0.4-0.4-0.5c-0.1,0-0.4,0-0.8,0c-0.4,0-0.4-0.1-0.6-0.3c-0.2-0.2-0.4-0.5-0.5-0.6s-0.2-0.1-1,0
		c-0.7,0.1-0.3,0.1-0.8,0.1c-0.5,0.1-0.7,0.3-1,0.5s-0.5,0.1-1.1,0s-1,0.1-1.3,0.3s-0.5,0.1-0.7-0.1c-0.2-0.2-0.4-0.3-0.8-0.5
		c-0.4-0.2-0.3-0.3-0.7-0.5c-0.4-0.2-0.2-0.2-0.5-0.5c-0.3-0.3-0.3-0.6-0.5-0.9c-0.2-0.3-0.4-0.7-0.7-1c-0.3-0.3-0.6-0.9-0.7-1.1
		s-0.2-0.2-0.2-0.3s0.3-0.6,0.4-0.9s0.1-0.2,0.2-0.4c0-0.2-0.1-0.7-0.2-0.9c-0.1-0.3-0.2-0.9-0.3-1.1c-0.1-0.3,0-0.3,0.2-0.4
		c0.1-0.1,0.3-0.5,0.6-0.9c0.2-0.5,0.4-0.7,0.5-0.9c0.1-0.2,0.4-0.9,0.6-1.1c0.2-0.2,0.7-0.6,0.9-0.7s0.4-0.2,0.4-0.3
		c0-0.1,0.1-0.9,0.2-1.3s0-0.5,0.2-0.7s0.7-0.4,0.9-0.5c0.2-0.1,0.2-0.3,0.3-0.5s0.2-0.6,0.3-0.7c0.2-0.1,0.1,0.1,0.3,0.2
		s0.2,0.1,0.3,0.2c0.1,0,0.2-0.1,0.4-0.1s0.3,0,0.4,0.1c0.2,0.1,0.1,0.1,0.5-0.2s0.8-0.4,1.3-0.6s0.9-0.3,1.2-0.4
		c0.2,0,0.1,0,0.4,0.1c0.3,0.1,0.3,0.2,0.4,0.1s0.2-0.3,0.4-0.3c0.1,0,0.3,0.1,0.6,0.1s0.4,0,0.6,0c0.1-0.1,0.3-0.2,0.3-0.2
		s0.3,0.1,0.5,0.2s0.2,0.1,0.2,0.1c0,0.1-0.1,0.1-0.2,0.4c-0.1,0.2,0,0.1,0,0.4c0.1,0.2,0.2,0.2,0.1,0.4c0,0.2-0.2,0.4-0.4,0.5
		c-0.2,0.2-0.1,0.2,0.2,0.4c0.4,0.2,0.3,0.2,0.7,0.4c0.4,0.2,0.4,0.1,0.9,0.3c0.5,0.1,0.4,0.2,0.6,0.4c0.2,0.2,0.2,0.4,0.5,0.5
		c0.3,0.1,0.6,0.1,0.8,0.2c0.2,0.1,0.3,0.2,0.5,0.3c0.2,0,0.2,0.1,0.3-0.1c0.1-0.2,0.2-0.3,0.2-0.4c0-0.1-0.2-0.2-0.1-0.3
		c0-0.1,0.2-0.4,0.3-0.5c0.1-0.1,0.2-0.1,0.6-0.1s0.6-0.1,0.7,0.1s0,0.1,0.3,0.2c0.3,0.1,0.3,0.1,0.5,0.2c0.2,0.1,0.1,0.2,0.2,0.2
		c0.1,0,0.3,0,0.5,0c0.2,0.1,0.6,0.2,1,0.3c0.4,0,0.6-0.1,0.6-0.1s0.4-0.4,0.5-0.1c0.2,0.2,0.4,0.2,0.8,0.2s0.4-0.1,0.5-0.2
		s0.4-0.5,0.5-0.8c0.1-0.3,0.3-0.9,0.4-1.2c0.1-0.3,0-0.5,0-0.7c0-0.2,0-0.3,0.1-0.5s-0.2-0.1-0.3,0c-0.1,0-0.1-0.1-0.2-0.1
		c-0.1,0-0.2-0.1-0.3,0.1c-0.1,0.2,0,0.3-0.5,0.3c-0.4,0-0.3-0.1-0.5-0.2c-0.1-0.1-0.4-0.2-0.5-0.2c-0.2-0.1-0.2-0.1-0.2,0.1
		c0,0.1,0,0.2-0.2,0.2c-0.1,0.1-0.4,0-0.7-0.1c-0.2-0.1-0.3-0.2-0.6-0.4s-0.2-0.2-0.3-0.6c-0.1-0.4-0.1-0.7-0.1-0.8
		c0-0.1,0.1-0.1-0.1-0.1c-0.2,0.1-0.3,0.1-0.2-0.2s0.2-0.3,0.4-0.3s0.3,0,0.6-0.1s0.5-0.1,0.5-0.2c0.1,0,0.3-0.1,0.2-0.1
		c-0.1,0-0.4-0.1-0.3-0.1s0.1-0.1,0.2-0.1c0.2,0,0.4,0,0.6,0s0.3,0,0.4-0.1c0.1-0.1,0.2-0.3,0.3-0.4c0.2-0.1,0.3-0.1,0.7-0.1
		c0.4,0,0.3,0.1,0.5,0.2c0.1,0.1,0.2,0.1,0.4,0.1c0.2,0,0.1,0.1,0.2,0.2s0.4,0.1,0.7,0.2c0.3,0.1,0.1,0.1,0.5,0.1s0.3,0,0.6-0.1
		c0.3-0.1,0.4-0.2,0.6-0.3c0.2-0.1,0.1-0.5,0-0.7c-0.1-0.2-0.4-0.4-0.5-0.5c-0.2-0.1-0.5-0.5-0.6-0.6s-0.4-0.2-0.5-0.3
		c-0.2-0.1-0.5-0.3-0.5-0.4s0.1-0.1,0.3-0.2c0.3-0.1,0.2-0.1,0.2-0.3c0-0.1,0.1-0.1,0.3-0.2c0.2-0.1-0.3-0.3-0.3-0.4
		c-0.1-0.1,0.2-0.1,0.4-0.1c0.2-0.1,0.2-0.2,0.3-0.3c0-0.1,0-0.1-0.2-0.1s-0.6,0.1-1.1,0.2c-0.5,0.1-0.2,0.1-0.5,0.3
		c-0.3,0.2-0.3,0.1-0.2,0.2c0,0.1,0,0.2,0.3,0.4c0.3,0.1,0.2,0.1,0.2,0.2s0.3,0.1,0.2,0.1c-0.1,0-0.2,0.2-0.3,0.2
		c-0.1,0-0.2,0.1-0.4,0.2s-0.3,0.1-0.5,0.2c-0.2,0-0.3,0-0.2-0.3c0-0.3-0.1-0.1-0.2-0.1c-0.2-0.1-0.2-0.1-0.2-0.1s0.2-0.1,0.3-0.2
		c0.2-0.1,0.2-0.2,0.3-0.4s-0.2-0.1-0.4-0.1c-0.2,0-0.1,0-0.3-0.1c-0.2,0-0.2-0.2-0.2-0.2s0.1,0,0.2,0c0.2,0,0.1-0.1,0.2-0.1
		c0.1,0,0.1-0.1,0.1-0.1s-0.2,0-0.4,0c-0.1,0-0.2,0-0.4,0c-0.2,0-0.1,0.1-0.2,0.2c-0.1,0.1-0.1,0.1-0.2,0.2s-0.1,0.1-0.1,0.2
		s0,0.3,0,0.4s0,0.2-0.1,0.3c-0.1,0.1-0.1,0.1-0.2,0.1c-0.1,0.1,0,0.1-0.1,0.3s-0.1,0.2-0.1,0.4c0,0.2-0.1,0.2-0.2,0.3
		c-0.1,0.1-0.2,0.1-0.2,0.3c0,0.1,0,0.2,0,0.4s0.1,0.2,0.3,0.4s0.3,0.2,0.2,0.3c-0.1,0.1-0.1,0.1-0.3,0.1c-0.2,0-0.3,0-0.5,0.2
		s-0.2,0.3-0.3,0.3s-0.1-0.1-0.1-0.2c0-0.1-0.5-0.1-0.7-0.2c-0.3-0.1-0.4-0.1-0.4-0.1s-0.2,0-0.5,0.1c-0.3,0.2-0.2,0.3-0.2,0.5
		c0,0.2,0.2,0.3,0.2,0.8c-0.1,0.5,0.2,0.3,0.4,0.6c0.1,0.3,0,0.3-0.1,0.3c-0.1,0-0.2,0.3-0.2,0.6s0,0.3-0.1,0.3
		c-0.1,0-0.2,0-0.3-0.2c-0.1-0.2-0.2,0-0.3-0.1c0-0.1-0.2-0.3-0.1-0.6c0.1-0.3,0.2-0.3-0.1-0.4s-0.2-0.2-0.3-0.5
		c-0.1-0.3-0.1-0.4-0.4-0.6c-0.2-0.3-0.2-0.2-0.1-0.5s0.1-0.6,0-0.8c-0.1-0.2-0.7-0.7-1.2-0.9c-0.5-0.2-0.5-0.1-0.8-0.4
		c-0.2-0.4-0.3-0.8-0.6-1c-0.3-0.2-0.2-0.3-0.5-0.1s-0.3,0.2-0.3,0.3s0.1,0.2,0,0.5c0,0.2-0.1,0.2,0.2,0.4c0.3,0.2,0.2,0.2,0.4,0.5
		c0.2,0.4,0.2,0.4,0.3,0.6c0.1,0.1,0.2,0.3,0.5,0.4c0.3,0.1,0.3,0,0.4,0.1c0.1,0.1-0.2,0.1-0.2,0.1s0.1,0.1,0.4,0.3
		c0.3,0.2,0.6,0.4,0.6,0.5c0.1,0.1,0.3,0.6,0,0.3c-0.4-0.4-0.4-0.2-0.5,0.1c-0.1,0.3,0.1,0.5,0.1,0.7c0,0.2-0.2,0.1-0.3,0.3
		c-0.1,0.2-0.2,0.3-0.3,0.4c-0.1,0.1-0.1-0.1-0.2-0.1c-0.1,0-0.1,0.1-0.2,0.3c-0.1,0.2,0,0.3,0,0.5s0.1,0.3-0.2,0.2
		s-0.2-0.3-0.4-0.4s-0.4-0.1-0.6-0.2s0.1-0.2,0.6-0.2s0.6-0.1,0.7-0.2c0.2-0.1,0.1-0.1,0.3-0.4c0.2-0.2,0-0.3-0.1-0.6
		s-0.3-0.4-0.4-0.5c-0.1-0.1-0.2-0.2-0.4-0.4c-0.2-0.2-0.3-0.2-0.6-0.2c-0.2-0.1-0.2-0.3-0.3-0.4c-0.1-0.1-0.3-0.3-0.6-0.6
		c-0.3-0.3-0.2-0.5-0.3-0.8c-0.2-0.3-0.3-0.5-0.6-0.5c-0.3,0-0.6,0.2-0.9,0.5c-0.3,0.3-0.2,0.5-0.6,0.2c-0.4-0.2-0.5-0.2-0.8,0
		s-0.3,0.4-0.3,0.9s-0.3,0.3-0.6,0.4c-0.2,0.1-0.5,0.4-0.9,1.2c-0.4,0.7,0,0.4,0,0.6s0,0.4-0.3,0.8c-0.4,0.3-0.2,0-0.4,0.2
		c-0.2,0.3-0.5,0.5-1,0.4s-0.4,0.1-0.7,0.2c-0.3,0.1-0.5,0.2-0.4-0.2s0-0.3-0.6-0.3c-0.6,0-0.8,0.2-0.8,0.1s0.1-0.2,0.2-0.6
		c0.1-0.4,0.2-0.5,0.1-0.5c-0.1,0-0.3,0.1-0.2-0.6c0.2-0.6,0.2-0.7,0.1-1.1s0-0.9,0-1.1c-0.1-0.2,0.2-0.4,0-0.5
		c-0.1-0.1-0.2-0.3-0.2-0.3c0.1,0,0.4,0,0.8,0.1c0.4,0.1,0.9-0.1,1.1,0c0.2,0,0.8,0.1,1.3,0.2c0.5,0.1,0.5-0.1,0.5-0.9
		c0-0.8,0-1.1-0.1-1.3s-0.3-0.1-0.5-0.4c-0.2-0.2,0-0.5-0.4-0.6c-0.4-0.1-0.8,0-0.6-0.1c0.2-0.1,0.3-0.1,0.1-0.3
		c-0.2-0.2-0.3-0.3-0.1-0.4c0.2,0,0.6,0,0.6,0s0,0.2,0.3,0.1c0.2-0.1,0.5-0.2,0.5-0.4s-0.2-0.4-0.2-0.4s0.1,0.2,0.6,0.2
		s0.5-0.1,0.4-0.3c0-0.2,0.3-0.2,0.6-0.4s-0.1-0.4,0-0.5c0-0.2,0.3-0.3,0.9-0.3c0.5,0,0.4-0.1,0.4-0.2s0-0.3,0-0.7
		c0-0.3,0-0.4,0.2-0.6c0.3-0.2,0.2-0.1,0.7-0.1c0.5-0.1,0.2-0.2,0.3-0.2s0.8-0.2,0.9-0.2s0.1,0,0-0.3c-0.1-0.2-0.2-0.4-0.4-1.5
		s-0.1-1.1,0.6-1.3c0.7-0.2,0.5-0.1,0.5,0.5c0,0.6-0.3,0.6-0.4,1.1s0,0.7,0.3,1.2c0.3,0.5,0.3,0.2,0.9,0.2s0.5,0.1,0.9,0.3
		s0.3-0.2,0.7-0.4c0.4-0.1,0.3,0.1,1.2-0.1c0.3-0.1,0.5-0.1,0.5-0.1c0,0-0.1,0,0-0.1c0.2-0.1,0.3-0.4,0.6-0.4s0.5,0.1,0.5-0.4
		c0-0.5-0.2-0.4-0.1-0.8c0-0.4,0.1-0.2,0.1-0.5c0-0.3,0-0.3,0.3-0.4c0.4-0.1,0.1,0.4,0.6,0.4c0.5,0.1,0.4,0.2,0.5-0.2
		c0.1-0.4,0.3-0.8,0.1-0.8c-0.2,0-0.3,0-0.5-0.4c-0.2-0.3-0.4-0.4-0.2-0.4c0.2,0,0.6-0.1,1.3-0.1c0.7,0,0.9,0.1,1,0
		c0-0.1-0.1-0.1,0.1-0.3c0.2-0.1,1,0.1,0.9-0.1c-0.1-0.1-0.8-0.3-1.3-0.2s-1.6,0.2-1.8,0.2c-0.2,0-0.5-0.1-0.6-0.2
		c-0.1-0.1-0.3-0.1-0.3-0.6s0.2-0.6-0.1-1c-0.2-0.4,0.4-0.7,0.9-1.2s0.3-0.8,0.6-0.8c0.3,0,0.4-0.2,0.3-0.3s-0.6-0.6-0.9-0.7
		s-0.6-0.3-1,0.3c-0.4,0.6,0,0.7,0.1,1.1c0.1,0.3-0.5,0.6-1,0.9c-0.4,0.3-0.6,0.2-0.7,1c-0.1,0.8-0.3,0.8,0.2,1.1s0.6,0.4,0.4,0.6
		c-0.2,0.2-0.7,0.2-1,0.8c-0.3,0.6-0.2,0.8-0.3,1.1s-0.5,0.4-0.6,0.6c-0.1,0.2-0.1,0.7-0.6,0.6c-0.5-0.1-0.2-0.7-0.4-1
		s-0.4-0.6-0.6-1s0-0.8-0.3-1c-0.2-0.2-0.3-0.6-0.3-0.6s0,0-0.1,0.2s0,0.3-0.5,0.9s-1.1,0.6-1.5,0.5c-0.3-0.1-0.3-0.5-0.3-0.9
		c0-0.4-0.1-1,0-1.6s0.3-0.6,1-1c0.7-0.4,0.7-0.4,0.9-0.7c0.2-0.3,0.7-0.7,1-0.9s0.8-1.2,1.1-1.9c0.3-0.7,0.8-1.1,1.2-1.8
		c0.5-0.7,1.3-1.4,2.4-1.8s0.9-0.5,1.2-0.9s0.4-0.1,0.8-0.2c0.4-0.1,0.4,0-0.1,0.4s-0.6,0.9-0.2,0.5c0.4-0.3,0.6-0.7,1.2-0.7
		c0.6,0,0.3,0,0.9,0.2s0.6,0.3,0.3,0.5c-0.3,0.2-0.8,0.1-0.8,0.1s0.2,0.4,0.7,0.5s0.8-0.4,1.1-0.2c0.3,0.2,0.4,0.3,0,0.3
		c-0.5,0-0.6,0.2,0,0.4s0.6,0.2,1.3,0.3c0.7,0.1,1.1,0.6,1.6,0.9c0.6,0.2,1.2,0,1,0.6c-0.2,0.5,0.2,1-0.8,1.2c-1,0.2-1-0.1-1.8-0.3
		s-1.4-0.5-1.4-0.5s0.2,0.3,0.6,0.6c0.4,0.4,0.4,0.7,0.4,1.3c0,0.6-0.2,0.8,0.4,1.1s0.5,0.2,0.8,0.2c0.2-0.1,0.5-0.1,0.5-0.2
		c-0.1-0.1-0.2-0.3-0.4-0.4c-0.2-0.1-0.2-0.3,0-0.4c0.2-0.1,0.4,0.1,0.9,0.1c0.5,0,0-0.2,0.2-0.4s0.2-0.6,0.8-0.9s1.1,0.1,1.3-0.1
		c0.2-0.2,0.3-0.5,0-0.9s-0.5-0.5-0.4-0.7s0.6-0.6,0.7-0.4c0.2,0.3,0.6,0.6,0,0.5c-0.6-0.1-0.2,0.8,0.3,0.8s0.5-0.2,0.9-0.4
		c0.4-0.2,1.2-0.9,1.8-1.1s0.7-0.1,0.9-0.1c0.2,0.1,0.2,0.3,0.9,0.2c0.6-0.1,0.8-0.3,1.4-0.4c0.6-0.1,0,0.2,0.2,0.3
		c0.3,0.1,0.3,0.2,0.5,0c0.2-0.1,0.8-0.4,0.5-0.6c-0.3-0.2-0.5-0.4-0.5-0.4s0.2-0.5,0.8-0.4c0.6,0,1.4,0.6,2,0.9
		c0.5,0.4,1.2,1.2,1.2,1.2s0.2-0.4,0-1.1s-0.7-0.5-0.7-1.2s-0.5-0.5-0.3-0.9s0.6-0.6,0.7-1.2c0.1-0.6,0.2-1.1,0.6-1.1
		c0.4,0,1.3,0.1,1.3,0.1s0,0.5-0.3,1.3c-0.3,0.8,0.2,0.9,0.1,1.9c-0.1,1-0.1,1.1,0.1,1.3c0.2,0.2,0.7,0.5,0.5,0.9s-0.2,0.7-0.8,0.9
		c-0.6,0.2-1.4,0.1-1.1,0.3c0.3,0.2,0.6,0.4,1,0.4c0.4,0.1,0.2,0,0.5-0.3s1-0.8,1-1c0-0.2-0.4-0.6-0.2-0.8c0.3-0.2,0.4-0.5,0.8-0.2
		c0.4,0.2,0.8,1.1,0.8,1.1c0,0-0.1-0.9-0.6-1.4s-1.3,0-1.3-0.5c0-0.4,0.2-1,0.2-1.5c0-0.5-0.2-0.9,0.1-1.4s0.3-0.7,0.3-0.7
		s0.1,0.4,0,0.9c-0.1,0.5,0,0.8,0.3,0.8c0.2,0,1.2,0,0.7-0.1c-0.5-0.2-0.7-0.3-0.2-0.6c0.5-0.3,0.5-0.1,1.3,0.1
		c0.8,0.2,1,0.3,1.3,0.3c0.3,0,0.2,0,0.1-0.3c-0.1-0.2-0.2-0.4-0.5-0.6c-0.3-0.2-0.4,0-0.5-0.2s-0.2-0.9-0.3-1.1s0.2-0.1,0.6-0.1
		s1.6-0.1,2.5-0.1c0.9,0,0-1,0-1.6c-0.1-0.7,1.7-0.7,2.5-0.8c0.8-0.1,1.8-0.1,3.4-0.5c1.6-0.4,0.6-0.3,0.8-0.8s0.6-0.5,1.1-0.5
		s0.9,0.1,0.7,0.1c-0.2,0.1-0.7,0.3,0.1,0.5c0.8,0.2,0.6,0.2,0.2,0.3s-0.1,0.4,0.8,0.4s0.3-0.1,0.2-0.4c-0.1-0.3,0.1-0.2,0.8-0.1
		c0.7,0.1,1,0.2,1.3,0.6c0.4,0.4,0.4,0.3,0.6,0.8s0,0.4-0.6,0.9s-0.9,0.4-1.8,1s-0.6,0.8-1.1,1.1c-0.5,0.4-0.3,0.2,0.6,0
		c1-0.2,1.5-0.4,2-0.4c0.5,0.1,0.7,0.2,1.1,0.2c0.4,0,0,0.1,1.2,0.1c1.2,0,1,0,0.6,0.3c-0.4,0.3,0.1,0.4,0.6,0.4
		c0.5,0,1.2,0,1.7-0.1c0.5-0.1,0.1-0.4,0.6-0.5c0.6,0,0.8-0.1,1.4-0.1s0.4,0.2,0.6,0.5s0.5,0.4,0.3,0.8c-0.2,0.4-0.3,0.5-0.2,1.1
		s0.4,0.7,0.8,0.8c0.4,0.1,0.4-0.6,0.7-0.8c0.4-0.2,0.4,0.4,0.9,0.4c0.4-0.1,0.9-0.1,1.2,0.1c0.4,0.1,0.7,0.2,1.2,0.1
		c0.5-0.1,0.3-0.3,0.2-0.6c-0.2-0.3-0.2-0.3,0.1-0.6s0.5-0.2,1.6,0.1c1,0.3,0.7,0.3,1.3,0.4c0.6,0.2,0.4,0.1,1.3,0.5
		c0.9,0.4,0.7,0.9,1.1,1.2c0.4,0.3,0.4,0,1.3-0.1c0.8-0.1,0.8,0.1,1.7,0.3c0.9,0.2,0.7,0.5,0.7,0.8c0,0.3-0.2,0.5,0.3,0.6
		c0.6,0.1,0.8,0.2,1.3,0.1c0.5-0.1,0,0.1,1.1,0.1c1.1,0,0.7-0.1,1,0.1s0.4,0.7,0.9,0.6c0.5-0.1,0.5,0,0.3-0.5
		c-0.2-0.5-0.3-0.5,0-0.5c0.3,0,0.9,0.1,2.1,0.3c1.2,0.2,1.2,0.4,2.2,1c1,0.6,1.2,0.6,1.9,1.2c0.3,0.2,0.3,0.3,0.3,0.3
		c0,0,0.1,0,0.4,0.1c0.8,0.4,0.6,0.2,1.3,0.6s1.2,0.8,1.2,0.8S926.2,210.4,925.8,210.4z M863.2,223.1c0,0-0.1,0.1,0.3-0.2
		c0.4-0.3-0.2,0-0.4-0.1c-0.2-0.1-0.3-0.2-0.2-0.4s0-0.3-0.3-0.6c0,0-0.1-0.1-0.4,0.1c-0.2,0.1-0.4-0.1-0.7,0s-0.6,0.1-0.8,0.5
		s-0.4,0.2-0.5,0.5c-0.1,0.4-0.6,0.6-0.6,0.6s0.2,0.2,0.4,0.4c0.2,0.2,0,0.1,0.2,0.8c0.2,0.7,0.3,0.6,0.5,0.7s0.6,0.3,0.6,0.3
		s-0.2-0.1-0.2,0.2c0,0.4-0.4,0.6-0.3,1.2s-0.5,1.1-0.1,1.1s0.3,0.2,0.8,0.4c0.5,0.1,0.7,0.2,1.4,0.2s0.3-0.3,0.2-0.6
		c-0.1-0.4-0.2-0.6-0.2-1.1c0-0.4-0.2-0.3-0.3-0.6c-0.1-0.3,0-0.4,0.4-0.4s0.4,0,0.2-0.3c-0.2-0.3-0.1-0.4-0.3-0.5
		c-0.2-0.1-0.3,0.4-0.3,0.4s-0.1-0.1-0.1-0.6c0-0.5,0.1-0.3-0.1-0.4c-0.2-0.1-0.3,0-0.5-0.3c-0.2-0.4,0-0.3-0.3-0.7
		c-0.3-0.4-0.1-0.2,0.2-0.2c0.3,0,0.1-0.1,0-0.2s-0.2-0.4,0.1-0.3s0.8,0.1,1,0.1C863.3,223.1,863.2,223.1,863.2,223.1z M813.2,203.9
		c-0.1,0.2,0.2,0.5,0.5,0.4c0.2-0.1,0.3,0,0.5-0.1s0.2-0.3,0-0.4c-0.2-0.2-0.1-0.2-0.1-0.3C813.7,203.3,813.3,203.7,813.2,203.9z
		 M879.5,190.1c-0.4,0-0.8,0-0.4,0.1s0.2,0.7,0.8,0.4s0.5-0.3,1-0.5c0.4-0.2,0.2-0.1-0.3-0.2C880.2,189.8,879.8,190.1,879.5,190.1z"
		/>
</g>
<g>
	<path class="st4" d="M358.3,82.3c0.4,0,0.6,0.2,0.7,0.7l8.2,27.4c0,0.3,0.2,0.4,0.4,0.4h0.2c0.2,0,0.3-0.1,0.4-0.4l8.2-25.1
		c0.8-2.3,1.9-2.9,3.8-2.9h5c2.2,0,3.3,0.8,4,2.9l8.4,25.1c0.1,0.3,0.2,0.4,0.4,0.4h0.3c0.2,0,0.3-0.1,0.4-0.4l8-27.4
		c0.1-0.6,0.5-0.7,0.8-0.7h6.9c0.6,0,0.6,0.6,0.4,1.2l-9.8,30.6c-1,3.1-2,3.9-3.9,3.9h-6c-2,0-2.9-0.9-3.9-3.9l-8-24.2
		c0-0.2-0.1-0.4-0.4-0.4h-0.2c-0.2,0-0.4,0.1-0.4,0.4l-8.1,24.2c-1,3-1.9,3.9-3.9,3.9h-5.8c-2.3,0-3.3-0.7-4.3-3.9l-9.4-30.6
		c-0.2-0.7-0.1-1.2,0.4-1.2H358.3z"/>
	<path class="st4" d="M430,82.3c0.8,0,1.1,0.4,1.1,1.1v33.4c0,0.8-0.4,1.1-1.1,1.1h-5.5c-0.8,0-1.2-0.4-1.2-1.1V83.4
		c0-0.8,0.4-1.1,1.2-1.1H430z"/>
	<path class="st4" d="M480.4,82.3c0.8,0,1.2,0.4,1.2,1.1v5c0,0.8-0.4,1.2-1.2,1.2h-16v27.2c0,0.8-0.4,1.1-1.1,1.1h-5.5
		c-0.8,0-1.1-0.4-1.1-1.1V89.6h-16c-0.8,0-1.2-0.4-1.2-1.2v-5c0-0.8,0.4-1.1,1.2-1.1C440.7,82.3,480.4,82.3,480.4,82.3z"/>
	<path class="st4" d="M496.6,82.3c0.8,0,1.1,0.4,1.1,1.1v13.2h23.8V83.4c0-0.8,0.4-1.1,1.1-1.1h5.5c0.8,0,1.2,0.4,1.2,1.1v33.4
		c0,0.8-0.4,1.1-1.2,1.1h-5.5c-0.8,0-1.1-0.4-1.1-1.1v-13.5h-23.8v13.5c0,0.8-0.4,1.1-1.1,1.1h-5.5c-0.8,0-1.2-0.4-1.2-1.1V83.4
		c0-0.8,0.4-1.1,1.2-1.1H496.6z"/>
	<path class="st4" d="M565.1,82.3c11,0,15.6,4.4,15.6,14.3v6.9c0,9.9-4.5,14.3-15.6,14.3h-23.8c-1,0-1.5-0.5-1.5-1.5V83.8
		c0-1,0.5-1.5,1.5-1.5H565.1z M547.6,110.2c0,0.5,0.2,0.7,0.7,0.7h16.7c6,0,8-1.9,8-7.9v-5.6c0-6-2-7.9-8-7.9h-16.7
		c-0.5,0-0.7,0.2-0.7,0.7V110.2z"/>
	<path class="st4" d="M619.7,82.3c7.8,0,10.9,3.6,10.9,10.5v2.9c0,5.8-2.2,9.2-7.6,10.2l8.7,10.8c0.3,0.4,0.2,1.3-0.7,1.3h-6.6
		c-0.9,0-1.1-0.2-1.4-0.7l-8-10.6h-16.4v10.1c0,0.8-0.4,1.1-1.1,1.1H592c-0.8,0-1.2-0.4-1.2-1.1V83.8c0-1,0.5-1.5,1.5-1.5H619.7z
		 M598.7,100.5h19.5c3.5,0,4.7-1.5,4.7-4.5v-2.1c0-3.1-1.3-4.5-4.7-4.5h-18.8c-0.5,0-0.7,0.2-0.7,0.6V100.5z"/>
	<path class="st4" d="M663.3,82.3c2.6,0,4.2,0.8,5.8,3.9l16.8,30.6c0.4,0.7,0.2,1.2-0.6,1.2h-6.5c-0.7,0-0.9-0.2-1.2-0.7l-3.6-6.6
		h-23.9l-3.5,6.6c-0.2,0.5-0.6,0.7-1.2,0.7h-6.6c-0.9,0-1-0.5-0.7-1.2L655,86.2c1.7-3.1,3.2-3.9,5.3-3.9H663.3z M653.4,104.8h17.5
		l-8.1-14.9c-0.2-0.2-0.3-0.4-0.6-0.4H662c-0.2,0-0.4,0.1-0.6,0.4L653.4,104.8z"/>
	<path class="st4" d="M693.5,82.3c0.4,0,0.6,0.2,0.7,0.7l8.2,27.4c0,0.3,0.2,0.4,0.4,0.4h0.2c0.2,0,0.3-0.1,0.4-0.4l8.2-25.1
		c0.8-2.3,1.9-2.9,3.8-2.9h5c2.2,0,3.3,0.8,4,2.9l8.4,25.1c0.1,0.3,0.2,0.4,0.4,0.4h0.3c0.2,0,0.3-0.1,0.4-0.4l8-27.4
		c0.2-0.6,0.5-0.7,0.8-0.7h6.9c0.6,0,0.6,0.6,0.4,1.2l-9.8,30.6c-1,3.1-2,3.9-3.9,3.9h-6c-2,0-2.9-0.9-3.9-3.9l-8-24.2
		c0-0.2-0.2-0.4-0.4-0.4h-0.2c-0.2,0-0.4,0.1-0.4,0.4l-8.1,24.2c-1,3-1.9,3.9-3.9,3.9h-5.8c-2.3,0-3.3-0.7-4.3-3.9l-9.4-30.6
		c-0.2-0.7-0.2-1.2,0.4-1.2H693.5z"/>
	<path class="st4" d="M775.6,82.3c2.6,0,4.2,0.8,5.8,3.9l16.8,30.6c0.4,0.7,0.2,1.2-0.6,1.2h-6.5c-0.7,0-0.9-0.2-1.2-0.7l-3.6-6.6
		h-23.9l-3.5,6.6c-0.2,0.5-0.6,0.7-1.2,0.7h-6.6c-0.9,0-1-0.5-0.7-1.2l16.7-30.6c1.7-3.1,3.2-3.9,5.3-3.9H775.6z M765.7,104.8h17.5
		l-8.1-14.9c-0.2-0.2-0.3-0.4-0.6-0.4h-0.3c-0.2,0-0.4,0.1-0.6,0.4L765.7,104.8z"/>
	<path class="st4" d="M810.9,82.3c0.8,0,1.1,0.4,1.1,1.1v20.3c0,5.4,1.5,7,6.8,7h20.6c0.8,0,1.1,0.4,1.1,1.1v5
		c0,0.8-0.4,1.1-1.1,1.1h-20.9c-10.3,0-14.2-3.7-14.2-13.4V83.4c0-0.8,0.4-1.1,1.2-1.1H810.9z"/>
	<path class="st4" d="M884.2,82.3c0.8,0,1.1,0.4,1.1,1.1v4.8c0,0.8-0.4,1.1-1.1,1.1h-25.5c-1.9,0-2.7,1.1-2.7,2.8V94
		c0,1.9,0.9,2.8,2.6,2.8h19.1c5.8,0,8.9,3.2,8.9,8.8v4.1c0,4.9-2.8,8.3-9,8.3h-28.2c-0.8,0-1.2-0.4-1.2-1.1V112
		c0-0.8,0.4-1.1,1.2-1.1h26.7c1.9,0,2.7-1.1,2.7-2.8v-2.1c0-1.9-0.9-2.8-2.6-2.8h-19.1c-5.8,0-8.9-3.2-8.9-8.8v-3.7
		c0-4.9,2.8-8.3,9-8.3L884.2,82.3L884.2,82.3z"/>
</g>
<g>
	<g>
		<g>
			<path class="st0" d="M347,365.5H478c1,0,1.7,0.9,1.7,1.9v20.2c0,1.1-0.8,1.9-1.7,1.9H370.1V410h57.7l0,0c0.1,0,0.2,0,0.3,0h25.2
				c7.7,0,15.1,3.2,20.8,9l0,0c0,0,0,0,0,0l0.7,0.8c6,6.5,9.3,15.3,9.3,24.5c0,12.4-6,23.8-15.7,29.9c-4.6,2.9-9.9,4.5-15.2,4.5
				H351.6c-1,0-1.7-0.9-1.7-1.9v-20.3c0-1.1,0.8-1.9,1.7-1.9h100.9c0.1,0,0.2,0,0.3,0c0,0,0,0,0,0l0.5,0c2.9,0,5.6-1.6,7.3-4.1
				c1.7-2.5,2.3-5.7,1.5-8.7c-1-4-4.2-7-7.9-7.4l0,0l-1.3-0.1c0,0,0,0,0,0c-0.1,0-0.3,0-0.4,0c0,0,0,0,0,0l-1.1-0.1l-0.1,0
				c-0.1,0-0.2,0-0.4,0h-49.1l0,0c-0.1,0-0.2,0-0.3,0H347c-1,0-1.7-0.9-1.7-1.9v-64.9C345.3,366.4,346.1,365.5,347,365.5z"/>
			<path class="st7" d="M453.4,480.8H351.6c-2.1,0-3.7-1.8-3.7-3.9v-20.3c0-2.2,1.7-3.9,3.7-3.9h100.9c0.1,0,0.1,0,0.2,0l0.6,0
				c2.2,0,4.3-1.2,5.7-3.2c1.4-2.1,1.9-4.7,1.2-7.1c-0.8-3.2-3.3-5.6-6.2-5.9l-1.3-0.1c-0.1,0-0.2,0-0.2,0l-1,0c-0.2,0-0.4,0-0.6,0
				h-49c-0.1,0-0.3,0-0.4,0H347c-2.1,0-3.7-1.8-3.7-3.9v-64.9c0-2.2,1.7-3.9,3.7-3.9h131c2.1,0,3.7,1.8,3.7,3.9v20.2
				c0,2.2-1.7,3.9-3.7,3.9H372.1V408h55.6c0.1,0,0.3,0,0.4,0h25.2c8.3,0,16.2,3.4,22.3,9.6l0.9,0.9c6.4,6.9,9.9,16.1,9.9,25.9
				c0,13-6.4,25.1-16.6,31.6C464.7,479.1,459.1,480.8,453.4,480.8z M351.9,476.8h101.5c5,0,9.9-1.5,14.2-4.2
				c9.1-5.8,14.8-16.6,14.8-28.2c0-8.8-3.1-17-8.8-23.2l-0.8-0.9c-5.4-5.4-12.2-8.4-19.4-8.4l-85.3,0v-24.4h109.6l0-20.1H347.3
				l0,64.7l103.6,0l0.3-0.1h0.3l1.2,0.1c0.2,0,0.3,0,0.5,0l1.6,0.1c4.5,0.6,8.3,4.1,9.5,8.9c0.9,3.5,0.2,7.3-1.8,10.3
				c-2.1,3.1-5.5,5-9,5l-0.5,0c-0.1,0-0.3,0-0.4,0H351.9L351.9,476.8z M475.8,417.8l0.1,0.1C475.9,417.9,475.8,417.8,475.8,417.8z"
				/>
		</g>
		<g>
			<path class="st0" d="M496.2,444.5v-44.6c0-18.9,13.9-34.4,31-34.4h77.1c17,0,31,15.5,31,34.4v44.6c0,18.9-13.9,34.4-31,34.4
				h-77.1C510.1,478.9,496.2,463.4,496.2,444.5z M599.6,389.7h-67.8c-5.9,0-10.8,5.4-10.8,12v41c0,6.6,4.9,12,10.8,12h67.8
				c5.9,0,10.8-5.4,10.8-12v-41C610.4,395.1,605.6,389.7,599.6,389.7z"/>
			<path class="st7" d="M604.3,480.9h-77.1c-18.2,0-33-16.3-33-36.4v-44.6c0-20.1,14.8-36.4,33-36.4h77.1c18.2,0,33,16.3,33,36.4
				v44.6C637.2,464.6,622.4,480.9,604.3,480.9z M527.2,367.5c-16,0-29,14.5-29,32.4v44.6c0,17.9,13,32.4,29,32.4h77.1
				c16,0,29-14.5,29-32.4v-44.6c0-17.9-13-32.4-29-32.4L527.2,367.5L527.2,367.5z M599.6,456.7h-67.8c-7.1,0-12.8-6.3-12.8-14v-41
				c0-7.7,5.8-14,12.8-14h67.8c7.1,0,12.8,6.3,12.8,14v41C612.4,450.4,606.7,456.7,599.6,456.7z M531.8,391.7c-4.9,0-8.8,4.5-8.8,10
				v41c0,5.5,4,10,8.8,10h67.8c4.9,0,8.8-4.5,8.8-10v-41c0-5.5-4-10-8.8-10H531.8z"/>
		</g>
	</g>
</g>
</svg>
