<?xml version="1.0" encoding="utf-8"?>
<!-- Generator: Adobe Illustrator 26.0.0, SVG Export Plug-In . SVG Version: 6.00 Build 0)  -->
<svg version="1.1" id="Capa_1" xmlns="http://www.w3.org/2000/svg" xmlns:xlink="http://www.w3.org/1999/xlink" x="0px" y="0px"
	 viewBox="0 0 1054.9 634.9" style="enable-background:new 0 0 1054.9 634.9;" xml:space="preserve">
<style type="text/css">
	.st0{fill:url(#SVGID_1_);}
	.st1{opacity:0.5;fill:url(#SVGID_00000170243975936891103020000008426355397807551166_);enable-background:new    ;}
	.st2{fill:#B3B3B3;}
	.st3{fill:#FFFFFF;}
	.st4{fill:#79038E;}
</style>
<g>
	
		<linearGradient id="SVGID_1_" gradientUnits="userSpaceOnUse" x1="0" y1="318.46" x2="1054.89" y2="318.46" gradientTransform="matrix(1 0 0 -1 0 635.89)">
		<stop  offset="7.790000e-02" style="stop-color:#540475"/>
		<stop  offset="1" style="stop-color:#000000"/>
	</linearGradient>
	<path class="st0" d="M996.2,634.9H58.7C26.3,634.9,0,608.6,0,576.1V58.7C0,26.3,26.3,0,58.7,0h937.5c32.4,0,58.7,26.3,58.7,58.7
		v517.4C1054.9,608.6,1028.6,634.9,996.2,634.9z"/>
	
		<linearGradient id="SVGID_00000060003022793608753770000002246036723776999078_" gradientUnits="userSpaceOnUse" x1="352.2985" y1="855.3495" x2="295.5442" y2="36.4759" gradientTransform="matrix(1 0 0 -1 0 635.89)">
		<stop  offset="0" style="stop-color:#FFFFFF"/>
		<stop  offset="7.090000e-02" style="stop-color:#D4D4D4"/>
		<stop  offset="0.1641" style="stop-color:#A3A3A3"/>
		<stop  offset="0.2621" style="stop-color:#777777"/>
		<stop  offset="0.3634" style="stop-color:#525252"/>
		<stop  offset="0.4686" style="stop-color:#343434"/>
		<stop  offset="0.5793" style="stop-color:#1D1D1D"/>
		<stop  offset="0.6976" style="stop-color:#0D0D0D"/>
		<stop  offset="0.8291" style="stop-color:#030303"/>
		<stop  offset="1" style="stop-color:#000000"/>
	</linearGradient>
	<path style="opacity:0.5;fill:url(#SVGID_00000060003022793608753770000002246036723776999078_);enable-background:new    ;" d="
		M670.2,0H58.7C26.3,0,0,26.3,0,58.7v517.4c0,32.4,26.3,58.7,58.7,58.7h248.1L670.2,0z"/>
	<g>
		<path class="st2" d="M910.7,92.7v8.1c9.6,0,17.4,7.8,17.4,17.4h8.1C936.2,104.1,924.7,92.7,910.7,92.7z"/>
		<path class="st2" d="M910.7,77v8.7c17.9,0,32.5,14.6,32.5,32.5h8.7C951.8,95.5,933.4,77,910.7,77z"/>
		<path class="st2" d="M915.3,108.8c-2.4,0-4.4,2-4.4,4.4s2,4.4,4.4,4.4c2.4,0,4.4-2,4.4-4.4S917.8,108.8,915.3,108.8z"/>
	</g>
	<g>
		<path class="st2" d="M358.3,82.3c0.4,0,0.6,0.2,0.7,0.7l8.2,27.4c0,0.3,0.2,0.4,0.4,0.4h0.2c0.2,0,0.3-0.1,0.4-0.4l8.2-25.1
			c0.8-2.3,1.9-2.9,3.8-2.9h5c2.2,0,3.3,0.8,4,2.9l8.4,25.1c0.1,0.3,0.2,0.4,0.4,0.4h0.3c0.2,0,0.3-0.1,0.4-0.4l8-27.4
			c0.1-0.6,0.5-0.7,0.8-0.7h6.9c0.6,0,0.6,0.6,0.4,1.2l-9.8,30.6c-1,3.1-2,3.9-3.9,3.9h-6c-2,0-2.9-0.9-3.9-3.9l-8-24.2
			c0-0.2-0.1-0.4-0.4-0.4h-0.2c-0.2,0-0.4,0.1-0.4,0.4l-8.1,24.2c-1,3-1.9,3.9-3.9,3.9h-5.8c-2.3,0-3.3-0.7-4.3-3.9l-9.4-30.6
			c-0.2-0.7-0.1-1.2,0.4-1.2H358.3z"/>
		<path class="st2" d="M430,82.3c0.8,0,1.1,0.4,1.1,1.1v33.4c0,0.8-0.4,1.1-1.1,1.1h-5.5c-0.8,0-1.2-0.4-1.2-1.1V83.4
			c0-0.8,0.4-1.1,1.2-1.1H430z"/>
		<path class="st2" d="M480.4,82.3c0.8,0,1.2,0.4,1.2,1.1v5c0,0.8-0.4,1.2-1.2,1.2h-16v27.2c0,0.8-0.4,1.1-1.1,1.1h-5.5
			c-0.8,0-1.1-0.4-1.1-1.1V89.6h-16c-0.8,0-1.2-0.4-1.2-1.2v-5c0-0.8,0.4-1.1,1.2-1.1C440.7,82.3,480.4,82.3,480.4,82.3z"/>
		<path class="st2" d="M496.6,82.3c0.8,0,1.1,0.4,1.1,1.1v13.2h23.8V83.4c0-0.8,0.4-1.1,1.1-1.1h5.5c0.8,0,1.2,0.4,1.2,1.1v33.4
			c0,0.8-0.4,1.1-1.2,1.1h-5.5c-0.8,0-1.1-0.4-1.1-1.1v-13.5h-23.8v13.5c0,0.8-0.4,1.1-1.1,1.1h-5.5c-0.8,0-1.2-0.4-1.2-1.1V83.4
			c0-0.8,0.4-1.1,1.2-1.1H496.6z"/>
		<path class="st2" d="M565.1,82.3c11,0,15.6,4.4,15.6,14.3v6.9c0,9.9-4.5,14.3-15.6,14.3h-23.8c-1,0-1.5-0.5-1.5-1.5V83.8
			c0-1,0.5-1.5,1.5-1.5H565.1z M547.6,110.2c0,0.5,0.2,0.7,0.7,0.7h16.7c6,0,8-1.9,8-7.9v-5.6c0-6-2-7.9-8-7.9h-16.7
			c-0.5,0-0.7,0.2-0.7,0.7V110.2z"/>
		<path class="st2" d="M619.7,82.3c7.8,0,10.9,3.6,10.9,10.5v2.9c0,5.8-2.2,9.2-7.6,10.2l8.7,10.8c0.3,0.4,0.2,1.3-0.7,1.3h-6.6
			c-0.9,0-1.1-0.2-1.4-0.7l-8-10.6h-16.4v10.1c0,0.8-0.4,1.1-1.1,1.1H592c-0.8,0-1.2-0.4-1.2-1.1V83.8c0-1,0.5-1.5,1.5-1.5H619.7z
			 M598.7,100.5h19.5c3.5,0,4.7-1.5,4.7-4.5v-2.1c0-3.1-1.3-4.5-4.7-4.5h-18.8c-0.5,0-0.7,0.2-0.7,0.6V100.5z"/>
		<path class="st2" d="M663.3,82.3c2.6,0,4.2,0.8,5.8,3.9l16.8,30.6c0.4,0.7,0.2,1.2-0.6,1.2h-6.5c-0.7,0-0.9-0.2-1.2-0.7l-3.6-6.6
			h-23.9l-3.5,6.6c-0.2,0.5-0.6,0.7-1.2,0.7h-6.6c-0.9,0-1-0.5-0.7-1.2L655,86.2c1.7-3.1,3.2-3.9,5.3-3.9H663.3z M653.4,104.8h17.5
			l-8.1-14.9c-0.2-0.2-0.3-0.4-0.6-0.4H662c-0.2,0-0.4,0.1-0.6,0.4L653.4,104.8z"/>
		<path class="st2" d="M693.5,82.3c0.4,0,0.6,0.2,0.7,0.7l8.2,27.4c0,0.3,0.2,0.4,0.4,0.4h0.2c0.2,0,0.3-0.1,0.4-0.4l8.2-25.1
			c0.8-2.3,1.9-2.9,3.8-2.9h5c2.2,0,3.3,0.8,4,2.9l8.4,25.1c0.1,0.3,0.2,0.4,0.4,0.4h0.3c0.2,0,0.3-0.1,0.4-0.4l8-27.4
			c0.2-0.6,0.5-0.7,0.8-0.7h6.9c0.6,0,0.6,0.6,0.4,1.2l-9.8,30.6c-1,3.1-2,3.9-3.9,3.9h-6c-2,0-2.9-0.9-3.9-3.9l-8-24.2
			c0-0.2-0.2-0.4-0.4-0.4h-0.2c-0.2,0-0.4,0.1-0.4,0.4l-8.1,24.2c-1,3-1.9,3.9-3.9,3.9h-5.8c-2.3,0-3.3-0.7-4.3-3.9l-9.4-30.6
			c-0.2-0.7-0.2-1.2,0.4-1.2H693.5z"/>
		<path class="st2" d="M775.6,82.3c2.6,0,4.2,0.8,5.8,3.9l16.8,30.6c0.4,0.7,0.2,1.2-0.6,1.2h-6.5c-0.7,0-0.9-0.2-1.2-0.7l-3.6-6.6
			h-23.9l-3.5,6.6c-0.2,0.5-0.6,0.7-1.2,0.7h-6.6c-0.9,0-1-0.5-0.7-1.2l16.7-30.6c1.7-3.1,3.2-3.9,5.3-3.9H775.6z M765.7,104.8h17.5
			l-8.1-14.9c-0.2-0.2-0.3-0.4-0.6-0.4h-0.3c-0.2,0-0.4,0.1-0.6,0.4L765.7,104.8z"/>
		<path class="st2" d="M810.9,82.3c0.8,0,1.1,0.4,1.1,1.1v20.3c0,5.4,1.5,7,6.8,7h20.6c0.8,0,1.1,0.4,1.1,1.1v5
			c0,0.8-0.4,1.1-1.1,1.1h-20.9c-10.3,0-14.2-3.7-14.2-13.4V83.4c0-0.8,0.4-1.1,1.2-1.1H810.9z"/>
		<path class="st2" d="M884.2,82.3c0.8,0,1.1,0.4,1.1,1.1v4.8c0,0.8-0.4,1.1-1.1,1.1h-25.5c-1.9,0-2.7,1.1-2.7,2.8V94
			c0,1.9,0.9,2.8,2.6,2.8h19.1c5.8,0,8.9,3.2,8.9,8.8v4.1c0,4.9-2.8,8.3-9,8.3h-28.2c-0.8,0-1.2-0.4-1.2-1.1V112
			c0-0.8,0.4-1.1,1.2-1.1h26.7c1.9,0,2.7-1.1,2.7-2.8v-2.1c0-1.9-0.9-2.8-2.6-2.8h-19.1c-5.8,0-8.9-3.2-8.9-8.8v-3.7
			c0-4.9,2.8-8.3,9-8.3C857.3,82.3,884.2,82.3,884.2,82.3z"/>
	</g>
	<g>
		<g>
			<g>
				<g>
					<path class="st3" d="M364.2,361.8h134.6c1.1,0,1.9,0.9,1.9,1.9V384c0,1.1-0.9,1.9-1.9,1.9H389.5v20.4H453l0.1,0
						c0.1,0,0.2,0,0.3,0h18.3c8.5,0,16.6,3.2,22.9,9l0.1,0c0,0,0,0,0,0l0.8,0.8c6.6,6.5,10.3,15.3,10.3,24.5
						c0,12.4-6.6,23.8-17.3,29.9c-5.1,2.9-10.9,4.5-16.8,4.5H369.2c-1.1,0-1.9-0.9-1.9-1.9v-20.3c0-1.1,0.9-1.9,1.9-1.9h101.5
						c0.1,0,0.2,0,0.3,0c0,0,0,0,0,0l0.6,0c3.2,0,6.1-1.6,8-4.1c1.9-2.5,2.5-5.7,1.7-8.7c-1.1-4-4.6-7-8.7-7.4l0,0l-1.4-0.1
						c0,0,0,0,0,0c-0.1,0-0.3,0-0.5,0c0,0,0,0,0,0l-1.3-0.1l-0.1,0c-0.1,0-0.3,0-0.4,0h-44.5l-0.1,0c-0.1,0-0.2,0-0.3,0h-59.9
						c-1.1,0-1.9-0.9-1.9-1.9v-64.9C362.2,362.7,363.1,361.8,364.2,361.8z"/>
					<path class="st4" d="M471.7,477.1H369.2c-2.2,0-3.9-1.8-3.9-3.9v-20.3c0-2.2,1.8-3.9,3.9-3.9l101.9,0l0.6,0
						c2.5,0,4.9-1.2,6.5-3.3c1.5-2,2-4.6,1.3-7c-0.9-3.2-3.7-5.6-7-6h0l-1.5-0.1c-0.1,0-0.2,0-0.3,0l-1.1,0c-0.2,0-0.4,0-0.6,0
						h-44.4c-0.1,0-0.3,0-0.5,0h-59.9c-2.2,0-3.9-1.8-3.9-3.9v-64.9c0-2.2,1.8-3.9,3.9-3.9h134.6c2.2,0,3.9,1.8,3.9,3.9V384
						c0,2.2-1.8,3.9-3.9,3.9H391.5v16.4h61.4c0.1,0,0.3,0,0.4,0h18.3c9,0,17.6,3.4,24.3,9.5l0.9,0.9c7,6.9,10.9,16.1,10.9,26
						c0,13-7,25.1-18.3,31.6C484,475.5,477.9,477.1,471.7,477.1z M369.3,473.1h102.4c5.5,0,11-1.5,15.8-4.2
						c10-5.8,16.3-16.6,16.3-28.2c0-8.8-3.4-17-9.7-23.1l-0.9-0.9c-6-5.5-13.6-8.4-21.5-8.4l-84.1,0v-24.4h111.1v-20.1H364.2v64.7
						l104.7,0l0.4-0.1l1.5,0.1c0.2,0,0.4,0,0.5,0l1.7,0.1c4.9,0.6,9,4.1,10.3,8.9c1,3.6,0.3,7.4-2,10.4c-2.3,3.1-5.9,4.9-9.6,4.9
						l-0.5,0c-0.2,0-0.3,0-0.4,0H369.3V473.1z M496.1,414l0.1,0.1C496.2,414.1,496.2,414.1,496.1,414z"/>
				</g>
				<g>
					<path class="st3" d="M521.6,361.8H545c1.1,0,1.9,0.9,1.9,1.9v109.5c0,1.1-0.9,1.9-1.9,1.9h-23.4c-1.1,0-1.9-0.9-1.9-1.9V363.8
						C519.7,362.7,520.5,361.8,521.6,361.8z M561.8,406.4h39.7l36.5-43.9c0.4-0.5,0.9-0.7,1.5-0.7h30.2c0.8,0,1.4,0.4,1.7,1.1
						c0.3,0.7,0.2,1.5-0.3,2.1l-43.2,52l24.3,29c3,3.3,6.8,5,11.3,5h6.2c1.1,0,1.9,0.9,1.9,1.9v20.3c0,1.1-0.9,1.9-1.9,1.9h-15.8
						c-8.6,0-15.9-3.4-21.5-10l-16.2-19.5l-0.1,0c-0.1-0.1-0.2-0.2-0.3-0.3l-8.5-10.2l-0.1-0.1c-0.1-0.1-0.2-0.1-0.3-0.2
						c-2.9-2.8-6.5-4.2-10.5-4.2h-34.7c-1.1,0-1.9-0.9-1.9-1.9v-20.3C559.8,407.3,560.7,406.4,561.8,406.4z"/>
					<path class="st4" d="M669.5,477.2h-15.8c-9.2,0-17.1-3.7-23-10.8l-16.1-19.4c-0.2-0.1-0.4-0.3-0.5-0.5l-8.3-10
						c-0.1-0.1-0.3-0.2-0.4-0.4c-2.4-2.4-5.5-3.6-9-3.6h-34.7c-2.2,0-3.9-1.8-3.9-3.9v-20.3c0-2.2,1.8-3.9,3.9-3.9h38.7l35.9-43.2
						c0.8-0.9,1.8-1.4,3-1.4h30.2c1.5,0,2.9,0.9,3.5,2.3c0.7,1.4,0.4,3-0.5,4.2L630.4,417l23.2,27.7c2.5,2.8,5.8,4.3,9.7,4.3h6.2
						c2.2,0,3.9,1.8,3.9,3.9v20.3C673.5,475.5,671.7,477.2,669.5,477.2z M617.3,444l0.3,0.3l16.2,19.5c5.1,6.1,12,9.3,19.9,9.3h15.7
						V453h-6.1c-5,0-9.4-2-12.8-5.7L625.2,417l44.2-53.2h-30l-37,44.6h-40.5v20.2h34.6c4.6,0,8.7,1.6,11.9,4.8l0.3,0.3L617.3,444
						C617.3,444,617.3,444,617.3,444z M545,477.2h-23.4c-2.2,0-3.9-1.8-3.9-3.9V363.8c0-2.2,1.8-3.9,3.9-3.9H545
						c2.2,0,3.9,1.8,3.9,3.9v109.5C548.9,475.5,547.2,477.2,545,477.2z M521.7,473.2h23.3V363.8h-23.3V473.2z"/>
				</g>
			</g>
		</g>
	</g>
	<g>
		<path class="st2" d="M122.1,563.7c0.6,0,0.9,0.3,0.9,0.8v3.6c0,0.6-0.3,0.8-0.9,0.8h-16.4c-3.9,0-5,1.2-5,5.1v0.4h21.2
			c0.6,0,0.8,0.3,0.8,0.8v3c0,0.6-0.3,0.8-0.8,0.8h-21.2v0.6c0,3.9,1.1,5.1,5,5.1h16.4c0.6,0,0.9,0.3,0.9,0.8v3.6
			c0,0.6-0.3,0.8-0.9,0.8h-16.5c-7.6,0-10.5-2.7-10.5-9.9v-6.4c0-7.2,2.9-9.9,10.5-9.9L122.1,563.7L122.1,563.7z"/>
		<path class="st2" d="M169.5,563.7c0.7,0,0.7,0.6,0.4,1l-11.5,11.7l12,12.6c0.3,0.3,0.3,1-0.4,1h-5.1c-0.6,0-0.9-0.2-1.2-0.5
			l-9.2-9.7l-9.3,9.7c-0.3,0.4-0.6,0.5-1.2,0.5h-4.9c-0.6,0-0.7-0.6-0.3-1l12.3-12.8l-11.1-11.5c-0.3-0.3-0.3-1,0.4-1h5.1
			c0.6,0,0.9,0.2,1.2,0.5l8.2,8.7l8.6-8.7c0.3-0.3,0.6-0.5,1.2-0.5H169.5z"/>
		<path class="st2" d="M212.8,563.7c0.6,0,0.8,0.3,0.8,0.8v3.7c0,0.6-0.3,0.9-0.8,0.9h-16.7c-3.9,0-5,1.1-5,5.1v5.3
			c0,4,1.1,5.1,5,5.1h16.7c0.6,0,0.8,0.3,0.8,0.8v3.7c0,0.6-0.3,0.8-0.8,0.8h-16.9c-7.6,0-10.5-2.7-10.5-9.9v-6.4
			c0-7.2,2.9-9.9,10.5-9.9L212.8,563.7L212.8,563.7z"/>
		<path class="st2" d="M235.5,563.7c0.6,0,0.8,0.3,0.8,0.8v14.9c0,4,1.1,5.1,5,5.1h15.2c0.6,0,0.8,0.3,0.8,0.8v3.7
			c0,0.6-0.3,0.8-0.8,0.8h-15.4c-7.6,0-10.5-2.7-10.5-9.9v-15.5c0-0.6,0.3-0.8,0.9-0.8L235.5,563.7L235.5,563.7z"/>
		<path class="st2" d="M278.1,563.7c0.6,0,0.8,0.3,0.8,0.8v14.9c0,4,1.1,5.1,5,5.1h10.4c3.9,0,4.9-1.2,4.9-5.1v-14.9
			c0-0.6,0.3-0.8,0.8-0.8h4.1c0.6,0,0.8,0.3,0.8,0.8V580c0,7.2-2.9,9.9-10.5,9.9h-10.8c-7.6,0-10.5-2.7-10.5-9.9v-15.5
			c0-0.6,0.3-0.8,0.9-0.8H278.1z"/>
		<path class="st2" d="M349,563.7c0.6,0,0.8,0.3,0.8,0.8v3.6c0,0.6-0.3,0.8-0.8,0.8h-18.8c-1.4,0-2,0.8-2,2.1v1.3
			c0,1.4,0.6,2.1,2,2.1h14c4.3,0,6.5,2.3,6.5,6.4v3c0,3.6-2.1,6.1-6.6,6.1h-20.7c-0.6,0-0.9-0.3-0.9-0.8v-3.6c0-0.6,0.3-0.8,0.9-0.8
			h19.7c1.4,0,2-0.8,2-2.1v-1.5c0-1.4-0.6-2.1-2-2.1h-14c-4.3,0-6.5-2.3-6.5-6.4v-2.7c0-3.6,2.1-6.1,6.6-6.1L349,563.7L349,563.7z"
			/>
		<path class="st2" d="M373.1,563.7c0.6,0,0.8,0.3,0.8,0.8v24.6c0,0.6-0.3,0.8-0.8,0.8h-4c-0.6,0-0.9-0.3-0.9-0.8v-24.6
			c0-0.6,0.3-0.8,0.9-0.8H373.1z"/>
		<path class="st2" d="M395.4,563.7c0.5,0,0.7,0.2,0.9,0.5l11,20.2c0.1,0.2,0.2,0.3,0.5,0.3h0.2c0.2,0,0.3,0,0.4-0.3l10.8-20.2
			c0.2-0.4,0.4-0.5,0.9-0.5h4.9c0.6,0,0.7,0.4,0.5,0.9l-12.3,22.5c-1.2,2.3-2.4,2.8-3.9,2.8H407c-2,0-3-0.6-4.3-2.8l-12.4-22.5
			c-0.3-0.5-0.1-0.9,0.5-0.9H395.4z"/>
		<path class="st2" d="M466.8,563.7c0.6,0,0.9,0.3,0.9,0.8v3.6c0,0.6-0.3,0.8-0.9,0.8h-16.4c-3.9,0-5,1.2-5,5.1v0.4h21.2
			c0.6,0,0.8,0.3,0.8,0.8v3c0,0.6-0.3,0.8-0.8,0.8h-21.2v0.6c0,3.9,1.1,5.1,5,5.1h16.4c0.6,0,0.9,0.3,0.9,0.8v3.6
			c0,0.6-0.3,0.8-0.9,0.8h-16.5c-7.6,0-10.5-2.7-10.5-9.9v-6.4c0-7.2,2.9-9.9,10.5-9.9L466.8,563.7L466.8,563.7z"/>
		<path class="st2" d="M518.1,563.7c2.2,0,3,0.5,4,2.8l7.8,18c0.1,0.3,0.3,0.3,0.5,0.3h0.5c0.3,0,0.4-0.1,0.5-0.3l7.8-18
			c1-2.4,1.8-2.8,4-2.8h4c2.6,0,3.3,1,3.3,3.9v21.5c0,0.6-0.3,0.8-0.9,0.8h-3.8c-0.6,0-0.8-0.3-0.8-0.8v-19.5c0-0.3-0.1-0.4-0.3-0.4
			h-0.3c-0.3,0-0.4,0.1-0.5,0.3l-7.6,16.8c-1.2,2.7-2.3,3.7-4.8,3.7h-1.8c-2.5,0-3.6-1-4.8-3.7l-7.6-16.8c-0.1-0.2-0.2-0.3-0.5-0.3
			h-0.3c-0.2,0-0.3,0.1-0.3,0.4v19.5c0,0.6-0.3,0.8-0.8,0.8h-3.8c-0.6,0-0.9-0.3-0.9-0.8v-21.5c0-2.8,0.7-3.9,3.3-3.9H518.1z"/>
		<path class="st2" d="M595.2,563.7c0.6,0,0.9,0.3,0.9,0.8v3.6c0,0.6-0.3,0.8-0.9,0.8h-16.4c-3.9,0-5,1.2-5,5.1v0.4H595
			c0.6,0,0.8,0.3,0.8,0.8v3c0,0.6-0.3,0.8-0.8,0.8h-21.2v0.6c0,3.9,1.1,5.1,5,5.1h16.4c0.6,0,0.9,0.3,0.9,0.8v3.6
			c0,0.6-0.3,0.8-0.9,0.8h-16.5c-7.6,0-10.5-2.7-10.5-9.9v-6.4c0-7.2,2.9-9.9,10.5-9.9L595.2,563.7L595.2,563.7z"/>
		<path class="st2" d="M620.9,563.7c2.2,0,3,0.5,4,2.8l7.8,18c0.1,0.3,0.3,0.3,0.5,0.3h0.5c0.3,0,0.4-0.1,0.5-0.3l7.8-18
			c1-2.4,1.8-2.8,4-2.8h4c2.6,0,3.3,1,3.3,3.9v21.5c0,0.6-0.3,0.8-0.9,0.8h-3.8c-0.6,0-0.8-0.3-0.8-0.8v-19.5c0-0.3-0.1-0.4-0.3-0.4
			h-0.3c-0.3,0-0.4,0.1-0.5,0.3l-7.6,16.8c-1.2,2.7-2.3,3.7-4.8,3.7h-1.8c-2.5,0-3.6-1-4.8-3.7l-7.6-16.8c-0.1-0.2-0.2-0.3-0.5-0.3
			h-0.3c-0.2,0-0.3,0.1-0.3,0.4v19.5c0,0.6-0.3,0.8-0.8,0.8h-3.8c-0.6,0-0.9-0.3-0.9-0.8v-21.5c0-2.8,0.7-3.9,3.3-3.9H620.9z"/>
		<path class="st2" d="M694,563.7c5.2,0,7.1,2,7.1,6.2v1.8c0,2.1-0.8,3.7-2.4,4.8c1.8,1,2.6,2.6,2.6,4.8v2.2c0,4-1.7,6.5-6.6,6.5
			h-22.2c-0.8,0-1.1-0.4-1.1-1.1v-24c0-0.8,0.4-1.1,1.1-1.1L694,563.7L694,563.7z M677,574.6h15.3c2.5,0,3.2-0.8,3.2-2.2v-1.3
			c0-1.5-0.8-2.2-2.8-2.2h-15.3c-0.3,0-0.5,0.2-0.5,0.5L677,574.6L677,574.6z M677,578.7v5.6c0,0.3,0.2,0.5,0.5,0.5h15.3
			c2,0,2.8-0.7,2.8-2.3v-1.4c0-1.5-0.8-2.4-3.3-2.4L677,578.7L677,578.7z"/>
		<path class="st2" d="M745.5,563.7c0.6,0,0.9,0.3,0.9,0.8v3.6c0,0.6-0.3,0.8-0.9,0.8h-16.4c-3.9,0-5,1.2-5,5.1v0.4h21.2
			c0.6,0,0.8,0.3,0.8,0.8v3c0,0.6-0.3,0.8-0.8,0.8h-21.2v0.6c0,3.9,1.1,5.1,5,5.1h16.4c0.6,0,0.9,0.3,0.9,0.8v3.6
			c0,0.6-0.3,0.8-0.9,0.8H729c-7.6,0-10.5-2.7-10.5-9.9v-6.4c0-7.2,2.9-9.9,10.5-9.9L745.5,563.7L745.5,563.7z"/>
		<path class="st2" d="M785,563.7c5.7,0,8,2.7,8,7.7v2.1c0,4.3-1.7,6.8-5.6,7.5l6.4,7.9c0.2,0.3,0.2,0.9-0.5,0.9h-4.8
			c-0.6,0-0.8-0.2-1-0.5l-5.9-7.8h-12.1v7.5c0,0.6-0.3,0.8-0.8,0.8h-4c-0.6,0-0.9-0.3-0.9-0.8v-24.3c0-0.8,0.4-1.1,1.1-1.1
			L785,563.7L785,563.7z M769.5,577.1h14.3c2.5,0,3.5-1.1,3.5-3.3v-1.6c0-2.2-0.9-3.3-3.5-3.3H770c-0.3,0-0.5,0.2-0.5,0.5
			L769.5,577.1L769.5,577.1z"/>
		<path class="st2" d="M836.4,563.7c0.6,0,0.8,0.3,0.8,0.8v3.6c0,0.6-0.3,0.8-0.8,0.8h-18.8c-1.4,0-2,0.8-2,2.1v1.3
			c0,1.4,0.6,2.1,2,2.1h14c4.3,0,6.5,2.3,6.5,6.4v3c0,3.6-2.1,6.1-6.6,6.1h-20.7c-0.6,0-0.9-0.3-0.9-0.8v-3.6c0-0.6,0.3-0.8,0.9-0.8
			h19.7c1.4,0,2-0.8,2-2.1v-1.5c0-1.4-0.6-2.1-2-2.1h-14c-4.3,0-6.5-2.3-6.5-6.4v-2.7c0-3.6,2.1-6.1,6.6-6.1L836.4,563.7
			L836.4,563.7z"/>
		<path class="st2" d="M860.5,563.7c0.6,0,0.8,0.3,0.8,0.8v9.7h17.5v-9.7c0-0.6,0.3-0.8,0.8-0.8h4c0.6,0,0.9,0.3,0.9,0.8v24.6
			c0,0.6-0.3,0.8-0.9,0.8h-4c-0.6,0-0.8-0.3-0.8-0.8v-10h-17.5v10c0,0.6-0.3,0.8-0.8,0.8h-4c-0.6,0-0.9-0.3-0.9-0.8v-24.6
			c0-0.6,0.3-0.8,0.9-0.8H860.5z"/>
		<path class="st2" d="M907.5,563.7c0.6,0,0.8,0.3,0.8,0.8v24.6c0,0.6-0.3,0.8-0.8,0.8h-4c-0.6,0-0.9-0.3-0.9-0.8v-24.6
			c0-0.6,0.3-0.8,0.9-0.8H907.5z"/>
		<path class="st2" d="M947.7,563.7c5.7,0,8,2.7,8,7.7v2.8c0,5.1-2.3,7.7-8,7.7h-15.5v7.2c0,0.6-0.3,0.8-0.8,0.8h-4
			c-0.6,0-0.9-0.3-0.9-0.8v-24.3c0-0.8,0.4-1.1,1.1-1.1L947.7,563.7L947.7,563.7z M932.2,577h14.3c2.5,0,3.5-1.1,3.5-3.3v-1.4
			c0-2.2-0.9-3.3-3.5-3.3h-13.8c-0.3,0-0.5,0.1-0.5,0.5L932.2,577L932.2,577z"/>
	</g>
	<g>
		<g>
			<path class="st2" d="M875.1,447.5l-5.5-14.4h2.2l4.5,11.8l4.5-11.8h2.2l-5.5,14.4H875.1z"/>
			<path class="st2" d="M891,433.1l5.5,14.4h-2.1l-1.3-3.3h-6.5l-1.3,3.3h-2.1l5.5-14.4H891z M887.5,442.1h4.9l-2.5-6.3L887.5,442.1
				z"/>
			<path class="st2" d="M901.7,433.1v12.3h7.4v2.1h-9.5v-14.4L901.7,433.1L901.7,433.1z"/>
			<path class="st2" d="M914.2,433.1v14.4h-2.1v-14.4H914.2z"/>
			<path class="st2" d="M918.5,447.5v-14.4h7.3c0.8,0,1.5,0.1,2.1,0.4s1.2,0.6,1.6,1c0.4,0.4,0.8,1,1,1.6s0.4,1.3,0.4,2.1v4.3
				c0,0.8-0.1,1.5-0.4,2.1s-0.6,1.1-1,1.6c-0.4,0.4-1,0.8-1.6,1c-0.6,0.2-1.3,0.4-2.1,0.4L918.5,447.5L918.5,447.5z M925.8,445.4
				c1,0,1.7-0.3,2.2-0.8c0.5-0.5,0.8-1.2,0.8-2.2v-4.3c0-0.5-0.1-0.9-0.2-1.3c-0.1-0.4-0.3-0.7-0.6-0.9s-0.6-0.5-0.9-0.6
				c-0.4-0.1-0.8-0.2-1.3-0.2h-5.3v10.3H925.8z"/>
			<path class="st2" d="M871.4,457.7H883v2.1h-4.7v12.3h-2.1v-12.3h-4.7L871.4,457.7L871.4,457.7z"/>
			<path class="st2" d="M898.4,457.7v14.4h-2.1V466h-8.2v6.2H886v-14.4h2.1v6.2h8.2v-6.2H898.4z"/>
			<path class="st2" d="M914.1,462.9c0,2-0.9,3.1-2.6,3.4l2.7,5.8h-2.3l-2.7-5.8h-4.5v5.8h-2.1v-14.4h7.9c2.3,0,3.5,1.2,3.5,3.5
				L914.1,462.9L914.1,462.9z M904.8,464.3h5.7c0.5,0,1-0.1,1.2-0.4s0.4-0.6,0.4-1.2v-1.4c0-0.5-0.1-1-0.4-1.2
				c-0.2-0.2-0.6-0.4-1.2-0.4h-5.7V464.3z"/>
			<path class="st2" d="M918.1,457.7h2.1v12.3h8.2v-12.3h2.1v12.3c0,0.3,0,0.5-0.2,0.8s-0.2,0.5-0.4,0.7s-0.4,0.3-0.7,0.4
				c-0.2,0.1-0.5,0.2-0.8,0.2h-8.2c-0.3,0-0.5,0-0.8-0.2c-0.2-0.1-0.5-0.3-0.7-0.4c-0.2-0.2-0.3-0.4-0.4-0.7
				c-0.1-0.2-0.2-0.5-0.2-0.8L918.1,457.7L918.1,457.7z"/>
		</g>
		<polygon class="st2" points="940.6,443 940.6,461.1 951.8,452 		"/>
	</g>
</g>
</svg>
